%TF.GenerationSoftware,KiCad,Pcbnew,(7.0.0)*%
%TF.CreationDate,2023-05-30T23:08:45+10:00*%
%TF.ProjectId,spot-welder,73706f74-2d77-4656-9c64-65722e6b6963,rev?*%
%TF.SameCoordinates,Original*%
%TF.FileFunction,Copper,L2,Bot*%
%TF.FilePolarity,Positive*%
%FSLAX46Y46*%
G04 Gerber Fmt 4.6, Leading zero omitted, Abs format (unit mm)*
G04 Created by KiCad (PCBNEW (7.0.0)) date 2023-05-30 23:08:45*
%MOMM*%
%LPD*%
G01*
G04 APERTURE LIST*
G04 Aperture macros list*
%AMRoundRect*
0 Rectangle with rounded corners*
0 $1 Rounding radius*
0 $2 $3 $4 $5 $6 $7 $8 $9 X,Y pos of 4 corners*
0 Add a 4 corners polygon primitive as box body*
4,1,4,$2,$3,$4,$5,$6,$7,$8,$9,$2,$3,0*
0 Add four circle primitives for the rounded corners*
1,1,$1+$1,$2,$3*
1,1,$1+$1,$4,$5*
1,1,$1+$1,$6,$7*
1,1,$1+$1,$8,$9*
0 Add four rect primitives between the rounded corners*
20,1,$1+$1,$2,$3,$4,$5,0*
20,1,$1+$1,$4,$5,$6,$7,0*
20,1,$1+$1,$6,$7,$8,$9,0*
20,1,$1+$1,$8,$9,$2,$3,0*%
G04 Aperture macros list end*
%TA.AperFunction,ComponentPad*%
%ADD10R,1.524000X2.524000*%
%TD*%
%TA.AperFunction,ComponentPad*%
%ADD11C,1.400000*%
%TD*%
%TA.AperFunction,ComponentPad*%
%ADD12O,1.400000X1.400000*%
%TD*%
%TA.AperFunction,ComponentPad*%
%ADD13C,3.524000*%
%TD*%
%TA.AperFunction,ComponentPad*%
%ADD14RoundRect,0.250000X0.600000X0.725000X-0.600000X0.725000X-0.600000X-0.725000X0.600000X-0.725000X0*%
%TD*%
%TA.AperFunction,ComponentPad*%
%ADD15O,1.700000X1.950000*%
%TD*%
%TA.AperFunction,ComponentPad*%
%ADD16RoundRect,0.250000X-0.600000X-0.725000X0.600000X-0.725000X0.600000X0.725000X-0.600000X0.725000X0*%
%TD*%
%TA.AperFunction,ComponentPad*%
%ADD17R,2.667000X1.524000*%
%TD*%
%TA.AperFunction,ComponentPad*%
%ADD18RoundRect,0.250000X-0.600000X-0.750000X0.600000X-0.750000X0.600000X0.750000X-0.600000X0.750000X0*%
%TD*%
%TA.AperFunction,ComponentPad*%
%ADD19O,1.700000X2.000000*%
%TD*%
%TA.AperFunction,ComponentPad*%
%ADD20R,1.524000X1.524000*%
%TD*%
%TA.AperFunction,ComponentPad*%
%ADD21O,1.700000X1.700000*%
%TD*%
%TA.AperFunction,ComponentPad*%
%ADD22R,1.700000X1.700000*%
%TD*%
%TA.AperFunction,ComponentPad*%
%ADD23RoundRect,0.250000X0.600000X0.750000X-0.600000X0.750000X-0.600000X-0.750000X0.600000X-0.750000X0*%
%TD*%
%TA.AperFunction,ComponentPad*%
%ADD24C,1.524000*%
%TD*%
%TA.AperFunction,ViaPad*%
%ADD25C,0.800000*%
%TD*%
%TA.AperFunction,Conductor*%
%ADD26C,0.250000*%
%TD*%
G04 APERTURE END LIST*
D10*
%TO.P,MOD1,1,+VOut*%
%TO.N,VCC*%
X56514999Y-34289999D03*
%TO.P,MOD1,2,-VOut*%
%TO.N,GND*%
X46354999Y-34289999D03*
%TD*%
D11*
%TO.P,R1,1*%
%TO.N,Net-(U1-GPIO27_ADC1)*%
X92705000Y-60325000D03*
D12*
%TO.P,R1,2*%
%TO.N,Net-(MOD2-Vout-)*%
X90804999Y-60324999D03*
%TD*%
D13*
%TO.P,MOD2,1,VIn+*%
%TO.N,VCC*%
X158750000Y-63182500D03*
%TO.P,MOD2,2,Vin-*%
%TO.N,Net-(MOD2-Vin-)*%
X158750000Y-35877500D03*
%TO.P,MOD2,3,Vout+*%
%TO.N,Net-(J4-Pin_1)*%
X99060000Y-63182500D03*
%TO.P,MOD2,4,Vout-*%
%TO.N,Net-(MOD2-Vout-)*%
X99060000Y-35877500D03*
%TD*%
D14*
%TO.P,J2,1,Pin_1*%
%TO.N,+3.3V*%
X72350000Y-71755000D03*
D15*
%TO.P,J2,2,Pin_2*%
%TO.N,Net-(J1-Pin_5)*%
X69849999Y-71754999D03*
%TO.P,J2,3,Pin_3*%
%TO.N,Net-(J2-Pin_3)*%
X67349999Y-71754999D03*
%TO.P,J2,4,Pin_4*%
%TO.N,Net-(J2-Pin_4)*%
X64849999Y-71754999D03*
%TO.P,J2,5,Pin_5*%
%TO.N,Net-(J2-Pin_5)*%
X62349999Y-71754999D03*
%TO.P,J2,6,Pin_6*%
%TO.N,Net-(J2-Pin_6)*%
X59849999Y-71754999D03*
%TO.P,J2,7,Pin_7*%
%TO.N,Net-(J2-Pin_7)*%
X57349999Y-71754999D03*
%TO.P,J2,8,Pin_8*%
%TO.N,+3.3V*%
X54849999Y-71754999D03*
%TO.P,J2,9,Pin_9*%
%TO.N,Net-(J2-Pin_9)*%
X52349999Y-71754999D03*
%TD*%
D16*
%TO.P,J1,1,Pin_1*%
%TO.N,Net-(J1-Pin_1)*%
X34290000Y-71120000D03*
D15*
%TO.P,J1,2,Pin_2*%
%TO.N,Net-(J1-Pin_2)*%
X36789999Y-71119999D03*
%TO.P,J1,3,Pin_3*%
%TO.N,Net-(J1-Pin_3)*%
X39289999Y-71119999D03*
%TO.P,J1,4,Pin_4*%
%TO.N,+3.3V*%
X41789999Y-71119999D03*
%TO.P,J1,5,Pin_5*%
%TO.N,Net-(J1-Pin_5)*%
X44289999Y-71119999D03*
%TD*%
D17*
%TO.P,MOD6,1,VIn+*%
%TO.N,Net-(J4-Pin_1)*%
X60959999Y-45084999D03*
%TO.P,MOD6,2,VIn-*%
%TO.N,Net-(MOD2-Vout-)*%
X60959999Y-34924999D03*
%TO.P,MOD6,3,VOut+*%
%TO.N,+12V*%
X93979999Y-45084999D03*
%TO.P,MOD6,4,VOut-*%
%TO.N,Net-(MOD6-VOut-)*%
X93979999Y-34924999D03*
%TD*%
D18*
%TO.P,J6,1,Pin_1*%
%TO.N,Net-(J6-Pin_1)*%
X145415000Y-70485000D03*
D19*
%TO.P,J6,2,Pin_2*%
%TO.N,+12V*%
X147914999Y-70484999D03*
%TD*%
D20*
%TO.P,MOD4,1,VIn+*%
%TO.N,VCC*%
X60959999Y-50799999D03*
X60959999Y-52069999D03*
%TO.P,MOD4,2,VIn-*%
%TO.N,GND*%
X60959999Y-64134999D03*
X60959999Y-65404999D03*
%TO.P,MOD4,3,VOut+*%
%TO.N,+3.3V*%
X81279999Y-50799999D03*
X81279999Y-52069999D03*
%TO.P,MOD4,4,VOut-*%
%TO.N,Net-(J1-Pin_5)*%
X81279999Y-64134999D03*
X81279999Y-65404999D03*
%TD*%
D11*
%TO.P,R3,1*%
%TO.N,Net-(U1-GPIO26_ADC0)*%
X90805000Y-53975000D03*
D12*
%TO.P,R3,2*%
%TO.N,Net-(MOD2-Vout-)*%
X92704999Y-53974999D03*
%TD*%
D21*
%TO.P,U1,1,GPIO0*%
%TO.N,Net-(J3-Pin_1)*%
X19049999Y-15239999D03*
%TO.P,U1,2,GPIO1*%
%TO.N,Net-(J3-Pin_2)*%
X19049999Y-17779999D03*
D22*
%TO.P,U1,3,GND*%
%TO.N,Net-(J1-Pin_5)*%
X19049999Y-20319999D03*
D21*
%TO.P,U1,4,GPIO2*%
%TO.N,Net-(MOD3-Trigger+)*%
X19049999Y-22859999D03*
%TO.P,U1,5,GPIO3*%
%TO.N,Net-(MOD5-Trigger+)*%
X19049999Y-25399999D03*
%TO.P,U1,6,GPIO4*%
%TO.N,Net-(MOD7-Trigger+)*%
X19049999Y-27939999D03*
%TO.P,U1,7,GPIO5*%
%TO.N,unconnected-(U1-GPIO5-Pad7)*%
X19049999Y-30479999D03*
D22*
%TO.P,U1,8,GND*%
%TO.N,unconnected-(U1-GND-Pad8)*%
X19049999Y-33019999D03*
D21*
%TO.P,U1,9,GPIO6*%
%TO.N,unconnected-(U1-GPIO6-Pad9)*%
X19049999Y-35559999D03*
%TO.P,U1,10,GPIO7*%
%TO.N,unconnected-(U1-GPIO7-Pad10)*%
X19049999Y-38099999D03*
%TO.P,U1,11,GPIO8*%
%TO.N,unconnected-(U1-GPIO8-Pad11)*%
X19049999Y-40639999D03*
%TO.P,U1,12,GPIO9*%
%TO.N,unconnected-(U1-GPIO9-Pad12)*%
X19049999Y-43179999D03*
D22*
%TO.P,U1,13,GND*%
%TO.N,unconnected-(U1-GND-Pad13)*%
X19049999Y-45719999D03*
D21*
%TO.P,U1,14,GPIO10*%
%TO.N,unconnected-(U1-GPIO10-Pad14)*%
X19049999Y-48259999D03*
%TO.P,U1,15,GPIO11*%
%TO.N,unconnected-(U1-GPIO11-Pad15)*%
X19049999Y-50799999D03*
%TO.P,U1,16,GPIO12*%
%TO.N,unconnected-(U1-GPIO12-Pad16)*%
X19049999Y-53339999D03*
%TO.P,U1,17,GPIO13*%
%TO.N,unconnected-(U1-GPIO13-Pad17)*%
X19049999Y-55879999D03*
D22*
%TO.P,U1,18,GND*%
%TO.N,unconnected-(U1-GND-Pad18)*%
X19049999Y-58419999D03*
D21*
%TO.P,U1,19,GPIO14*%
%TO.N,Net-(J2-Pin_4)*%
X19049999Y-60959999D03*
%TO.P,U1,20,GPIO15*%
%TO.N,Net-(J2-Pin_5)*%
X19049999Y-63499999D03*
%TO.P,U1,21,GPIO16*%
%TO.N,Net-(J2-Pin_9)*%
X36829999Y-63499999D03*
%TO.P,U1,22,GPIO17*%
%TO.N,Net-(J2-Pin_3)*%
X36829999Y-60959999D03*
D22*
%TO.P,U1,23,GND*%
%TO.N,unconnected-(U1-GND-Pad23)*%
X36829999Y-58419999D03*
D21*
%TO.P,U1,24,GPIO18*%
%TO.N,Net-(J2-Pin_7)*%
X36829999Y-55879999D03*
%TO.P,U1,25,GPIO19*%
%TO.N,Net-(J2-Pin_6)*%
X36829999Y-53339999D03*
%TO.P,U1,26,GPIO20*%
%TO.N,Net-(J1-Pin_3)*%
X36829999Y-50799999D03*
%TO.P,U1,27,GPIO21*%
%TO.N,Net-(J1-Pin_2)*%
X36829999Y-48259999D03*
D22*
%TO.P,U1,28,GND*%
%TO.N,unconnected-(U1-GND-Pad28)*%
X36829999Y-45719999D03*
D21*
%TO.P,U1,29,GPIO22*%
%TO.N,Net-(J1-Pin_1)*%
X36829999Y-43179999D03*
%TO.P,U1,30,RUN*%
%TO.N,unconnected-(U1-RUN-Pad30)*%
X36829999Y-40639999D03*
%TO.P,U1,31,GPIO26_ADC0*%
%TO.N,Net-(U1-GPIO26_ADC0)*%
X36829999Y-38099999D03*
%TO.P,U1,32,GPIO27_ADC1*%
%TO.N,Net-(U1-GPIO27_ADC1)*%
X36829999Y-35559999D03*
D22*
%TO.P,U1,33,AGND*%
%TO.N,unconnected-(U1-AGND-Pad33)*%
X36829999Y-33019999D03*
D21*
%TO.P,U1,34,GPIO28_ADC2*%
%TO.N,unconnected-(U1-GPIO28_ADC2-Pad34)*%
X36829999Y-30479999D03*
%TO.P,U1,35,ADC_VREF*%
%TO.N,unconnected-(U1-ADC_VREF-Pad35)*%
X36829999Y-27939999D03*
%TO.P,U1,36,3V3*%
%TO.N,unconnected-(U1-3V3-Pad36)*%
X36829999Y-25399999D03*
%TO.P,U1,37,3V3_EN*%
%TO.N,unconnected-(U1-3V3_EN-Pad37)*%
X36829999Y-22859999D03*
D22*
%TO.P,U1,38,GND*%
%TO.N,unconnected-(U1-GND-Pad38)*%
X36829999Y-20319999D03*
D21*
%TO.P,U1,39,VSYS*%
%TO.N,+3.3V*%
X36829999Y-17779999D03*
%TO.P,U1,40,VBUS*%
X36829999Y-15239999D03*
%TO.P,U1,41,SWCLK*%
%TO.N,unconnected-(U1-SWCLK-Pad41)*%
X25399999Y-63269999D03*
D22*
%TO.P,U1,42,GND*%
%TO.N,unconnected-(U1-GND-Pad42)*%
X27939999Y-63269999D03*
D21*
%TO.P,U1,43,SWDIO*%
%TO.N,unconnected-(U1-SWDIO-Pad43)*%
X30479999Y-63269999D03*
%TD*%
D11*
%TO.P,R4,1*%
%TO.N,Net-(J5-Pin_1)*%
X84820000Y-53975000D03*
D12*
%TO.P,R4,2*%
%TO.N,Net-(U1-GPIO26_ADC0)*%
X86719999Y-53974999D03*
%TD*%
D11*
%TO.P,R2,1*%
%TO.N,Net-(J4-Pin_1)*%
X86990000Y-60325000D03*
D12*
%TO.P,R2,2*%
%TO.N,Net-(U1-GPIO27_ADC1)*%
X85089999Y-60324999D03*
%TD*%
D14*
%TO.P,J3,1,Pin_1*%
%TO.N,Net-(J3-Pin_1)*%
X25915000Y-71755000D03*
D15*
%TO.P,J3,2,Pin_2*%
%TO.N,Net-(J3-Pin_2)*%
X23414999Y-71754999D03*
%TO.P,J3,3,Pin_3*%
%TO.N,Net-(J1-Pin_5)*%
X20914999Y-71754999D03*
%TO.P,J3,4,Pin_4*%
%TO.N,+3.3V*%
X18414999Y-71754999D03*
%TD*%
D23*
%TO.P,J4,1,Pin_1*%
%TO.N,Net-(J4-Pin_1)*%
X137795000Y-71120000D03*
D19*
%TO.P,J4,2,Pin_2*%
%TO.N,Net-(J4-Pin_2)*%
X135294999Y-71119999D03*
%TD*%
D18*
%TO.P,J5,1,Pin_1*%
%TO.N,Net-(J5-Pin_1)*%
X155575000Y-70485000D03*
D19*
%TO.P,J5,2*%
%TO.N,N/C*%
X158074999Y-70484999D03*
%TD*%
D24*
%TO.P,MOD3,1,Trigger+*%
%TO.N,Net-(MOD3-Trigger+)*%
X86360000Y-19685000D03*
%TO.P,MOD3,2,Trigger-*%
%TO.N,GND*%
X86360000Y-22860000D03*
%TO.P,MOD3,3,V+*%
%TO.N,VCC*%
X61595000Y-17780000D03*
%TO.P,MOD3,4,V-*%
%TO.N,GND*%
X61595000Y-25400000D03*
%TO.P,MOD3,5,Load*%
%TO.N,Net-(MOD2-Vin-)*%
X61595000Y-20955000D03*
%TD*%
%TO.P,MOD7,1,Trigger+*%
%TO.N,Net-(MOD7-Trigger+)*%
X121285000Y-19685000D03*
%TO.P,MOD7,2,Trigger-*%
%TO.N,Net-(J1-Pin_5)*%
X121285000Y-22860000D03*
%TO.P,MOD7,3,V+*%
%TO.N,+12V*%
X96520000Y-17780000D03*
%TO.P,MOD7,4,V-*%
%TO.N,Net-(MOD6-VOut-)*%
X96520000Y-25400000D03*
%TO.P,MOD7,5,Load*%
%TO.N,Net-(J6-Pin_1)*%
X96520000Y-20955000D03*
%TD*%
%TO.P,MOD5,1,Trigger+*%
%TO.N,Net-(MOD5-Trigger+)*%
X156210000Y-19685000D03*
%TO.P,MOD5,2,Trigger-*%
%TO.N,Net-(J1-Pin_5)*%
X156210000Y-22860000D03*
%TO.P,MOD5,3,V+*%
%TO.N,Net-(J4-Pin_1)*%
X131445000Y-17780000D03*
%TO.P,MOD5,4,V-*%
%TO.N,Net-(MOD2-Vout-)*%
X131445000Y-25400000D03*
%TO.P,MOD5,5,Load*%
%TO.N,Net-(J4-Pin_2)*%
X131445000Y-20955000D03*
%TD*%
D25*
%TO.N,VCC*%
X101600000Y-46990000D03*
%TO.N,GND*%
X57785000Y-27305000D03*
%TO.N,Net-(MOD2-Vout-)*%
X99060000Y-47625000D03*
%TO.N,+3.3V*%
X33655000Y-23495000D03*
X33744500Y-51524500D03*
%TO.N,Net-(J1-Pin_5)*%
X121920000Y-31115000D03*
X121920000Y-70485000D03*
%TO.N,Net-(J4-Pin_1)*%
X104229500Y-64770000D03*
%TO.N,Net-(J4-Pin_2)*%
X130175000Y-27940000D03*
%TD*%
D26*
%TO.N,VCC*%
X56515000Y-22860000D02*
X56515000Y-34290000D01*
X100875000Y-46900000D02*
X100965000Y-46990000D01*
X61595000Y-17780000D02*
X56515000Y-22860000D01*
X56515000Y-51435000D02*
X57150000Y-52070000D01*
X100965000Y-46990000D02*
X101600000Y-46990000D01*
X66130000Y-46900000D02*
X100875000Y-46900000D01*
X56515000Y-34290000D02*
X56515000Y-51435000D01*
X57150000Y-52070000D02*
X60960000Y-52070000D01*
X60960000Y-52070000D02*
X66130000Y-46900000D01*
%TO.N,GND*%
X61595000Y-25400000D02*
X59690000Y-25400000D01*
X55245000Y-64770000D02*
X55880000Y-65405000D01*
X83820000Y-25400000D02*
X86360000Y-22860000D01*
X55880000Y-65405000D02*
X60960000Y-65405000D01*
X59690000Y-25400000D02*
X57785000Y-27305000D01*
X54651701Y-64770000D02*
X55245000Y-64770000D01*
X46355000Y-56473299D02*
X54651701Y-64770000D01*
X61595000Y-25400000D02*
X83820000Y-25400000D01*
X46355000Y-34290000D02*
X46355000Y-56473299D01*
%TO.N,Net-(MOD2-Vout-)*%
X92705000Y-57145000D02*
X92705000Y-53975000D01*
X99060000Y-35877500D02*
X113164500Y-21773000D01*
X90805000Y-60325000D02*
X90805000Y-59055000D01*
X127818000Y-21773000D02*
X131445000Y-25400000D01*
X99060000Y-47625000D02*
X99055000Y-47625000D01*
X113164500Y-21773000D02*
X127818000Y-21773000D01*
X90805000Y-59055000D02*
X92710000Y-57150000D01*
X99055000Y-47625000D02*
X92705000Y-53975000D01*
X92710000Y-57150000D02*
X92705000Y-57145000D01*
%TO.N,Net-(MOD2-Vin-)*%
X66675000Y-15240000D02*
X158750000Y-15240000D01*
X66675000Y-15875000D02*
X66675000Y-15240000D01*
X61595000Y-20955000D02*
X66675000Y-15875000D01*
X158750000Y-15240000D02*
X158750000Y-35877500D01*
%TO.N,+3.3V*%
X41910000Y-74930000D02*
X54610000Y-74930000D01*
X54610000Y-74930000D02*
X54850000Y-74690000D01*
X72390000Y-74930000D02*
X83185000Y-74930000D01*
X18415000Y-71755000D02*
X18415000Y-74930000D01*
X33655000Y-17780000D02*
X36830000Y-17780000D01*
X41910000Y-74930000D02*
X41790000Y-74810000D01*
X83185000Y-74930000D02*
X83185000Y-52705000D01*
X33655000Y-17780000D02*
X33655000Y-15240000D01*
X33655000Y-63500000D02*
X33655000Y-51435000D01*
X18415000Y-74930000D02*
X41910000Y-74930000D01*
X54850000Y-74690000D02*
X54850000Y-71755000D01*
X83185000Y-52705000D02*
X81280000Y-50800000D01*
X41275000Y-71120000D02*
X33655000Y-63500000D01*
X41790000Y-74810000D02*
X41790000Y-71120000D01*
X33655000Y-23495000D02*
X33655000Y-17780000D01*
X54610000Y-74930000D02*
X72390000Y-74930000D01*
X72390000Y-74930000D02*
X72390000Y-71795000D01*
X33655000Y-15240000D02*
X36830000Y-15240000D01*
X33655000Y-51435000D02*
X33744500Y-51524500D01*
%TO.N,Net-(J1-Pin_5)*%
X121920000Y-23495000D02*
X121285000Y-22860000D01*
X13335000Y-69215000D02*
X13335000Y-20320000D01*
X18375000Y-69215000D02*
X13335000Y-69215000D01*
X20915000Y-71755000D02*
X18375000Y-69215000D01*
X121920000Y-31115000D02*
X121920000Y-30480000D01*
X121920000Y-70485000D02*
X121920000Y-23495000D01*
X13335000Y-20320000D02*
X19050000Y-20320000D01*
%TO.N,Net-(J2-Pin_6)*%
X59850000Y-71755000D02*
X41435000Y-53340000D01*
X41435000Y-53340000D02*
X36830000Y-53340000D01*
%TO.N,Net-(J2-Pin_7)*%
X44450000Y-63500000D02*
X36830000Y-55880000D01*
X57350000Y-71755000D02*
X49095000Y-63500000D01*
X49095000Y-63500000D02*
X44450000Y-63500000D01*
%TO.N,Net-(J2-Pin_9)*%
X52350000Y-71755000D02*
X51250000Y-71755000D01*
X42995000Y-63500000D02*
X37465000Y-63500000D01*
X51250000Y-71755000D02*
X42995000Y-63500000D01*
%TO.N,Net-(J3-Pin_1)*%
X19050000Y-15240000D02*
X24225000Y-20415000D01*
X24225000Y-70065000D02*
X25915000Y-71755000D01*
X24225000Y-20415000D02*
X24225000Y-70065000D01*
%TO.N,Net-(J3-Pin_2)*%
X23415000Y-22145000D02*
X23415000Y-71755000D01*
X19050000Y-17780000D02*
X23415000Y-22145000D01*
%TO.N,Net-(J4-Pin_1)*%
X104140000Y-64859500D02*
X104229500Y-64770000D01*
X104140000Y-72390000D02*
X104140000Y-64859500D01*
X104195000Y-72445000D02*
X104140000Y-72390000D01*
X136470000Y-72445000D02*
X104195000Y-72445000D01*
X137795000Y-71120000D02*
X136470000Y-72445000D01*
%TO.N,Net-(J1-Pin_3)*%
X33020000Y-64850000D02*
X33020000Y-50800000D01*
X33020000Y-50800000D02*
X36830000Y-50800000D01*
X39290000Y-71120000D02*
X33020000Y-64850000D01*
%TO.N,Net-(J1-Pin_2)*%
X32385000Y-66715000D02*
X32385000Y-48260000D01*
X36790000Y-71120000D02*
X32385000Y-66715000D01*
X32385000Y-48260000D02*
X36830000Y-48260000D01*
%TO.N,Net-(J1-Pin_1)*%
X31750000Y-43180000D02*
X36830000Y-43180000D01*
X34290000Y-71120000D02*
X31750000Y-68580000D01*
X31750000Y-68580000D02*
X31750000Y-43180000D01*
%TO.N,Net-(J4-Pin_2)*%
X135255000Y-71120000D02*
X135295000Y-71120000D01*
X130175000Y-27940000D02*
X130175000Y-66040000D01*
X130175000Y-66040000D02*
X135255000Y-71120000D01*
%TO.N,Net-(J5-Pin_1)*%
X152400000Y-73660000D02*
X93980000Y-73660000D01*
X155575000Y-70485000D02*
X152400000Y-73660000D01*
X93980000Y-73660000D02*
X93980000Y-65405000D01*
X93980000Y-65405000D02*
X84820000Y-56245000D01*
X84820000Y-56245000D02*
X84820000Y-53975000D01*
%TO.N,Net-(J6-Pin_1)*%
X145415000Y-19050000D02*
X145415000Y-70485000D01*
X129907749Y-20955000D02*
X131812749Y-19050000D01*
X96520000Y-20955000D02*
X129907749Y-20955000D01*
X131812749Y-19050000D02*
X145415000Y-19050000D01*
%TO.N,+12V*%
X147915000Y-72985000D02*
X147955000Y-73025000D01*
X96520000Y-17780000D02*
X92321500Y-21978500D01*
X147915000Y-70485000D02*
X147915000Y-72985000D01*
X92321500Y-21978500D02*
X92321500Y-43426500D01*
X103505000Y-45085000D02*
X93980000Y-45085000D01*
X92321500Y-43426500D02*
X93980000Y-45085000D01*
X147955000Y-73025000D02*
X103505000Y-73025000D01*
X103505000Y-73025000D02*
X103505000Y-45085000D01*
%TO.N,Net-(MOD6-VOut-)*%
X96520000Y-25400000D02*
X96520000Y-32385000D01*
X96520000Y-32385000D02*
X93980000Y-34925000D01*
%TD*%
M02*
