M48
; DRILL file {KiCad (7.0.0)} date Tue May 30 23:08:42 2023
; FORMAT={-:-/ absolute / metric / decimal}
; #@! TF.CreationDate,2023-05-30T23:08:42+10:00
; #@! TF.GenerationSoftware,Kicad,Pcbnew,(7.0.0)
; #@! TF.FileFunction,Plated,1,2,PTH
FMAT,2
METRIC
; #@! TA.AperFunction,Plated,PTH,ViaDrill
T1C0.400
; #@! TA.AperFunction,Plated,PTH,ComponentDrill
T2C0.700
; #@! TA.AperFunction,Plated,PTH,ComponentDrill
T3C0.762
; #@! TA.AperFunction,Plated,PTH,ComponentDrill
T4C0.950
; #@! TA.AperFunction,Plated,PTH,ComponentDrill
T5C1.000
; #@! TA.AperFunction,Plated,PTH,ComponentDrill
T6C1.020
; #@! TA.AperFunction,Plated,PTH,ComponentDrill
T7C1.762
%
G90
G05
T1
X33.655Y-23.495
X33.744Y-51.524
X57.785Y-27.305
X99.06Y-47.625
X101.6Y-46.99
X104.23Y-64.77
X121.92Y-31.115
X121.92Y-70.485
X130.175Y-27.94
T2
X84.82Y-53.975
X85.09Y-60.325
X86.72Y-53.975
X86.99Y-60.325
X90.805Y-53.975
X90.805Y-60.325
X92.705Y-53.975
X92.705Y-60.325
T3
X46.355Y-34.29
X56.515Y-34.29
X60.96Y-34.925
X60.96Y-45.085
X60.96Y-50.8
X60.96Y-52.07
X60.96Y-64.135
X60.96Y-65.405
X61.595Y-17.78
X61.595Y-20.955
X61.595Y-25.4
X81.28Y-50.8
X81.28Y-52.07
X81.28Y-64.135
X81.28Y-65.405
X86.36Y-19.685
X86.36Y-22.86
X93.98Y-34.925
X93.98Y-45.085
X96.52Y-17.78
X96.52Y-20.955
X96.52Y-25.4
X121.285Y-19.685
X121.285Y-22.86
X131.445Y-17.78
X131.445Y-20.955
X131.445Y-25.4
X156.21Y-19.685
X156.21Y-22.86
T4
X18.415Y-71.755
X20.915Y-71.755
X23.415Y-71.755
X25.915Y-71.755
X34.29Y-71.12
X36.79Y-71.12
X39.29Y-71.12
X41.79Y-71.12
X44.29Y-71.12
X52.35Y-71.755
X54.85Y-71.755
X57.35Y-71.755
X59.85Y-71.755
X62.35Y-71.755
X64.85Y-71.755
X67.35Y-71.755
X69.85Y-71.755
X72.35Y-71.755
T5
X135.295Y-71.12
X137.795Y-71.12
X145.415Y-70.485
X147.915Y-70.485
X155.575Y-70.485
X158.075Y-70.485
T6
X19.05Y-15.24
X19.05Y-17.78
X19.05Y-20.32
X19.05Y-22.86
X19.05Y-25.4
X19.05Y-27.94
X19.05Y-30.48
X19.05Y-33.02
X19.05Y-35.56
X19.05Y-38.1
X19.05Y-40.64
X19.05Y-43.18
X19.05Y-45.72
X19.05Y-48.26
X19.05Y-50.8
X19.05Y-53.34
X19.05Y-55.88
X19.05Y-58.42
X19.05Y-60.96
X19.05Y-63.5
X25.4Y-63.27
X27.94Y-63.27
X30.48Y-63.27
X36.83Y-15.24
X36.83Y-17.78
X36.83Y-20.32
X36.83Y-22.86
X36.83Y-25.4
X36.83Y-27.94
X36.83Y-30.48
X36.83Y-33.02
X36.83Y-35.56
X36.83Y-38.1
X36.83Y-40.64
X36.83Y-43.18
X36.83Y-45.72
X36.83Y-48.26
X36.83Y-50.8
X36.83Y-53.34
X36.83Y-55.88
X36.83Y-58.42
X36.83Y-60.96
X36.83Y-63.5
T7
X99.06Y-35.877
X99.06Y-63.182
X158.75Y-35.877
X158.75Y-63.182
T0
M30
