%TF.GenerationSoftware,KiCad,Pcbnew,(7.0.0)*%
%TF.CreationDate,2023-05-30T23:08:45+10:00*%
%TF.ProjectId,spot-welder,73706f74-2d77-4656-9c64-65722e6b6963,rev?*%
%TF.SameCoordinates,Original*%
%TF.FileFunction,Legend,Bot*%
%TF.FilePolarity,Positive*%
%FSLAX46Y46*%
G04 Gerber Fmt 4.6, Leading zero omitted, Abs format (unit mm)*
G04 Created by KiCad (PCBNEW (7.0.0)) date 2023-05-30 23:08:45*
%MOMM*%
%LPD*%
G01*
G04 APERTURE LIST*
%ADD10C,0.100000*%
G04 APERTURE END LIST*
D10*
%TO.C,MOD3*%
X81208332Y-19552380D02*
X81208332Y-18552380D01*
X81208332Y-18552380D02*
X80874999Y-19266666D01*
X80874999Y-19266666D02*
X80541666Y-18552380D01*
X80541666Y-18552380D02*
X80541666Y-19552380D01*
X79874999Y-18552380D02*
X79684523Y-18552380D01*
X79684523Y-18552380D02*
X79589285Y-18600000D01*
X79589285Y-18600000D02*
X79494047Y-18695238D01*
X79494047Y-18695238D02*
X79446428Y-18885714D01*
X79446428Y-18885714D02*
X79446428Y-19219047D01*
X79446428Y-19219047D02*
X79494047Y-19409523D01*
X79494047Y-19409523D02*
X79589285Y-19504761D01*
X79589285Y-19504761D02*
X79684523Y-19552380D01*
X79684523Y-19552380D02*
X79874999Y-19552380D01*
X79874999Y-19552380D02*
X79970237Y-19504761D01*
X79970237Y-19504761D02*
X80065475Y-19409523D01*
X80065475Y-19409523D02*
X80113094Y-19219047D01*
X80113094Y-19219047D02*
X80113094Y-18885714D01*
X80113094Y-18885714D02*
X80065475Y-18695238D01*
X80065475Y-18695238D02*
X79970237Y-18600000D01*
X79970237Y-18600000D02*
X79874999Y-18552380D01*
X79017856Y-19552380D02*
X79017856Y-18552380D01*
X79017856Y-18552380D02*
X78779761Y-18552380D01*
X78779761Y-18552380D02*
X78636904Y-18600000D01*
X78636904Y-18600000D02*
X78541666Y-18695238D01*
X78541666Y-18695238D02*
X78494047Y-18790476D01*
X78494047Y-18790476D02*
X78446428Y-18980952D01*
X78446428Y-18980952D02*
X78446428Y-19123809D01*
X78446428Y-19123809D02*
X78494047Y-19314285D01*
X78494047Y-19314285D02*
X78541666Y-19409523D01*
X78541666Y-19409523D02*
X78636904Y-19504761D01*
X78636904Y-19504761D02*
X78779761Y-19552380D01*
X78779761Y-19552380D02*
X79017856Y-19552380D01*
X78113094Y-18552380D02*
X77494047Y-18552380D01*
X77494047Y-18552380D02*
X77827380Y-18933333D01*
X77827380Y-18933333D02*
X77684523Y-18933333D01*
X77684523Y-18933333D02*
X77589285Y-18980952D01*
X77589285Y-18980952D02*
X77541666Y-19028571D01*
X77541666Y-19028571D02*
X77494047Y-19123809D01*
X77494047Y-19123809D02*
X77494047Y-19361904D01*
X77494047Y-19361904D02*
X77541666Y-19457142D01*
X77541666Y-19457142D02*
X77589285Y-19504761D01*
X77589285Y-19504761D02*
X77684523Y-19552380D01*
X77684523Y-19552380D02*
X77970237Y-19552380D01*
X77970237Y-19552380D02*
X78065475Y-19504761D01*
X78065475Y-19504761D02*
X78113094Y-19457142D01*
X89439761Y-24817380D02*
X88868333Y-24817380D01*
X89154047Y-25817380D02*
X89154047Y-24817380D01*
X88534999Y-25817380D02*
X88534999Y-25150714D01*
X88534999Y-25341190D02*
X88487380Y-25245952D01*
X88487380Y-25245952D02*
X88439761Y-25198333D01*
X88439761Y-25198333D02*
X88344523Y-25150714D01*
X88344523Y-25150714D02*
X88249285Y-25150714D01*
X87915951Y-25817380D02*
X87915951Y-25150714D01*
X87915951Y-24817380D02*
X87963570Y-24865000D01*
X87963570Y-24865000D02*
X87915951Y-24912619D01*
X87915951Y-24912619D02*
X87868332Y-24865000D01*
X87868332Y-24865000D02*
X87915951Y-24817380D01*
X87915951Y-24817380D02*
X87915951Y-24912619D01*
X87011190Y-25150714D02*
X87011190Y-25960238D01*
X87011190Y-25960238D02*
X87058809Y-26055476D01*
X87058809Y-26055476D02*
X87106428Y-26103095D01*
X87106428Y-26103095D02*
X87201666Y-26150714D01*
X87201666Y-26150714D02*
X87344523Y-26150714D01*
X87344523Y-26150714D02*
X87439761Y-26103095D01*
X87011190Y-25769761D02*
X87106428Y-25817380D01*
X87106428Y-25817380D02*
X87296904Y-25817380D01*
X87296904Y-25817380D02*
X87392142Y-25769761D01*
X87392142Y-25769761D02*
X87439761Y-25722142D01*
X87439761Y-25722142D02*
X87487380Y-25626904D01*
X87487380Y-25626904D02*
X87487380Y-25341190D01*
X87487380Y-25341190D02*
X87439761Y-25245952D01*
X87439761Y-25245952D02*
X87392142Y-25198333D01*
X87392142Y-25198333D02*
X87296904Y-25150714D01*
X87296904Y-25150714D02*
X87106428Y-25150714D01*
X87106428Y-25150714D02*
X87011190Y-25198333D01*
X85934999Y-25436428D02*
X85173095Y-25436428D01*
X72310714Y-23277380D02*
X72786904Y-23277380D01*
X72786904Y-23277380D02*
X72786904Y-22277380D01*
X71834523Y-23277380D02*
X71929761Y-23229761D01*
X71929761Y-23229761D02*
X71977380Y-23182142D01*
X71977380Y-23182142D02*
X72024999Y-23086904D01*
X72024999Y-23086904D02*
X72024999Y-22801190D01*
X72024999Y-22801190D02*
X71977380Y-22705952D01*
X71977380Y-22705952D02*
X71929761Y-22658333D01*
X71929761Y-22658333D02*
X71834523Y-22610714D01*
X71834523Y-22610714D02*
X71691666Y-22610714D01*
X71691666Y-22610714D02*
X71596428Y-22658333D01*
X71596428Y-22658333D02*
X71548809Y-22705952D01*
X71548809Y-22705952D02*
X71501190Y-22801190D01*
X71501190Y-22801190D02*
X71501190Y-23086904D01*
X71501190Y-23086904D02*
X71548809Y-23182142D01*
X71548809Y-23182142D02*
X71596428Y-23229761D01*
X71596428Y-23229761D02*
X71691666Y-23277380D01*
X71691666Y-23277380D02*
X71834523Y-23277380D01*
X70644047Y-23277380D02*
X70644047Y-22753571D01*
X70644047Y-22753571D02*
X70691666Y-22658333D01*
X70691666Y-22658333D02*
X70786904Y-22610714D01*
X70786904Y-22610714D02*
X70977380Y-22610714D01*
X70977380Y-22610714D02*
X71072618Y-22658333D01*
X70644047Y-23229761D02*
X70739285Y-23277380D01*
X70739285Y-23277380D02*
X70977380Y-23277380D01*
X70977380Y-23277380D02*
X71072618Y-23229761D01*
X71072618Y-23229761D02*
X71120237Y-23134523D01*
X71120237Y-23134523D02*
X71120237Y-23039285D01*
X71120237Y-23039285D02*
X71072618Y-22944047D01*
X71072618Y-22944047D02*
X70977380Y-22896428D01*
X70977380Y-22896428D02*
X70739285Y-22896428D01*
X70739285Y-22896428D02*
X70644047Y-22848809D01*
X69739285Y-23277380D02*
X69739285Y-22277380D01*
X69739285Y-23229761D02*
X69834523Y-23277380D01*
X69834523Y-23277380D02*
X70024999Y-23277380D01*
X70024999Y-23277380D02*
X70120237Y-23229761D01*
X70120237Y-23229761D02*
X70167856Y-23182142D01*
X70167856Y-23182142D02*
X70215475Y-23086904D01*
X70215475Y-23086904D02*
X70215475Y-22801190D01*
X70215475Y-22801190D02*
X70167856Y-22705952D01*
X70167856Y-22705952D02*
X70120237Y-22658333D01*
X70120237Y-22658333D02*
X70024999Y-22610714D01*
X70024999Y-22610714D02*
X69834523Y-22610714D01*
X69834523Y-22610714D02*
X69739285Y-22658333D01*
X68663094Y-22896428D02*
X67901190Y-22896428D01*
X72294761Y-27357380D02*
X71961428Y-28357380D01*
X71961428Y-28357380D02*
X71628095Y-27357380D01*
X70694761Y-27976428D02*
X69932857Y-27976428D01*
X89439761Y-18467380D02*
X88868333Y-18467380D01*
X89154047Y-19467380D02*
X89154047Y-18467380D01*
X88534999Y-19467380D02*
X88534999Y-18800714D01*
X88534999Y-18991190D02*
X88487380Y-18895952D01*
X88487380Y-18895952D02*
X88439761Y-18848333D01*
X88439761Y-18848333D02*
X88344523Y-18800714D01*
X88344523Y-18800714D02*
X88249285Y-18800714D01*
X87915951Y-19467380D02*
X87915951Y-18800714D01*
X87915951Y-18467380D02*
X87963570Y-18515000D01*
X87963570Y-18515000D02*
X87915951Y-18562619D01*
X87915951Y-18562619D02*
X87868332Y-18515000D01*
X87868332Y-18515000D02*
X87915951Y-18467380D01*
X87915951Y-18467380D02*
X87915951Y-18562619D01*
X87011190Y-18800714D02*
X87011190Y-19610238D01*
X87011190Y-19610238D02*
X87058809Y-19705476D01*
X87058809Y-19705476D02*
X87106428Y-19753095D01*
X87106428Y-19753095D02*
X87201666Y-19800714D01*
X87201666Y-19800714D02*
X87344523Y-19800714D01*
X87344523Y-19800714D02*
X87439761Y-19753095D01*
X87011190Y-19419761D02*
X87106428Y-19467380D01*
X87106428Y-19467380D02*
X87296904Y-19467380D01*
X87296904Y-19467380D02*
X87392142Y-19419761D01*
X87392142Y-19419761D02*
X87439761Y-19372142D01*
X87439761Y-19372142D02*
X87487380Y-19276904D01*
X87487380Y-19276904D02*
X87487380Y-18991190D01*
X87487380Y-18991190D02*
X87439761Y-18895952D01*
X87439761Y-18895952D02*
X87392142Y-18848333D01*
X87392142Y-18848333D02*
X87296904Y-18800714D01*
X87296904Y-18800714D02*
X87106428Y-18800714D01*
X87106428Y-18800714D02*
X87011190Y-18848333D01*
X85934999Y-19086428D02*
X85173095Y-19086428D01*
X85554047Y-19467380D02*
X85554047Y-18705476D01*
X72294761Y-15292380D02*
X71961428Y-16292380D01*
X71961428Y-16292380D02*
X71628095Y-15292380D01*
X70694761Y-15911428D02*
X69932857Y-15911428D01*
X70313809Y-16292380D02*
X70313809Y-15530476D01*
%TO.C,MOD7*%
X116133332Y-19552380D02*
X116133332Y-18552380D01*
X116133332Y-18552380D02*
X115799999Y-19266666D01*
X115799999Y-19266666D02*
X115466666Y-18552380D01*
X115466666Y-18552380D02*
X115466666Y-19552380D01*
X114799999Y-18552380D02*
X114609523Y-18552380D01*
X114609523Y-18552380D02*
X114514285Y-18600000D01*
X114514285Y-18600000D02*
X114419047Y-18695238D01*
X114419047Y-18695238D02*
X114371428Y-18885714D01*
X114371428Y-18885714D02*
X114371428Y-19219047D01*
X114371428Y-19219047D02*
X114419047Y-19409523D01*
X114419047Y-19409523D02*
X114514285Y-19504761D01*
X114514285Y-19504761D02*
X114609523Y-19552380D01*
X114609523Y-19552380D02*
X114799999Y-19552380D01*
X114799999Y-19552380D02*
X114895237Y-19504761D01*
X114895237Y-19504761D02*
X114990475Y-19409523D01*
X114990475Y-19409523D02*
X115038094Y-19219047D01*
X115038094Y-19219047D02*
X115038094Y-18885714D01*
X115038094Y-18885714D02*
X114990475Y-18695238D01*
X114990475Y-18695238D02*
X114895237Y-18600000D01*
X114895237Y-18600000D02*
X114799999Y-18552380D01*
X113942856Y-19552380D02*
X113942856Y-18552380D01*
X113942856Y-18552380D02*
X113704761Y-18552380D01*
X113704761Y-18552380D02*
X113561904Y-18600000D01*
X113561904Y-18600000D02*
X113466666Y-18695238D01*
X113466666Y-18695238D02*
X113419047Y-18790476D01*
X113419047Y-18790476D02*
X113371428Y-18980952D01*
X113371428Y-18980952D02*
X113371428Y-19123809D01*
X113371428Y-19123809D02*
X113419047Y-19314285D01*
X113419047Y-19314285D02*
X113466666Y-19409523D01*
X113466666Y-19409523D02*
X113561904Y-19504761D01*
X113561904Y-19504761D02*
X113704761Y-19552380D01*
X113704761Y-19552380D02*
X113942856Y-19552380D01*
X113038094Y-18552380D02*
X112371428Y-18552380D01*
X112371428Y-18552380D02*
X112799999Y-19552380D01*
X124364761Y-24817380D02*
X123793333Y-24817380D01*
X124079047Y-25817380D02*
X124079047Y-24817380D01*
X123459999Y-25817380D02*
X123459999Y-25150714D01*
X123459999Y-25341190D02*
X123412380Y-25245952D01*
X123412380Y-25245952D02*
X123364761Y-25198333D01*
X123364761Y-25198333D02*
X123269523Y-25150714D01*
X123269523Y-25150714D02*
X123174285Y-25150714D01*
X122840951Y-25817380D02*
X122840951Y-25150714D01*
X122840951Y-24817380D02*
X122888570Y-24865000D01*
X122888570Y-24865000D02*
X122840951Y-24912619D01*
X122840951Y-24912619D02*
X122793332Y-24865000D01*
X122793332Y-24865000D02*
X122840951Y-24817380D01*
X122840951Y-24817380D02*
X122840951Y-24912619D01*
X121936190Y-25150714D02*
X121936190Y-25960238D01*
X121936190Y-25960238D02*
X121983809Y-26055476D01*
X121983809Y-26055476D02*
X122031428Y-26103095D01*
X122031428Y-26103095D02*
X122126666Y-26150714D01*
X122126666Y-26150714D02*
X122269523Y-26150714D01*
X122269523Y-26150714D02*
X122364761Y-26103095D01*
X121936190Y-25769761D02*
X122031428Y-25817380D01*
X122031428Y-25817380D02*
X122221904Y-25817380D01*
X122221904Y-25817380D02*
X122317142Y-25769761D01*
X122317142Y-25769761D02*
X122364761Y-25722142D01*
X122364761Y-25722142D02*
X122412380Y-25626904D01*
X122412380Y-25626904D02*
X122412380Y-25341190D01*
X122412380Y-25341190D02*
X122364761Y-25245952D01*
X122364761Y-25245952D02*
X122317142Y-25198333D01*
X122317142Y-25198333D02*
X122221904Y-25150714D01*
X122221904Y-25150714D02*
X122031428Y-25150714D01*
X122031428Y-25150714D02*
X121936190Y-25198333D01*
X120859999Y-25436428D02*
X120098095Y-25436428D01*
X107235714Y-23277380D02*
X107711904Y-23277380D01*
X107711904Y-23277380D02*
X107711904Y-22277380D01*
X106759523Y-23277380D02*
X106854761Y-23229761D01*
X106854761Y-23229761D02*
X106902380Y-23182142D01*
X106902380Y-23182142D02*
X106949999Y-23086904D01*
X106949999Y-23086904D02*
X106949999Y-22801190D01*
X106949999Y-22801190D02*
X106902380Y-22705952D01*
X106902380Y-22705952D02*
X106854761Y-22658333D01*
X106854761Y-22658333D02*
X106759523Y-22610714D01*
X106759523Y-22610714D02*
X106616666Y-22610714D01*
X106616666Y-22610714D02*
X106521428Y-22658333D01*
X106521428Y-22658333D02*
X106473809Y-22705952D01*
X106473809Y-22705952D02*
X106426190Y-22801190D01*
X106426190Y-22801190D02*
X106426190Y-23086904D01*
X106426190Y-23086904D02*
X106473809Y-23182142D01*
X106473809Y-23182142D02*
X106521428Y-23229761D01*
X106521428Y-23229761D02*
X106616666Y-23277380D01*
X106616666Y-23277380D02*
X106759523Y-23277380D01*
X105569047Y-23277380D02*
X105569047Y-22753571D01*
X105569047Y-22753571D02*
X105616666Y-22658333D01*
X105616666Y-22658333D02*
X105711904Y-22610714D01*
X105711904Y-22610714D02*
X105902380Y-22610714D01*
X105902380Y-22610714D02*
X105997618Y-22658333D01*
X105569047Y-23229761D02*
X105664285Y-23277380D01*
X105664285Y-23277380D02*
X105902380Y-23277380D01*
X105902380Y-23277380D02*
X105997618Y-23229761D01*
X105997618Y-23229761D02*
X106045237Y-23134523D01*
X106045237Y-23134523D02*
X106045237Y-23039285D01*
X106045237Y-23039285D02*
X105997618Y-22944047D01*
X105997618Y-22944047D02*
X105902380Y-22896428D01*
X105902380Y-22896428D02*
X105664285Y-22896428D01*
X105664285Y-22896428D02*
X105569047Y-22848809D01*
X104664285Y-23277380D02*
X104664285Y-22277380D01*
X104664285Y-23229761D02*
X104759523Y-23277380D01*
X104759523Y-23277380D02*
X104949999Y-23277380D01*
X104949999Y-23277380D02*
X105045237Y-23229761D01*
X105045237Y-23229761D02*
X105092856Y-23182142D01*
X105092856Y-23182142D02*
X105140475Y-23086904D01*
X105140475Y-23086904D02*
X105140475Y-22801190D01*
X105140475Y-22801190D02*
X105092856Y-22705952D01*
X105092856Y-22705952D02*
X105045237Y-22658333D01*
X105045237Y-22658333D02*
X104949999Y-22610714D01*
X104949999Y-22610714D02*
X104759523Y-22610714D01*
X104759523Y-22610714D02*
X104664285Y-22658333D01*
X103588094Y-22896428D02*
X102826190Y-22896428D01*
X107219761Y-15292380D02*
X106886428Y-16292380D01*
X106886428Y-16292380D02*
X106553095Y-15292380D01*
X105619761Y-15911428D02*
X104857857Y-15911428D01*
X105238809Y-16292380D02*
X105238809Y-15530476D01*
X124364761Y-18467380D02*
X123793333Y-18467380D01*
X124079047Y-19467380D02*
X124079047Y-18467380D01*
X123459999Y-19467380D02*
X123459999Y-18800714D01*
X123459999Y-18991190D02*
X123412380Y-18895952D01*
X123412380Y-18895952D02*
X123364761Y-18848333D01*
X123364761Y-18848333D02*
X123269523Y-18800714D01*
X123269523Y-18800714D02*
X123174285Y-18800714D01*
X122840951Y-19467380D02*
X122840951Y-18800714D01*
X122840951Y-18467380D02*
X122888570Y-18515000D01*
X122888570Y-18515000D02*
X122840951Y-18562619D01*
X122840951Y-18562619D02*
X122793332Y-18515000D01*
X122793332Y-18515000D02*
X122840951Y-18467380D01*
X122840951Y-18467380D02*
X122840951Y-18562619D01*
X121936190Y-18800714D02*
X121936190Y-19610238D01*
X121936190Y-19610238D02*
X121983809Y-19705476D01*
X121983809Y-19705476D02*
X122031428Y-19753095D01*
X122031428Y-19753095D02*
X122126666Y-19800714D01*
X122126666Y-19800714D02*
X122269523Y-19800714D01*
X122269523Y-19800714D02*
X122364761Y-19753095D01*
X121936190Y-19419761D02*
X122031428Y-19467380D01*
X122031428Y-19467380D02*
X122221904Y-19467380D01*
X122221904Y-19467380D02*
X122317142Y-19419761D01*
X122317142Y-19419761D02*
X122364761Y-19372142D01*
X122364761Y-19372142D02*
X122412380Y-19276904D01*
X122412380Y-19276904D02*
X122412380Y-18991190D01*
X122412380Y-18991190D02*
X122364761Y-18895952D01*
X122364761Y-18895952D02*
X122317142Y-18848333D01*
X122317142Y-18848333D02*
X122221904Y-18800714D01*
X122221904Y-18800714D02*
X122031428Y-18800714D01*
X122031428Y-18800714D02*
X121936190Y-18848333D01*
X120859999Y-19086428D02*
X120098095Y-19086428D01*
X120479047Y-19467380D02*
X120479047Y-18705476D01*
X107219761Y-27357380D02*
X106886428Y-28357380D01*
X106886428Y-28357380D02*
X106553095Y-27357380D01*
X105619761Y-27976428D02*
X104857857Y-27976428D01*
%TO.C,MOD5*%
X151058332Y-19552380D02*
X151058332Y-18552380D01*
X151058332Y-18552380D02*
X150724999Y-19266666D01*
X150724999Y-19266666D02*
X150391666Y-18552380D01*
X150391666Y-18552380D02*
X150391666Y-19552380D01*
X149724999Y-18552380D02*
X149534523Y-18552380D01*
X149534523Y-18552380D02*
X149439285Y-18600000D01*
X149439285Y-18600000D02*
X149344047Y-18695238D01*
X149344047Y-18695238D02*
X149296428Y-18885714D01*
X149296428Y-18885714D02*
X149296428Y-19219047D01*
X149296428Y-19219047D02*
X149344047Y-19409523D01*
X149344047Y-19409523D02*
X149439285Y-19504761D01*
X149439285Y-19504761D02*
X149534523Y-19552380D01*
X149534523Y-19552380D02*
X149724999Y-19552380D01*
X149724999Y-19552380D02*
X149820237Y-19504761D01*
X149820237Y-19504761D02*
X149915475Y-19409523D01*
X149915475Y-19409523D02*
X149963094Y-19219047D01*
X149963094Y-19219047D02*
X149963094Y-18885714D01*
X149963094Y-18885714D02*
X149915475Y-18695238D01*
X149915475Y-18695238D02*
X149820237Y-18600000D01*
X149820237Y-18600000D02*
X149724999Y-18552380D01*
X148867856Y-19552380D02*
X148867856Y-18552380D01*
X148867856Y-18552380D02*
X148629761Y-18552380D01*
X148629761Y-18552380D02*
X148486904Y-18600000D01*
X148486904Y-18600000D02*
X148391666Y-18695238D01*
X148391666Y-18695238D02*
X148344047Y-18790476D01*
X148344047Y-18790476D02*
X148296428Y-18980952D01*
X148296428Y-18980952D02*
X148296428Y-19123809D01*
X148296428Y-19123809D02*
X148344047Y-19314285D01*
X148344047Y-19314285D02*
X148391666Y-19409523D01*
X148391666Y-19409523D02*
X148486904Y-19504761D01*
X148486904Y-19504761D02*
X148629761Y-19552380D01*
X148629761Y-19552380D02*
X148867856Y-19552380D01*
X147391666Y-18552380D02*
X147867856Y-18552380D01*
X147867856Y-18552380D02*
X147915475Y-19028571D01*
X147915475Y-19028571D02*
X147867856Y-18980952D01*
X147867856Y-18980952D02*
X147772618Y-18933333D01*
X147772618Y-18933333D02*
X147534523Y-18933333D01*
X147534523Y-18933333D02*
X147439285Y-18980952D01*
X147439285Y-18980952D02*
X147391666Y-19028571D01*
X147391666Y-19028571D02*
X147344047Y-19123809D01*
X147344047Y-19123809D02*
X147344047Y-19361904D01*
X147344047Y-19361904D02*
X147391666Y-19457142D01*
X147391666Y-19457142D02*
X147439285Y-19504761D01*
X147439285Y-19504761D02*
X147534523Y-19552380D01*
X147534523Y-19552380D02*
X147772618Y-19552380D01*
X147772618Y-19552380D02*
X147867856Y-19504761D01*
X147867856Y-19504761D02*
X147915475Y-19457142D01*
X142144761Y-15292380D02*
X141811428Y-16292380D01*
X141811428Y-16292380D02*
X141478095Y-15292380D01*
X140544761Y-15911428D02*
X139782857Y-15911428D01*
X140163809Y-16292380D02*
X140163809Y-15530476D01*
X142160714Y-23277380D02*
X142636904Y-23277380D01*
X142636904Y-23277380D02*
X142636904Y-22277380D01*
X141684523Y-23277380D02*
X141779761Y-23229761D01*
X141779761Y-23229761D02*
X141827380Y-23182142D01*
X141827380Y-23182142D02*
X141874999Y-23086904D01*
X141874999Y-23086904D02*
X141874999Y-22801190D01*
X141874999Y-22801190D02*
X141827380Y-22705952D01*
X141827380Y-22705952D02*
X141779761Y-22658333D01*
X141779761Y-22658333D02*
X141684523Y-22610714D01*
X141684523Y-22610714D02*
X141541666Y-22610714D01*
X141541666Y-22610714D02*
X141446428Y-22658333D01*
X141446428Y-22658333D02*
X141398809Y-22705952D01*
X141398809Y-22705952D02*
X141351190Y-22801190D01*
X141351190Y-22801190D02*
X141351190Y-23086904D01*
X141351190Y-23086904D02*
X141398809Y-23182142D01*
X141398809Y-23182142D02*
X141446428Y-23229761D01*
X141446428Y-23229761D02*
X141541666Y-23277380D01*
X141541666Y-23277380D02*
X141684523Y-23277380D01*
X140494047Y-23277380D02*
X140494047Y-22753571D01*
X140494047Y-22753571D02*
X140541666Y-22658333D01*
X140541666Y-22658333D02*
X140636904Y-22610714D01*
X140636904Y-22610714D02*
X140827380Y-22610714D01*
X140827380Y-22610714D02*
X140922618Y-22658333D01*
X140494047Y-23229761D02*
X140589285Y-23277380D01*
X140589285Y-23277380D02*
X140827380Y-23277380D01*
X140827380Y-23277380D02*
X140922618Y-23229761D01*
X140922618Y-23229761D02*
X140970237Y-23134523D01*
X140970237Y-23134523D02*
X140970237Y-23039285D01*
X140970237Y-23039285D02*
X140922618Y-22944047D01*
X140922618Y-22944047D02*
X140827380Y-22896428D01*
X140827380Y-22896428D02*
X140589285Y-22896428D01*
X140589285Y-22896428D02*
X140494047Y-22848809D01*
X139589285Y-23277380D02*
X139589285Y-22277380D01*
X139589285Y-23229761D02*
X139684523Y-23277380D01*
X139684523Y-23277380D02*
X139874999Y-23277380D01*
X139874999Y-23277380D02*
X139970237Y-23229761D01*
X139970237Y-23229761D02*
X140017856Y-23182142D01*
X140017856Y-23182142D02*
X140065475Y-23086904D01*
X140065475Y-23086904D02*
X140065475Y-22801190D01*
X140065475Y-22801190D02*
X140017856Y-22705952D01*
X140017856Y-22705952D02*
X139970237Y-22658333D01*
X139970237Y-22658333D02*
X139874999Y-22610714D01*
X139874999Y-22610714D02*
X139684523Y-22610714D01*
X139684523Y-22610714D02*
X139589285Y-22658333D01*
X138513094Y-22896428D02*
X137751190Y-22896428D01*
X159289761Y-24817380D02*
X158718333Y-24817380D01*
X159004047Y-25817380D02*
X159004047Y-24817380D01*
X158384999Y-25817380D02*
X158384999Y-25150714D01*
X158384999Y-25341190D02*
X158337380Y-25245952D01*
X158337380Y-25245952D02*
X158289761Y-25198333D01*
X158289761Y-25198333D02*
X158194523Y-25150714D01*
X158194523Y-25150714D02*
X158099285Y-25150714D01*
X157765951Y-25817380D02*
X157765951Y-25150714D01*
X157765951Y-24817380D02*
X157813570Y-24865000D01*
X157813570Y-24865000D02*
X157765951Y-24912619D01*
X157765951Y-24912619D02*
X157718332Y-24865000D01*
X157718332Y-24865000D02*
X157765951Y-24817380D01*
X157765951Y-24817380D02*
X157765951Y-24912619D01*
X156861190Y-25150714D02*
X156861190Y-25960238D01*
X156861190Y-25960238D02*
X156908809Y-26055476D01*
X156908809Y-26055476D02*
X156956428Y-26103095D01*
X156956428Y-26103095D02*
X157051666Y-26150714D01*
X157051666Y-26150714D02*
X157194523Y-26150714D01*
X157194523Y-26150714D02*
X157289761Y-26103095D01*
X156861190Y-25769761D02*
X156956428Y-25817380D01*
X156956428Y-25817380D02*
X157146904Y-25817380D01*
X157146904Y-25817380D02*
X157242142Y-25769761D01*
X157242142Y-25769761D02*
X157289761Y-25722142D01*
X157289761Y-25722142D02*
X157337380Y-25626904D01*
X157337380Y-25626904D02*
X157337380Y-25341190D01*
X157337380Y-25341190D02*
X157289761Y-25245952D01*
X157289761Y-25245952D02*
X157242142Y-25198333D01*
X157242142Y-25198333D02*
X157146904Y-25150714D01*
X157146904Y-25150714D02*
X156956428Y-25150714D01*
X156956428Y-25150714D02*
X156861190Y-25198333D01*
X155784999Y-25436428D02*
X155023095Y-25436428D01*
X142144761Y-27357380D02*
X141811428Y-28357380D01*
X141811428Y-28357380D02*
X141478095Y-27357380D01*
X140544761Y-27976428D02*
X139782857Y-27976428D01*
X159289761Y-18467380D02*
X158718333Y-18467380D01*
X159004047Y-19467380D02*
X159004047Y-18467380D01*
X158384999Y-19467380D02*
X158384999Y-18800714D01*
X158384999Y-18991190D02*
X158337380Y-18895952D01*
X158337380Y-18895952D02*
X158289761Y-18848333D01*
X158289761Y-18848333D02*
X158194523Y-18800714D01*
X158194523Y-18800714D02*
X158099285Y-18800714D01*
X157765951Y-19467380D02*
X157765951Y-18800714D01*
X157765951Y-18467380D02*
X157813570Y-18515000D01*
X157813570Y-18515000D02*
X157765951Y-18562619D01*
X157765951Y-18562619D02*
X157718332Y-18515000D01*
X157718332Y-18515000D02*
X157765951Y-18467380D01*
X157765951Y-18467380D02*
X157765951Y-18562619D01*
X156861190Y-18800714D02*
X156861190Y-19610238D01*
X156861190Y-19610238D02*
X156908809Y-19705476D01*
X156908809Y-19705476D02*
X156956428Y-19753095D01*
X156956428Y-19753095D02*
X157051666Y-19800714D01*
X157051666Y-19800714D02*
X157194523Y-19800714D01*
X157194523Y-19800714D02*
X157289761Y-19753095D01*
X156861190Y-19419761D02*
X156956428Y-19467380D01*
X156956428Y-19467380D02*
X157146904Y-19467380D01*
X157146904Y-19467380D02*
X157242142Y-19419761D01*
X157242142Y-19419761D02*
X157289761Y-19372142D01*
X157289761Y-19372142D02*
X157337380Y-19276904D01*
X157337380Y-19276904D02*
X157337380Y-18991190D01*
X157337380Y-18991190D02*
X157289761Y-18895952D01*
X157289761Y-18895952D02*
X157242142Y-18848333D01*
X157242142Y-18848333D02*
X157146904Y-18800714D01*
X157146904Y-18800714D02*
X156956428Y-18800714D01*
X156956428Y-18800714D02*
X156861190Y-18848333D01*
X155784999Y-19086428D02*
X155023095Y-19086428D01*
X155404047Y-19467380D02*
X155404047Y-18705476D01*
%TO.C,MOD3*%
X91122500Y-13335000D02*
X57467500Y-13335000D01*
X57467500Y-13335000D02*
X57467500Y-29845000D01*
X57467500Y-29845000D02*
X91122500Y-29845000D01*
X91122500Y-29845000D02*
X91122500Y-13335000D01*
%TO.C,MOD7*%
X126047500Y-13335000D02*
X92392500Y-13335000D01*
X92392500Y-13335000D02*
X92392500Y-29845000D01*
X92392500Y-29845000D02*
X126047500Y-29845000D01*
X126047500Y-29845000D02*
X126047500Y-13335000D01*
%TO.C,MOD5*%
X160972500Y-13335000D02*
X127317500Y-13335000D01*
X127317500Y-13335000D02*
X127317500Y-29845000D01*
X127317500Y-29845000D02*
X160972500Y-29845000D01*
X160972500Y-29845000D02*
X160972500Y-13335000D01*
%TD*%
M02*
