%TF.GenerationSoftware,KiCad,Pcbnew,(7.0.0)*%
%TF.CreationDate,2023-05-30T23:08:45+10:00*%
%TF.ProjectId,spot-welder,73706f74-2d77-4656-9c64-65722e6b6963,rev?*%
%TF.SameCoordinates,Original*%
%TF.FileFunction,Legend,Top*%
%TF.FilePolarity,Positive*%
%FSLAX46Y46*%
G04 Gerber Fmt 4.6, Leading zero omitted, Abs format (unit mm)*
G04 Created by KiCad (PCBNEW (7.0.0)) date 2023-05-30 23:08:45*
%MOMM*%
%LPD*%
G01*
G04 APERTURE LIST*
%ADD10C,0.100000*%
%ADD11C,0.150000*%
%ADD12C,0.120000*%
G04 APERTURE END LIST*
D10*
%TO.C,MOD1*%
X51567619Y-22931667D02*
X52567619Y-22931667D01*
X52567619Y-22931667D02*
X51853333Y-23265000D01*
X51853333Y-23265000D02*
X52567619Y-23598333D01*
X52567619Y-23598333D02*
X51567619Y-23598333D01*
X52567619Y-24265000D02*
X52567619Y-24455476D01*
X52567619Y-24455476D02*
X52520000Y-24550714D01*
X52520000Y-24550714D02*
X52424761Y-24645952D01*
X52424761Y-24645952D02*
X52234285Y-24693571D01*
X52234285Y-24693571D02*
X51900952Y-24693571D01*
X51900952Y-24693571D02*
X51710476Y-24645952D01*
X51710476Y-24645952D02*
X51615238Y-24550714D01*
X51615238Y-24550714D02*
X51567619Y-24455476D01*
X51567619Y-24455476D02*
X51567619Y-24265000D01*
X51567619Y-24265000D02*
X51615238Y-24169762D01*
X51615238Y-24169762D02*
X51710476Y-24074524D01*
X51710476Y-24074524D02*
X51900952Y-24026905D01*
X51900952Y-24026905D02*
X52234285Y-24026905D01*
X52234285Y-24026905D02*
X52424761Y-24074524D01*
X52424761Y-24074524D02*
X52520000Y-24169762D01*
X52520000Y-24169762D02*
X52567619Y-24265000D01*
X51567619Y-25122143D02*
X52567619Y-25122143D01*
X52567619Y-25122143D02*
X52567619Y-25360238D01*
X52567619Y-25360238D02*
X52520000Y-25503095D01*
X52520000Y-25503095D02*
X52424761Y-25598333D01*
X52424761Y-25598333D02*
X52329523Y-25645952D01*
X52329523Y-25645952D02*
X52139047Y-25693571D01*
X52139047Y-25693571D02*
X51996190Y-25693571D01*
X51996190Y-25693571D02*
X51805714Y-25645952D01*
X51805714Y-25645952D02*
X51710476Y-25598333D01*
X51710476Y-25598333D02*
X51615238Y-25503095D01*
X51615238Y-25503095D02*
X51567619Y-25360238D01*
X51567619Y-25360238D02*
X51567619Y-25122143D01*
X51567619Y-26645952D02*
X51567619Y-26074524D01*
X51567619Y-26360238D02*
X52567619Y-26360238D01*
X52567619Y-26360238D02*
X52424761Y-26265000D01*
X52424761Y-26265000D02*
X52329523Y-26169762D01*
X52329523Y-26169762D02*
X52281904Y-26074524D01*
X46937619Y-27400238D02*
X45937619Y-27733571D01*
X45937619Y-27733571D02*
X46937619Y-28066904D01*
X46937619Y-28590714D02*
X46937619Y-28781190D01*
X46937619Y-28781190D02*
X46890000Y-28876428D01*
X46890000Y-28876428D02*
X46794761Y-28971666D01*
X46794761Y-28971666D02*
X46604285Y-29019285D01*
X46604285Y-29019285D02*
X46270952Y-29019285D01*
X46270952Y-29019285D02*
X46080476Y-28971666D01*
X46080476Y-28971666D02*
X45985238Y-28876428D01*
X45985238Y-28876428D02*
X45937619Y-28781190D01*
X45937619Y-28781190D02*
X45937619Y-28590714D01*
X45937619Y-28590714D02*
X45985238Y-28495476D01*
X45985238Y-28495476D02*
X46080476Y-28400238D01*
X46080476Y-28400238D02*
X46270952Y-28352619D01*
X46270952Y-28352619D02*
X46604285Y-28352619D01*
X46604285Y-28352619D02*
X46794761Y-28400238D01*
X46794761Y-28400238D02*
X46890000Y-28495476D01*
X46890000Y-28495476D02*
X46937619Y-28590714D01*
X46604285Y-29876428D02*
X45937619Y-29876428D01*
X46604285Y-29447857D02*
X46080476Y-29447857D01*
X46080476Y-29447857D02*
X45985238Y-29495476D01*
X45985238Y-29495476D02*
X45937619Y-29590714D01*
X45937619Y-29590714D02*
X45937619Y-29733571D01*
X45937619Y-29733571D02*
X45985238Y-29828809D01*
X45985238Y-29828809D02*
X46032857Y-29876428D01*
X46604285Y-30209762D02*
X46604285Y-30590714D01*
X46937619Y-30352619D02*
X46080476Y-30352619D01*
X46080476Y-30352619D02*
X45985238Y-30400238D01*
X45985238Y-30400238D02*
X45937619Y-30495476D01*
X45937619Y-30495476D02*
X45937619Y-30590714D01*
X46318571Y-31524048D02*
X46318571Y-32285953D01*
X57097619Y-27400238D02*
X56097619Y-27733571D01*
X56097619Y-27733571D02*
X57097619Y-28066904D01*
X57097619Y-28590714D02*
X57097619Y-28781190D01*
X57097619Y-28781190D02*
X57050000Y-28876428D01*
X57050000Y-28876428D02*
X56954761Y-28971666D01*
X56954761Y-28971666D02*
X56764285Y-29019285D01*
X56764285Y-29019285D02*
X56430952Y-29019285D01*
X56430952Y-29019285D02*
X56240476Y-28971666D01*
X56240476Y-28971666D02*
X56145238Y-28876428D01*
X56145238Y-28876428D02*
X56097619Y-28781190D01*
X56097619Y-28781190D02*
X56097619Y-28590714D01*
X56097619Y-28590714D02*
X56145238Y-28495476D01*
X56145238Y-28495476D02*
X56240476Y-28400238D01*
X56240476Y-28400238D02*
X56430952Y-28352619D01*
X56430952Y-28352619D02*
X56764285Y-28352619D01*
X56764285Y-28352619D02*
X56954761Y-28400238D01*
X56954761Y-28400238D02*
X57050000Y-28495476D01*
X57050000Y-28495476D02*
X57097619Y-28590714D01*
X56764285Y-29876428D02*
X56097619Y-29876428D01*
X56764285Y-29447857D02*
X56240476Y-29447857D01*
X56240476Y-29447857D02*
X56145238Y-29495476D01*
X56145238Y-29495476D02*
X56097619Y-29590714D01*
X56097619Y-29590714D02*
X56097619Y-29733571D01*
X56097619Y-29733571D02*
X56145238Y-29828809D01*
X56145238Y-29828809D02*
X56192857Y-29876428D01*
X56764285Y-30209762D02*
X56764285Y-30590714D01*
X57097619Y-30352619D02*
X56240476Y-30352619D01*
X56240476Y-30352619D02*
X56145238Y-30400238D01*
X56145238Y-30400238D02*
X56097619Y-30495476D01*
X56097619Y-30495476D02*
X56097619Y-30590714D01*
X56478571Y-31524048D02*
X56478571Y-32285953D01*
X56097619Y-31905000D02*
X56859523Y-31905000D01*
D11*
%TO.C,R1*%
X91588333Y-62612380D02*
X91255000Y-62136190D01*
X91016905Y-62612380D02*
X91016905Y-61612380D01*
X91016905Y-61612380D02*
X91397857Y-61612380D01*
X91397857Y-61612380D02*
X91493095Y-61660000D01*
X91493095Y-61660000D02*
X91540714Y-61707619D01*
X91540714Y-61707619D02*
X91588333Y-61802857D01*
X91588333Y-61802857D02*
X91588333Y-61945714D01*
X91588333Y-61945714D02*
X91540714Y-62040952D01*
X91540714Y-62040952D02*
X91493095Y-62088571D01*
X91493095Y-62088571D02*
X91397857Y-62136190D01*
X91397857Y-62136190D02*
X91016905Y-62136190D01*
X92540714Y-62612380D02*
X91969286Y-62612380D01*
X92255000Y-62612380D02*
X92255000Y-61612380D01*
X92255000Y-61612380D02*
X92159762Y-61755238D01*
X92159762Y-61755238D02*
X92064524Y-61850476D01*
X92064524Y-61850476D02*
X91969286Y-61898095D01*
D10*
%TO.C,MOD2*%
X128833332Y-49980119D02*
X128833332Y-50980119D01*
X128833332Y-50980119D02*
X128499999Y-50265833D01*
X128499999Y-50265833D02*
X128166666Y-50980119D01*
X128166666Y-50980119D02*
X128166666Y-49980119D01*
X127499999Y-50980119D02*
X127309523Y-50980119D01*
X127309523Y-50980119D02*
X127214285Y-50932500D01*
X127214285Y-50932500D02*
X127119047Y-50837261D01*
X127119047Y-50837261D02*
X127071428Y-50646785D01*
X127071428Y-50646785D02*
X127071428Y-50313452D01*
X127071428Y-50313452D02*
X127119047Y-50122976D01*
X127119047Y-50122976D02*
X127214285Y-50027738D01*
X127214285Y-50027738D02*
X127309523Y-49980119D01*
X127309523Y-49980119D02*
X127499999Y-49980119D01*
X127499999Y-49980119D02*
X127595237Y-50027738D01*
X127595237Y-50027738D02*
X127690475Y-50122976D01*
X127690475Y-50122976D02*
X127738094Y-50313452D01*
X127738094Y-50313452D02*
X127738094Y-50646785D01*
X127738094Y-50646785D02*
X127690475Y-50837261D01*
X127690475Y-50837261D02*
X127595237Y-50932500D01*
X127595237Y-50932500D02*
X127499999Y-50980119D01*
X126642856Y-49980119D02*
X126642856Y-50980119D01*
X126642856Y-50980119D02*
X126404761Y-50980119D01*
X126404761Y-50980119D02*
X126261904Y-50932500D01*
X126261904Y-50932500D02*
X126166666Y-50837261D01*
X126166666Y-50837261D02*
X126119047Y-50742023D01*
X126119047Y-50742023D02*
X126071428Y-50551547D01*
X126071428Y-50551547D02*
X126071428Y-50408690D01*
X126071428Y-50408690D02*
X126119047Y-50218214D01*
X126119047Y-50218214D02*
X126166666Y-50122976D01*
X126166666Y-50122976D02*
X126261904Y-50027738D01*
X126261904Y-50027738D02*
X126404761Y-49980119D01*
X126404761Y-49980119D02*
X126642856Y-49980119D01*
X125690475Y-50884880D02*
X125642856Y-50932500D01*
X125642856Y-50932500D02*
X125547618Y-50980119D01*
X125547618Y-50980119D02*
X125309523Y-50980119D01*
X125309523Y-50980119D02*
X125214285Y-50932500D01*
X125214285Y-50932500D02*
X125166666Y-50884880D01*
X125166666Y-50884880D02*
X125119047Y-50789642D01*
X125119047Y-50789642D02*
X125119047Y-50694404D01*
X125119047Y-50694404D02*
X125166666Y-50551547D01*
X125166666Y-50551547D02*
X125738094Y-49980119D01*
X125738094Y-49980119D02*
X125119047Y-49980119D01*
X106584761Y-63765119D02*
X106251428Y-62765119D01*
X106251428Y-62765119D02*
X105918095Y-63765119D01*
X105394285Y-63765119D02*
X105203809Y-63765119D01*
X105203809Y-63765119D02*
X105108571Y-63717500D01*
X105108571Y-63717500D02*
X105013333Y-63622261D01*
X105013333Y-63622261D02*
X104965714Y-63431785D01*
X104965714Y-63431785D02*
X104965714Y-63098452D01*
X104965714Y-63098452D02*
X105013333Y-62907976D01*
X105013333Y-62907976D02*
X105108571Y-62812738D01*
X105108571Y-62812738D02*
X105203809Y-62765119D01*
X105203809Y-62765119D02*
X105394285Y-62765119D01*
X105394285Y-62765119D02*
X105489523Y-62812738D01*
X105489523Y-62812738D02*
X105584761Y-62907976D01*
X105584761Y-62907976D02*
X105632380Y-63098452D01*
X105632380Y-63098452D02*
X105632380Y-63431785D01*
X105632380Y-63431785D02*
X105584761Y-63622261D01*
X105584761Y-63622261D02*
X105489523Y-63717500D01*
X105489523Y-63717500D02*
X105394285Y-63765119D01*
X104108571Y-63431785D02*
X104108571Y-62765119D01*
X104537142Y-63431785D02*
X104537142Y-62907976D01*
X104537142Y-62907976D02*
X104489523Y-62812738D01*
X104489523Y-62812738D02*
X104394285Y-62765119D01*
X104394285Y-62765119D02*
X104251428Y-62765119D01*
X104251428Y-62765119D02*
X104156190Y-62812738D01*
X104156190Y-62812738D02*
X104108571Y-62860357D01*
X103775237Y-63431785D02*
X103394285Y-63431785D01*
X103632380Y-63765119D02*
X103632380Y-62907976D01*
X103632380Y-62907976D02*
X103584761Y-62812738D01*
X103584761Y-62812738D02*
X103489523Y-62765119D01*
X103489523Y-62765119D02*
X103394285Y-62765119D01*
X102460951Y-63146071D02*
X101699047Y-63146071D01*
X102079999Y-62765119D02*
X102079999Y-63527023D01*
X107219761Y-36460119D02*
X106886428Y-35460119D01*
X106886428Y-35460119D02*
X106553095Y-36460119D01*
X106029285Y-36460119D02*
X105838809Y-36460119D01*
X105838809Y-36460119D02*
X105743571Y-36412500D01*
X105743571Y-36412500D02*
X105648333Y-36317261D01*
X105648333Y-36317261D02*
X105600714Y-36126785D01*
X105600714Y-36126785D02*
X105600714Y-35793452D01*
X105600714Y-35793452D02*
X105648333Y-35602976D01*
X105648333Y-35602976D02*
X105743571Y-35507738D01*
X105743571Y-35507738D02*
X105838809Y-35460119D01*
X105838809Y-35460119D02*
X106029285Y-35460119D01*
X106029285Y-35460119D02*
X106124523Y-35507738D01*
X106124523Y-35507738D02*
X106219761Y-35602976D01*
X106219761Y-35602976D02*
X106267380Y-35793452D01*
X106267380Y-35793452D02*
X106267380Y-36126785D01*
X106267380Y-36126785D02*
X106219761Y-36317261D01*
X106219761Y-36317261D02*
X106124523Y-36412500D01*
X106124523Y-36412500D02*
X106029285Y-36460119D01*
X104743571Y-36126785D02*
X104743571Y-35460119D01*
X105172142Y-36126785D02*
X105172142Y-35602976D01*
X105172142Y-35602976D02*
X105124523Y-35507738D01*
X105124523Y-35507738D02*
X105029285Y-35460119D01*
X105029285Y-35460119D02*
X104886428Y-35460119D01*
X104886428Y-35460119D02*
X104791190Y-35507738D01*
X104791190Y-35507738D02*
X104743571Y-35555357D01*
X104410237Y-36126785D02*
X104029285Y-36126785D01*
X104267380Y-36460119D02*
X104267380Y-35602976D01*
X104267380Y-35602976D02*
X104219761Y-35507738D01*
X104219761Y-35507738D02*
X104124523Y-35460119D01*
X104124523Y-35460119D02*
X104029285Y-35460119D01*
X103095951Y-35841071D02*
X102334047Y-35841071D01*
X155479761Y-63765119D02*
X155146428Y-62765119D01*
X155146428Y-62765119D02*
X154813095Y-63765119D01*
X154479761Y-62765119D02*
X154479761Y-63765119D01*
X154003571Y-63431785D02*
X154003571Y-62765119D01*
X154003571Y-63336547D02*
X153955952Y-63384166D01*
X153955952Y-63384166D02*
X153860714Y-63431785D01*
X153860714Y-63431785D02*
X153717857Y-63431785D01*
X153717857Y-63431785D02*
X153622619Y-63384166D01*
X153622619Y-63384166D02*
X153575000Y-63288928D01*
X153575000Y-63288928D02*
X153575000Y-62765119D01*
X152498809Y-63146071D02*
X151736905Y-63146071D01*
X152117857Y-62765119D02*
X152117857Y-63527023D01*
X155479761Y-36460119D02*
X155146428Y-35460119D01*
X155146428Y-35460119D02*
X154813095Y-36460119D01*
X154479761Y-35460119D02*
X154479761Y-36460119D01*
X154003571Y-36126785D02*
X154003571Y-35460119D01*
X154003571Y-36031547D02*
X153955952Y-36079166D01*
X153955952Y-36079166D02*
X153860714Y-36126785D01*
X153860714Y-36126785D02*
X153717857Y-36126785D01*
X153717857Y-36126785D02*
X153622619Y-36079166D01*
X153622619Y-36079166D02*
X153575000Y-35983928D01*
X153575000Y-35983928D02*
X153575000Y-35460119D01*
X152498809Y-35841071D02*
X151736905Y-35841071D01*
D11*
%TO.C,J2*%
X62016666Y-73922380D02*
X62016666Y-74636666D01*
X62016666Y-74636666D02*
X61969047Y-74779523D01*
X61969047Y-74779523D02*
X61873809Y-74874761D01*
X61873809Y-74874761D02*
X61730952Y-74922380D01*
X61730952Y-74922380D02*
X61635714Y-74922380D01*
X62445238Y-74017619D02*
X62492857Y-73970000D01*
X62492857Y-73970000D02*
X62588095Y-73922380D01*
X62588095Y-73922380D02*
X62826190Y-73922380D01*
X62826190Y-73922380D02*
X62921428Y-73970000D01*
X62921428Y-73970000D02*
X62969047Y-74017619D01*
X62969047Y-74017619D02*
X63016666Y-74112857D01*
X63016666Y-74112857D02*
X63016666Y-74208095D01*
X63016666Y-74208095D02*
X62969047Y-74350952D01*
X62969047Y-74350952D02*
X62397619Y-74922380D01*
X62397619Y-74922380D02*
X63016666Y-74922380D01*
%TO.C,J1*%
X38956666Y-67687380D02*
X38956666Y-68401666D01*
X38956666Y-68401666D02*
X38909047Y-68544523D01*
X38909047Y-68544523D02*
X38813809Y-68639761D01*
X38813809Y-68639761D02*
X38670952Y-68687380D01*
X38670952Y-68687380D02*
X38575714Y-68687380D01*
X39956666Y-68687380D02*
X39385238Y-68687380D01*
X39670952Y-68687380D02*
X39670952Y-67687380D01*
X39670952Y-67687380D02*
X39575714Y-67830238D01*
X39575714Y-67830238D02*
X39480476Y-67925476D01*
X39480476Y-67925476D02*
X39385238Y-67973095D01*
D10*
%TO.C,MOD6*%
X76271667Y-38872380D02*
X76271667Y-37872380D01*
X76271667Y-37872380D02*
X76605000Y-38586666D01*
X76605000Y-38586666D02*
X76938333Y-37872380D01*
X76938333Y-37872380D02*
X76938333Y-38872380D01*
X77605000Y-37872380D02*
X77795476Y-37872380D01*
X77795476Y-37872380D02*
X77890714Y-37920000D01*
X77890714Y-37920000D02*
X77985952Y-38015238D01*
X77985952Y-38015238D02*
X78033571Y-38205714D01*
X78033571Y-38205714D02*
X78033571Y-38539047D01*
X78033571Y-38539047D02*
X77985952Y-38729523D01*
X77985952Y-38729523D02*
X77890714Y-38824761D01*
X77890714Y-38824761D02*
X77795476Y-38872380D01*
X77795476Y-38872380D02*
X77605000Y-38872380D01*
X77605000Y-38872380D02*
X77509762Y-38824761D01*
X77509762Y-38824761D02*
X77414524Y-38729523D01*
X77414524Y-38729523D02*
X77366905Y-38539047D01*
X77366905Y-38539047D02*
X77366905Y-38205714D01*
X77366905Y-38205714D02*
X77414524Y-38015238D01*
X77414524Y-38015238D02*
X77509762Y-37920000D01*
X77509762Y-37920000D02*
X77605000Y-37872380D01*
X78462143Y-38872380D02*
X78462143Y-37872380D01*
X78462143Y-37872380D02*
X78700238Y-37872380D01*
X78700238Y-37872380D02*
X78843095Y-37920000D01*
X78843095Y-37920000D02*
X78938333Y-38015238D01*
X78938333Y-38015238D02*
X78985952Y-38110476D01*
X78985952Y-38110476D02*
X79033571Y-38300952D01*
X79033571Y-38300952D02*
X79033571Y-38443809D01*
X79033571Y-38443809D02*
X78985952Y-38634285D01*
X78985952Y-38634285D02*
X78938333Y-38729523D01*
X78938333Y-38729523D02*
X78843095Y-38824761D01*
X78843095Y-38824761D02*
X78700238Y-38872380D01*
X78700238Y-38872380D02*
X78462143Y-38872380D01*
X79890714Y-37872380D02*
X79700238Y-37872380D01*
X79700238Y-37872380D02*
X79605000Y-37920000D01*
X79605000Y-37920000D02*
X79557381Y-37967619D01*
X79557381Y-37967619D02*
X79462143Y-38110476D01*
X79462143Y-38110476D02*
X79414524Y-38300952D01*
X79414524Y-38300952D02*
X79414524Y-38681904D01*
X79414524Y-38681904D02*
X79462143Y-38777142D01*
X79462143Y-38777142D02*
X79509762Y-38824761D01*
X79509762Y-38824761D02*
X79605000Y-38872380D01*
X79605000Y-38872380D02*
X79795476Y-38872380D01*
X79795476Y-38872380D02*
X79890714Y-38824761D01*
X79890714Y-38824761D02*
X79938333Y-38777142D01*
X79938333Y-38777142D02*
X79985952Y-38681904D01*
X79985952Y-38681904D02*
X79985952Y-38443809D01*
X79985952Y-38443809D02*
X79938333Y-38348571D01*
X79938333Y-38348571D02*
X79890714Y-38300952D01*
X79890714Y-38300952D02*
X79795476Y-38253333D01*
X79795476Y-38253333D02*
X79605000Y-38253333D01*
X79605000Y-38253333D02*
X79509762Y-38300952D01*
X79509762Y-38300952D02*
X79462143Y-38348571D01*
X79462143Y-38348571D02*
X79414524Y-38443809D01*
X60420238Y-42597380D02*
X60753571Y-43597380D01*
X60753571Y-43597380D02*
X61086904Y-42597380D01*
X61420238Y-43597380D02*
X61420238Y-42597380D01*
X61896428Y-42930714D02*
X61896428Y-43597380D01*
X61896428Y-43025952D02*
X61944047Y-42978333D01*
X61944047Y-42978333D02*
X62039285Y-42930714D01*
X62039285Y-42930714D02*
X62182142Y-42930714D01*
X62182142Y-42930714D02*
X62277380Y-42978333D01*
X62277380Y-42978333D02*
X62324999Y-43073571D01*
X62324999Y-43073571D02*
X62324999Y-43597380D01*
X63401190Y-43216428D02*
X64163095Y-43216428D01*
X63782142Y-43597380D02*
X63782142Y-42835476D01*
X90265238Y-42597380D02*
X90598571Y-43597380D01*
X90598571Y-43597380D02*
X90931904Y-42597380D01*
X91455714Y-42597380D02*
X91646190Y-42597380D01*
X91646190Y-42597380D02*
X91741428Y-42645000D01*
X91741428Y-42645000D02*
X91836666Y-42740238D01*
X91836666Y-42740238D02*
X91884285Y-42930714D01*
X91884285Y-42930714D02*
X91884285Y-43264047D01*
X91884285Y-43264047D02*
X91836666Y-43454523D01*
X91836666Y-43454523D02*
X91741428Y-43549761D01*
X91741428Y-43549761D02*
X91646190Y-43597380D01*
X91646190Y-43597380D02*
X91455714Y-43597380D01*
X91455714Y-43597380D02*
X91360476Y-43549761D01*
X91360476Y-43549761D02*
X91265238Y-43454523D01*
X91265238Y-43454523D02*
X91217619Y-43264047D01*
X91217619Y-43264047D02*
X91217619Y-42930714D01*
X91217619Y-42930714D02*
X91265238Y-42740238D01*
X91265238Y-42740238D02*
X91360476Y-42645000D01*
X91360476Y-42645000D02*
X91455714Y-42597380D01*
X92741428Y-42930714D02*
X92741428Y-43597380D01*
X92312857Y-42930714D02*
X92312857Y-43454523D01*
X92312857Y-43454523D02*
X92360476Y-43549761D01*
X92360476Y-43549761D02*
X92455714Y-43597380D01*
X92455714Y-43597380D02*
X92598571Y-43597380D01*
X92598571Y-43597380D02*
X92693809Y-43549761D01*
X92693809Y-43549761D02*
X92741428Y-43502142D01*
X93074762Y-42930714D02*
X93455714Y-42930714D01*
X93217619Y-42597380D02*
X93217619Y-43454523D01*
X93217619Y-43454523D02*
X93265238Y-43549761D01*
X93265238Y-43549761D02*
X93360476Y-43597380D01*
X93360476Y-43597380D02*
X93455714Y-43597380D01*
X93789048Y-43216428D02*
X94550953Y-43216428D01*
X94170000Y-43597380D02*
X94170000Y-42835476D01*
X89630238Y-36247380D02*
X89963571Y-37247380D01*
X89963571Y-37247380D02*
X90296904Y-36247380D01*
X90820714Y-36247380D02*
X91011190Y-36247380D01*
X91011190Y-36247380D02*
X91106428Y-36295000D01*
X91106428Y-36295000D02*
X91201666Y-36390238D01*
X91201666Y-36390238D02*
X91249285Y-36580714D01*
X91249285Y-36580714D02*
X91249285Y-36914047D01*
X91249285Y-36914047D02*
X91201666Y-37104523D01*
X91201666Y-37104523D02*
X91106428Y-37199761D01*
X91106428Y-37199761D02*
X91011190Y-37247380D01*
X91011190Y-37247380D02*
X90820714Y-37247380D01*
X90820714Y-37247380D02*
X90725476Y-37199761D01*
X90725476Y-37199761D02*
X90630238Y-37104523D01*
X90630238Y-37104523D02*
X90582619Y-36914047D01*
X90582619Y-36914047D02*
X90582619Y-36580714D01*
X90582619Y-36580714D02*
X90630238Y-36390238D01*
X90630238Y-36390238D02*
X90725476Y-36295000D01*
X90725476Y-36295000D02*
X90820714Y-36247380D01*
X92106428Y-36580714D02*
X92106428Y-37247380D01*
X91677857Y-36580714D02*
X91677857Y-37104523D01*
X91677857Y-37104523D02*
X91725476Y-37199761D01*
X91725476Y-37199761D02*
X91820714Y-37247380D01*
X91820714Y-37247380D02*
X91963571Y-37247380D01*
X91963571Y-37247380D02*
X92058809Y-37199761D01*
X92058809Y-37199761D02*
X92106428Y-37152142D01*
X92439762Y-36580714D02*
X92820714Y-36580714D01*
X92582619Y-36247380D02*
X92582619Y-37104523D01*
X92582619Y-37104523D02*
X92630238Y-37199761D01*
X92630238Y-37199761D02*
X92725476Y-37247380D01*
X92725476Y-37247380D02*
X92820714Y-37247380D01*
X93754048Y-36866428D02*
X94515953Y-36866428D01*
X75025238Y-33072380D02*
X75358571Y-34072380D01*
X75358571Y-34072380D02*
X75691904Y-33072380D01*
X76215714Y-33072380D02*
X76406190Y-33072380D01*
X76406190Y-33072380D02*
X76501428Y-33120000D01*
X76501428Y-33120000D02*
X76596666Y-33215238D01*
X76596666Y-33215238D02*
X76644285Y-33405714D01*
X76644285Y-33405714D02*
X76644285Y-33739047D01*
X76644285Y-33739047D02*
X76596666Y-33929523D01*
X76596666Y-33929523D02*
X76501428Y-34024761D01*
X76501428Y-34024761D02*
X76406190Y-34072380D01*
X76406190Y-34072380D02*
X76215714Y-34072380D01*
X76215714Y-34072380D02*
X76120476Y-34024761D01*
X76120476Y-34024761D02*
X76025238Y-33929523D01*
X76025238Y-33929523D02*
X75977619Y-33739047D01*
X75977619Y-33739047D02*
X75977619Y-33405714D01*
X75977619Y-33405714D02*
X76025238Y-33215238D01*
X76025238Y-33215238D02*
X76120476Y-33120000D01*
X76120476Y-33120000D02*
X76215714Y-33072380D01*
X77501428Y-33405714D02*
X77501428Y-34072380D01*
X77072857Y-33405714D02*
X77072857Y-33929523D01*
X77072857Y-33929523D02*
X77120476Y-34024761D01*
X77120476Y-34024761D02*
X77215714Y-34072380D01*
X77215714Y-34072380D02*
X77358571Y-34072380D01*
X77358571Y-34072380D02*
X77453809Y-34024761D01*
X77453809Y-34024761D02*
X77501428Y-33977142D01*
X77834762Y-33405714D02*
X78215714Y-33405714D01*
X77977619Y-33072380D02*
X77977619Y-33929523D01*
X77977619Y-33929523D02*
X78025238Y-34024761D01*
X78025238Y-34024761D02*
X78120476Y-34072380D01*
X78120476Y-34072380D02*
X78215714Y-34072380D01*
X79149048Y-33691428D02*
X79910953Y-33691428D01*
X79530000Y-34072380D02*
X79530000Y-33310476D01*
X60420238Y-36247380D02*
X60753571Y-37247380D01*
X60753571Y-37247380D02*
X61086904Y-36247380D01*
X61420238Y-37247380D02*
X61420238Y-36247380D01*
X61896428Y-36580714D02*
X61896428Y-37247380D01*
X61896428Y-36675952D02*
X61944047Y-36628333D01*
X61944047Y-36628333D02*
X62039285Y-36580714D01*
X62039285Y-36580714D02*
X62182142Y-36580714D01*
X62182142Y-36580714D02*
X62277380Y-36628333D01*
X62277380Y-36628333D02*
X62324999Y-36723571D01*
X62324999Y-36723571D02*
X62324999Y-37247380D01*
X63401190Y-36866428D02*
X64163095Y-36866428D01*
X62325238Y-33072380D02*
X62658571Y-34072380D01*
X62658571Y-34072380D02*
X62991904Y-33072380D01*
X63325238Y-34072380D02*
X63325238Y-33072380D01*
X63801428Y-33405714D02*
X63801428Y-34072380D01*
X63801428Y-33500952D02*
X63849047Y-33453333D01*
X63849047Y-33453333D02*
X63944285Y-33405714D01*
X63944285Y-33405714D02*
X64087142Y-33405714D01*
X64087142Y-33405714D02*
X64182380Y-33453333D01*
X64182380Y-33453333D02*
X64229999Y-33548571D01*
X64229999Y-33548571D02*
X64229999Y-34072380D01*
X64706190Y-33691428D02*
X65468095Y-33691428D01*
X65087142Y-34072380D02*
X65087142Y-33310476D01*
D11*
%TO.C,J6*%
X146331666Y-67052380D02*
X146331666Y-67766666D01*
X146331666Y-67766666D02*
X146284047Y-67909523D01*
X146284047Y-67909523D02*
X146188809Y-68004761D01*
X146188809Y-68004761D02*
X146045952Y-68052380D01*
X146045952Y-68052380D02*
X145950714Y-68052380D01*
X147236428Y-67052380D02*
X147045952Y-67052380D01*
X147045952Y-67052380D02*
X146950714Y-67100000D01*
X146950714Y-67100000D02*
X146903095Y-67147619D01*
X146903095Y-67147619D02*
X146807857Y-67290476D01*
X146807857Y-67290476D02*
X146760238Y-67480952D01*
X146760238Y-67480952D02*
X146760238Y-67861904D01*
X146760238Y-67861904D02*
X146807857Y-67957142D01*
X146807857Y-67957142D02*
X146855476Y-68004761D01*
X146855476Y-68004761D02*
X146950714Y-68052380D01*
X146950714Y-68052380D02*
X147141190Y-68052380D01*
X147141190Y-68052380D02*
X147236428Y-68004761D01*
X147236428Y-68004761D02*
X147284047Y-67957142D01*
X147284047Y-67957142D02*
X147331666Y-67861904D01*
X147331666Y-67861904D02*
X147331666Y-67623809D01*
X147331666Y-67623809D02*
X147284047Y-67528571D01*
X147284047Y-67528571D02*
X147236428Y-67480952D01*
X147236428Y-67480952D02*
X147141190Y-67433333D01*
X147141190Y-67433333D02*
X146950714Y-67433333D01*
X146950714Y-67433333D02*
X146855476Y-67480952D01*
X146855476Y-67480952D02*
X146807857Y-67528571D01*
X146807857Y-67528571D02*
X146760238Y-67623809D01*
D10*
%TO.C,MOD4*%
X69286667Y-57017380D02*
X69286667Y-56017380D01*
X69286667Y-56017380D02*
X69620000Y-56731666D01*
X69620000Y-56731666D02*
X69953333Y-56017380D01*
X69953333Y-56017380D02*
X69953333Y-57017380D01*
X70620000Y-56017380D02*
X70810476Y-56017380D01*
X70810476Y-56017380D02*
X70905714Y-56065000D01*
X70905714Y-56065000D02*
X71000952Y-56160238D01*
X71000952Y-56160238D02*
X71048571Y-56350714D01*
X71048571Y-56350714D02*
X71048571Y-56684047D01*
X71048571Y-56684047D02*
X71000952Y-56874523D01*
X71000952Y-56874523D02*
X70905714Y-56969761D01*
X70905714Y-56969761D02*
X70810476Y-57017380D01*
X70810476Y-57017380D02*
X70620000Y-57017380D01*
X70620000Y-57017380D02*
X70524762Y-56969761D01*
X70524762Y-56969761D02*
X70429524Y-56874523D01*
X70429524Y-56874523D02*
X70381905Y-56684047D01*
X70381905Y-56684047D02*
X70381905Y-56350714D01*
X70381905Y-56350714D02*
X70429524Y-56160238D01*
X70429524Y-56160238D02*
X70524762Y-56065000D01*
X70524762Y-56065000D02*
X70620000Y-56017380D01*
X71477143Y-57017380D02*
X71477143Y-56017380D01*
X71477143Y-56017380D02*
X71715238Y-56017380D01*
X71715238Y-56017380D02*
X71858095Y-56065000D01*
X71858095Y-56065000D02*
X71953333Y-56160238D01*
X71953333Y-56160238D02*
X72000952Y-56255476D01*
X72000952Y-56255476D02*
X72048571Y-56445952D01*
X72048571Y-56445952D02*
X72048571Y-56588809D01*
X72048571Y-56588809D02*
X72000952Y-56779285D01*
X72000952Y-56779285D02*
X71953333Y-56874523D01*
X71953333Y-56874523D02*
X71858095Y-56969761D01*
X71858095Y-56969761D02*
X71715238Y-57017380D01*
X71715238Y-57017380D02*
X71477143Y-57017380D01*
X72905714Y-56350714D02*
X72905714Y-57017380D01*
X72667619Y-55969761D02*
X72429524Y-56684047D01*
X72429524Y-56684047D02*
X73048571Y-56684047D01*
X75025238Y-50852380D02*
X75358571Y-51852380D01*
X75358571Y-51852380D02*
X75691904Y-50852380D01*
X76215714Y-50852380D02*
X76406190Y-50852380D01*
X76406190Y-50852380D02*
X76501428Y-50900000D01*
X76501428Y-50900000D02*
X76596666Y-50995238D01*
X76596666Y-50995238D02*
X76644285Y-51185714D01*
X76644285Y-51185714D02*
X76644285Y-51519047D01*
X76644285Y-51519047D02*
X76596666Y-51709523D01*
X76596666Y-51709523D02*
X76501428Y-51804761D01*
X76501428Y-51804761D02*
X76406190Y-51852380D01*
X76406190Y-51852380D02*
X76215714Y-51852380D01*
X76215714Y-51852380D02*
X76120476Y-51804761D01*
X76120476Y-51804761D02*
X76025238Y-51709523D01*
X76025238Y-51709523D02*
X75977619Y-51519047D01*
X75977619Y-51519047D02*
X75977619Y-51185714D01*
X75977619Y-51185714D02*
X76025238Y-50995238D01*
X76025238Y-50995238D02*
X76120476Y-50900000D01*
X76120476Y-50900000D02*
X76215714Y-50852380D01*
X77501428Y-51185714D02*
X77501428Y-51852380D01*
X77072857Y-51185714D02*
X77072857Y-51709523D01*
X77072857Y-51709523D02*
X77120476Y-51804761D01*
X77120476Y-51804761D02*
X77215714Y-51852380D01*
X77215714Y-51852380D02*
X77358571Y-51852380D01*
X77358571Y-51852380D02*
X77453809Y-51804761D01*
X77453809Y-51804761D02*
X77501428Y-51757142D01*
X77834762Y-51185714D02*
X78215714Y-51185714D01*
X77977619Y-50852380D02*
X77977619Y-51709523D01*
X77977619Y-51709523D02*
X78025238Y-51804761D01*
X78025238Y-51804761D02*
X78120476Y-51852380D01*
X78120476Y-51852380D02*
X78215714Y-51852380D01*
X79149048Y-51471428D02*
X79910953Y-51471428D01*
X79530000Y-51852380D02*
X79530000Y-51090476D01*
X75025238Y-64187380D02*
X75358571Y-65187380D01*
X75358571Y-65187380D02*
X75691904Y-64187380D01*
X76215714Y-64187380D02*
X76406190Y-64187380D01*
X76406190Y-64187380D02*
X76501428Y-64235000D01*
X76501428Y-64235000D02*
X76596666Y-64330238D01*
X76596666Y-64330238D02*
X76644285Y-64520714D01*
X76644285Y-64520714D02*
X76644285Y-64854047D01*
X76644285Y-64854047D02*
X76596666Y-65044523D01*
X76596666Y-65044523D02*
X76501428Y-65139761D01*
X76501428Y-65139761D02*
X76406190Y-65187380D01*
X76406190Y-65187380D02*
X76215714Y-65187380D01*
X76215714Y-65187380D02*
X76120476Y-65139761D01*
X76120476Y-65139761D02*
X76025238Y-65044523D01*
X76025238Y-65044523D02*
X75977619Y-64854047D01*
X75977619Y-64854047D02*
X75977619Y-64520714D01*
X75977619Y-64520714D02*
X76025238Y-64330238D01*
X76025238Y-64330238D02*
X76120476Y-64235000D01*
X76120476Y-64235000D02*
X76215714Y-64187380D01*
X77501428Y-64520714D02*
X77501428Y-65187380D01*
X77072857Y-64520714D02*
X77072857Y-65044523D01*
X77072857Y-65044523D02*
X77120476Y-65139761D01*
X77120476Y-65139761D02*
X77215714Y-65187380D01*
X77215714Y-65187380D02*
X77358571Y-65187380D01*
X77358571Y-65187380D02*
X77453809Y-65139761D01*
X77453809Y-65139761D02*
X77501428Y-65092142D01*
X77834762Y-64520714D02*
X78215714Y-64520714D01*
X77977619Y-64187380D02*
X77977619Y-65044523D01*
X77977619Y-65044523D02*
X78025238Y-65139761D01*
X78025238Y-65139761D02*
X78120476Y-65187380D01*
X78120476Y-65187380D02*
X78215714Y-65187380D01*
X79149048Y-64806428D02*
X79910953Y-64806428D01*
X62325238Y-50852380D02*
X62658571Y-51852380D01*
X62658571Y-51852380D02*
X62991904Y-50852380D01*
X63325238Y-51852380D02*
X63325238Y-50852380D01*
X63801428Y-51185714D02*
X63801428Y-51852380D01*
X63801428Y-51280952D02*
X63849047Y-51233333D01*
X63849047Y-51233333D02*
X63944285Y-51185714D01*
X63944285Y-51185714D02*
X64087142Y-51185714D01*
X64087142Y-51185714D02*
X64182380Y-51233333D01*
X64182380Y-51233333D02*
X64229999Y-51328571D01*
X64229999Y-51328571D02*
X64229999Y-51852380D01*
X64706190Y-51471428D02*
X65468095Y-51471428D01*
X65087142Y-51852380D02*
X65087142Y-51090476D01*
X62325238Y-64187380D02*
X62658571Y-65187380D01*
X62658571Y-65187380D02*
X62991904Y-64187380D01*
X63325238Y-65187380D02*
X63325238Y-64187380D01*
X63801428Y-64520714D02*
X63801428Y-65187380D01*
X63801428Y-64615952D02*
X63849047Y-64568333D01*
X63849047Y-64568333D02*
X63944285Y-64520714D01*
X63944285Y-64520714D02*
X64087142Y-64520714D01*
X64087142Y-64520714D02*
X64182380Y-64568333D01*
X64182380Y-64568333D02*
X64229999Y-64663571D01*
X64229999Y-64663571D02*
X64229999Y-65187380D01*
X65306190Y-64806428D02*
X66068095Y-64806428D01*
D11*
%TO.C,R3*%
X91588333Y-52422380D02*
X91255000Y-51946190D01*
X91016905Y-52422380D02*
X91016905Y-51422380D01*
X91016905Y-51422380D02*
X91397857Y-51422380D01*
X91397857Y-51422380D02*
X91493095Y-51470000D01*
X91493095Y-51470000D02*
X91540714Y-51517619D01*
X91540714Y-51517619D02*
X91588333Y-51612857D01*
X91588333Y-51612857D02*
X91588333Y-51755714D01*
X91588333Y-51755714D02*
X91540714Y-51850952D01*
X91540714Y-51850952D02*
X91493095Y-51898571D01*
X91493095Y-51898571D02*
X91397857Y-51946190D01*
X91397857Y-51946190D02*
X91016905Y-51946190D01*
X91921667Y-51422380D02*
X92540714Y-51422380D01*
X92540714Y-51422380D02*
X92207381Y-51803333D01*
X92207381Y-51803333D02*
X92350238Y-51803333D01*
X92350238Y-51803333D02*
X92445476Y-51850952D01*
X92445476Y-51850952D02*
X92493095Y-51898571D01*
X92493095Y-51898571D02*
X92540714Y-51993809D01*
X92540714Y-51993809D02*
X92540714Y-52231904D01*
X92540714Y-52231904D02*
X92493095Y-52327142D01*
X92493095Y-52327142D02*
X92445476Y-52374761D01*
X92445476Y-52374761D02*
X92350238Y-52422380D01*
X92350238Y-52422380D02*
X92064524Y-52422380D01*
X92064524Y-52422380D02*
X91969286Y-52374761D01*
X91969286Y-52374761D02*
X91921667Y-52327142D01*
%TO.C,U1*%
X27178095Y-38737380D02*
X27178095Y-39546904D01*
X27178095Y-39546904D02*
X27225714Y-39642142D01*
X27225714Y-39642142D02*
X27273333Y-39689761D01*
X27273333Y-39689761D02*
X27368571Y-39737380D01*
X27368571Y-39737380D02*
X27559047Y-39737380D01*
X27559047Y-39737380D02*
X27654285Y-39689761D01*
X27654285Y-39689761D02*
X27701904Y-39642142D01*
X27701904Y-39642142D02*
X27749523Y-39546904D01*
X27749523Y-39546904D02*
X27749523Y-38737380D01*
X28749523Y-39737380D02*
X28178095Y-39737380D01*
X28463809Y-39737380D02*
X28463809Y-38737380D01*
X28463809Y-38737380D02*
X28368571Y-38880238D01*
X28368571Y-38880238D02*
X28273333Y-38975476D01*
X28273333Y-38975476D02*
X28178095Y-39023095D01*
X39978076Y-20420072D02*
X39897263Y-20447009D01*
X39897263Y-20447009D02*
X39816451Y-20527821D01*
X39816451Y-20527821D02*
X39762576Y-20635571D01*
X39762576Y-20635571D02*
X39762576Y-20743320D01*
X39762576Y-20743320D02*
X39789514Y-20824133D01*
X39789514Y-20824133D02*
X39870326Y-20958820D01*
X39870326Y-20958820D02*
X39951138Y-21039632D01*
X39951138Y-21039632D02*
X40085825Y-21120444D01*
X40085825Y-21120444D02*
X40166637Y-21147381D01*
X40166637Y-21147381D02*
X40274387Y-21147381D01*
X40274387Y-21147381D02*
X40382137Y-21093507D01*
X40382137Y-21093507D02*
X40436011Y-21039632D01*
X40436011Y-21039632D02*
X40489886Y-20931882D01*
X40489886Y-20931882D02*
X40489886Y-20878007D01*
X40489886Y-20878007D02*
X40301324Y-20689446D01*
X40301324Y-20689446D02*
X40193575Y-20797195D01*
X40786198Y-20689446D02*
X40220512Y-20123760D01*
X40220512Y-20123760D02*
X41109446Y-20366197D01*
X41109446Y-20366197D02*
X40543761Y-19800511D01*
X41378820Y-20096823D02*
X40813135Y-19531137D01*
X40813135Y-19531137D02*
X40947822Y-19396450D01*
X40947822Y-19396450D02*
X41055571Y-19342576D01*
X41055571Y-19342576D02*
X41163321Y-19342576D01*
X41163321Y-19342576D02*
X41244133Y-19369513D01*
X41244133Y-19369513D02*
X41378820Y-19450325D01*
X41378820Y-19450325D02*
X41459632Y-19531137D01*
X41459632Y-19531137D02*
X41540445Y-19665824D01*
X41540445Y-19665824D02*
X41567382Y-19746637D01*
X41567382Y-19746637D02*
X41567382Y-19854386D01*
X41567382Y-19854386D02*
X41513507Y-19962136D01*
X41513507Y-19962136D02*
X41378820Y-20096823D01*
X39814048Y-23280224D02*
X40164234Y-22930038D01*
X40164234Y-22930038D02*
X40191172Y-23334099D01*
X40191172Y-23334099D02*
X40271984Y-23253287D01*
X40271984Y-23253287D02*
X40352796Y-23226350D01*
X40352796Y-23226350D02*
X40406671Y-23226350D01*
X40406671Y-23226350D02*
X40487483Y-23253287D01*
X40487483Y-23253287D02*
X40622170Y-23387974D01*
X40622170Y-23387974D02*
X40649107Y-23468786D01*
X40649107Y-23468786D02*
X40649107Y-23522661D01*
X40649107Y-23522661D02*
X40622170Y-23603473D01*
X40622170Y-23603473D02*
X40460546Y-23765098D01*
X40460546Y-23765098D02*
X40379733Y-23792035D01*
X40379733Y-23792035D02*
X40325859Y-23792035D01*
X40325859Y-22768414D02*
X41080106Y-23145537D01*
X41080106Y-23145537D02*
X40702982Y-22391290D01*
X40837669Y-22256603D02*
X41187855Y-21906417D01*
X41187855Y-21906417D02*
X41214793Y-22310478D01*
X41214793Y-22310478D02*
X41295605Y-22229666D01*
X41295605Y-22229666D02*
X41376417Y-22202728D01*
X41376417Y-22202728D02*
X41430292Y-22202728D01*
X41430292Y-22202728D02*
X41511104Y-22229666D01*
X41511104Y-22229666D02*
X41645791Y-22364353D01*
X41645791Y-22364353D02*
X41672729Y-22445165D01*
X41672729Y-22445165D02*
X41672729Y-22499040D01*
X41672729Y-22499040D02*
X41645791Y-22579852D01*
X41645791Y-22579852D02*
X41484167Y-22741476D01*
X41484167Y-22741476D02*
X41403355Y-22768414D01*
X41403355Y-22768414D02*
X41349480Y-22768414D01*
X41915165Y-22418227D02*
X42346164Y-21987229D01*
X42130665Y-21502356D02*
X42319226Y-21313794D01*
X42696350Y-21529293D02*
X42426976Y-21798667D01*
X42426976Y-21798667D02*
X41861291Y-21232982D01*
X41861291Y-21232982D02*
X42130665Y-20963608D01*
X42938787Y-21286856D02*
X42373102Y-20721171D01*
X42373102Y-20721171D02*
X43262036Y-20963607D01*
X43262036Y-20963607D02*
X42696350Y-20397922D01*
X40730292Y-41265351D02*
X40272356Y-41184539D01*
X40407043Y-41588600D02*
X39841358Y-41022914D01*
X39841358Y-41022914D02*
X40056857Y-40807415D01*
X40056857Y-40807415D02*
X40137669Y-40780478D01*
X40137669Y-40780478D02*
X40191544Y-40780478D01*
X40191544Y-40780478D02*
X40272356Y-40807415D01*
X40272356Y-40807415D02*
X40353168Y-40888227D01*
X40353168Y-40888227D02*
X40380106Y-40969040D01*
X40380106Y-40969040D02*
X40380106Y-41022914D01*
X40380106Y-41022914D02*
X40353168Y-41103727D01*
X40353168Y-41103727D02*
X40137669Y-41319226D01*
X40407043Y-40457229D02*
X40864979Y-40915165D01*
X40864979Y-40915165D02*
X40945791Y-40942102D01*
X40945791Y-40942102D02*
X40999666Y-40942102D01*
X40999666Y-40942102D02*
X41080478Y-40915165D01*
X41080478Y-40915165D02*
X41188228Y-40807415D01*
X41188228Y-40807415D02*
X41215165Y-40726603D01*
X41215165Y-40726603D02*
X41215165Y-40672728D01*
X41215165Y-40672728D02*
X41188228Y-40591916D01*
X41188228Y-40591916D02*
X40730292Y-40133980D01*
X41565351Y-40430292D02*
X40999666Y-39864606D01*
X40999666Y-39864606D02*
X41888600Y-40107043D01*
X41888600Y-40107043D02*
X41322915Y-39541358D01*
X14305013Y-22933134D02*
X14224201Y-22960072D01*
X14224201Y-22960072D02*
X14143388Y-23040884D01*
X14143388Y-23040884D02*
X14089514Y-23148633D01*
X14089514Y-23148633D02*
X14089514Y-23256383D01*
X14089514Y-23256383D02*
X14116451Y-23337195D01*
X14116451Y-23337195D02*
X14197263Y-23471882D01*
X14197263Y-23471882D02*
X14278075Y-23552695D01*
X14278075Y-23552695D02*
X14412762Y-23633507D01*
X14412762Y-23633507D02*
X14493575Y-23660444D01*
X14493575Y-23660444D02*
X14601324Y-23660444D01*
X14601324Y-23660444D02*
X14709074Y-23606569D01*
X14709074Y-23606569D02*
X14762949Y-23552695D01*
X14762949Y-23552695D02*
X14816823Y-23444945D01*
X14816823Y-23444945D02*
X14816823Y-23391070D01*
X14816823Y-23391070D02*
X14628262Y-23202508D01*
X14628262Y-23202508D02*
X14520512Y-23310258D01*
X15113135Y-23202508D02*
X14547449Y-22636823D01*
X14547449Y-22636823D02*
X14762949Y-22421324D01*
X14762949Y-22421324D02*
X14843761Y-22394386D01*
X14843761Y-22394386D02*
X14897636Y-22394386D01*
X14897636Y-22394386D02*
X14978448Y-22421324D01*
X14978448Y-22421324D02*
X15059260Y-22502136D01*
X15059260Y-22502136D02*
X15086197Y-22582948D01*
X15086197Y-22582948D02*
X15086197Y-22636823D01*
X15086197Y-22636823D02*
X15059260Y-22717635D01*
X15059260Y-22717635D02*
X14843761Y-22933134D01*
X15140072Y-22151950D02*
X15140072Y-22098075D01*
X15140072Y-22098075D02*
X15167010Y-22017263D01*
X15167010Y-22017263D02*
X15301697Y-21882576D01*
X15301697Y-21882576D02*
X15382509Y-21855638D01*
X15382509Y-21855638D02*
X15436384Y-21855638D01*
X15436384Y-21855638D02*
X15517196Y-21882576D01*
X15517196Y-21882576D02*
X15571071Y-21936450D01*
X15571071Y-21936450D02*
X15624945Y-22044200D01*
X15624945Y-22044200D02*
X15624945Y-22690698D01*
X15624945Y-22690698D02*
X15975132Y-22340511D01*
X14405013Y-43253134D02*
X14324201Y-43280072D01*
X14324201Y-43280072D02*
X14243388Y-43360884D01*
X14243388Y-43360884D02*
X14189514Y-43468633D01*
X14189514Y-43468633D02*
X14189514Y-43576383D01*
X14189514Y-43576383D02*
X14216451Y-43657195D01*
X14216451Y-43657195D02*
X14297263Y-43791882D01*
X14297263Y-43791882D02*
X14378075Y-43872695D01*
X14378075Y-43872695D02*
X14512762Y-43953507D01*
X14512762Y-43953507D02*
X14593575Y-43980444D01*
X14593575Y-43980444D02*
X14701324Y-43980444D01*
X14701324Y-43980444D02*
X14809074Y-43926569D01*
X14809074Y-43926569D02*
X14862949Y-43872695D01*
X14862949Y-43872695D02*
X14916823Y-43764945D01*
X14916823Y-43764945D02*
X14916823Y-43711070D01*
X14916823Y-43711070D02*
X14728262Y-43522508D01*
X14728262Y-43522508D02*
X14620512Y-43630258D01*
X15213135Y-43522508D02*
X14647449Y-42956823D01*
X14647449Y-42956823D02*
X14862949Y-42741324D01*
X14862949Y-42741324D02*
X14943761Y-42714386D01*
X14943761Y-42714386D02*
X14997636Y-42714386D01*
X14997636Y-42714386D02*
X15078448Y-42741324D01*
X15078448Y-42741324D02*
X15159260Y-42822136D01*
X15159260Y-42822136D02*
X15186197Y-42902948D01*
X15186197Y-42902948D02*
X15186197Y-42956823D01*
X15186197Y-42956823D02*
X15159260Y-43037635D01*
X15159260Y-43037635D02*
X14943761Y-43253134D01*
X15805758Y-42929885D02*
X15913507Y-42822136D01*
X15913507Y-42822136D02*
X15940445Y-42741324D01*
X15940445Y-42741324D02*
X15940445Y-42687449D01*
X15940445Y-42687449D02*
X15913507Y-42552762D01*
X15913507Y-42552762D02*
X15832695Y-42418075D01*
X15832695Y-42418075D02*
X15617196Y-42202576D01*
X15617196Y-42202576D02*
X15536384Y-42175638D01*
X15536384Y-42175638D02*
X15482509Y-42175638D01*
X15482509Y-42175638D02*
X15401697Y-42202576D01*
X15401697Y-42202576D02*
X15293947Y-42310325D01*
X15293947Y-42310325D02*
X15267010Y-42391137D01*
X15267010Y-42391137D02*
X15267010Y-42445012D01*
X15267010Y-42445012D02*
X15293947Y-42525824D01*
X15293947Y-42525824D02*
X15428634Y-42660511D01*
X15428634Y-42660511D02*
X15509446Y-42687449D01*
X15509446Y-42687449D02*
X15563321Y-42687449D01*
X15563321Y-42687449D02*
X15644133Y-42660511D01*
X15644133Y-42660511D02*
X15751883Y-42552762D01*
X15751883Y-42552762D02*
X15778820Y-42471950D01*
X15778820Y-42471950D02*
X15778820Y-42418075D01*
X15778820Y-42418075D02*
X15751883Y-42337263D01*
X20430475Y-65825809D02*
X20544761Y-65863904D01*
X20544761Y-65863904D02*
X20735237Y-65863904D01*
X20735237Y-65863904D02*
X20811428Y-65825809D01*
X20811428Y-65825809D02*
X20849523Y-65787714D01*
X20849523Y-65787714D02*
X20887618Y-65711523D01*
X20887618Y-65711523D02*
X20887618Y-65635333D01*
X20887618Y-65635333D02*
X20849523Y-65559142D01*
X20849523Y-65559142D02*
X20811428Y-65521047D01*
X20811428Y-65521047D02*
X20735237Y-65482952D01*
X20735237Y-65482952D02*
X20582856Y-65444857D01*
X20582856Y-65444857D02*
X20506666Y-65406761D01*
X20506666Y-65406761D02*
X20468571Y-65368666D01*
X20468571Y-65368666D02*
X20430475Y-65292476D01*
X20430475Y-65292476D02*
X20430475Y-65216285D01*
X20430475Y-65216285D02*
X20468571Y-65140095D01*
X20468571Y-65140095D02*
X20506666Y-65102000D01*
X20506666Y-65102000D02*
X20582856Y-65063904D01*
X20582856Y-65063904D02*
X20773333Y-65063904D01*
X20773333Y-65063904D02*
X20887618Y-65102000D01*
X21154285Y-65063904D02*
X21344761Y-65863904D01*
X21344761Y-65863904D02*
X21497142Y-65292476D01*
X21497142Y-65292476D02*
X21649523Y-65863904D01*
X21649523Y-65863904D02*
X21840000Y-65063904D01*
X22601905Y-65787714D02*
X22563809Y-65825809D01*
X22563809Y-65825809D02*
X22449524Y-65863904D01*
X22449524Y-65863904D02*
X22373333Y-65863904D01*
X22373333Y-65863904D02*
X22259047Y-65825809D01*
X22259047Y-65825809D02*
X22182857Y-65749619D01*
X22182857Y-65749619D02*
X22144762Y-65673428D01*
X22144762Y-65673428D02*
X22106666Y-65521047D01*
X22106666Y-65521047D02*
X22106666Y-65406761D01*
X22106666Y-65406761D02*
X22144762Y-65254380D01*
X22144762Y-65254380D02*
X22182857Y-65178190D01*
X22182857Y-65178190D02*
X22259047Y-65102000D01*
X22259047Y-65102000D02*
X22373333Y-65063904D01*
X22373333Y-65063904D02*
X22449524Y-65063904D01*
X22449524Y-65063904D02*
X22563809Y-65102000D01*
X22563809Y-65102000D02*
X22601905Y-65140095D01*
X23325714Y-65863904D02*
X22944762Y-65863904D01*
X22944762Y-65863904D02*
X22944762Y-65063904D01*
X23592381Y-65863904D02*
X23592381Y-65063904D01*
X24049524Y-65863904D02*
X23706666Y-65406761D01*
X24049524Y-65063904D02*
X23592381Y-65521047D01*
X39989638Y-53682509D02*
X39908826Y-53709446D01*
X39908826Y-53709446D02*
X39828014Y-53790258D01*
X39828014Y-53790258D02*
X39774139Y-53898008D01*
X39774139Y-53898008D02*
X39774139Y-54005758D01*
X39774139Y-54005758D02*
X39801077Y-54086570D01*
X39801077Y-54086570D02*
X39881889Y-54221257D01*
X39881889Y-54221257D02*
X39962701Y-54302069D01*
X39962701Y-54302069D02*
X40097388Y-54382881D01*
X40097388Y-54382881D02*
X40178200Y-54409819D01*
X40178200Y-54409819D02*
X40285950Y-54409819D01*
X40285950Y-54409819D02*
X40393699Y-54355944D01*
X40393699Y-54355944D02*
X40447574Y-54302069D01*
X40447574Y-54302069D02*
X40501449Y-54194319D01*
X40501449Y-54194319D02*
X40501449Y-54140445D01*
X40501449Y-54140445D02*
X40312887Y-53951883D01*
X40312887Y-53951883D02*
X40205138Y-54059632D01*
X40797760Y-53951883D02*
X40232075Y-53386197D01*
X40232075Y-53386197D02*
X40447574Y-53170698D01*
X40447574Y-53170698D02*
X40528386Y-53143761D01*
X40528386Y-53143761D02*
X40582261Y-53143761D01*
X40582261Y-53143761D02*
X40663073Y-53170698D01*
X40663073Y-53170698D02*
X40743886Y-53251510D01*
X40743886Y-53251510D02*
X40770823Y-53332323D01*
X40770823Y-53332323D02*
X40770823Y-53386197D01*
X40770823Y-53386197D02*
X40743886Y-53467010D01*
X40743886Y-53467010D02*
X40528386Y-53682509D01*
X41659757Y-53089886D02*
X41336508Y-53413135D01*
X41498133Y-53251510D02*
X40932447Y-52685825D01*
X40932447Y-52685825D02*
X40959385Y-52820512D01*
X40959385Y-52820512D02*
X40959385Y-52928261D01*
X40959385Y-52928261D02*
X40932447Y-53009074D01*
X41929131Y-52820512D02*
X42036881Y-52712762D01*
X42036881Y-52712762D02*
X42063818Y-52631950D01*
X42063818Y-52631950D02*
X42063818Y-52578075D01*
X42063818Y-52578075D02*
X42036881Y-52443388D01*
X42036881Y-52443388D02*
X41956069Y-52308701D01*
X41956069Y-52308701D02*
X41740570Y-52093202D01*
X41740570Y-52093202D02*
X41659757Y-52066264D01*
X41659757Y-52066264D02*
X41605883Y-52066264D01*
X41605883Y-52066264D02*
X41525070Y-52093202D01*
X41525070Y-52093202D02*
X41417321Y-52200951D01*
X41417321Y-52200951D02*
X41390383Y-52281764D01*
X41390383Y-52281764D02*
X41390383Y-52335638D01*
X41390383Y-52335638D02*
X41417321Y-52416451D01*
X41417321Y-52416451D02*
X41552008Y-52551138D01*
X41552008Y-52551138D02*
X41632820Y-52578075D01*
X41632820Y-52578075D02*
X41686695Y-52578075D01*
X41686695Y-52578075D02*
X41767507Y-52551138D01*
X41767507Y-52551138D02*
X41875257Y-52443388D01*
X41875257Y-52443388D02*
X41902194Y-52362576D01*
X41902194Y-52362576D02*
X41902194Y-52308701D01*
X41902194Y-52308701D02*
X41875257Y-52227889D01*
X13881638Y-56222509D02*
X13800826Y-56249446D01*
X13800826Y-56249446D02*
X13720014Y-56330258D01*
X13720014Y-56330258D02*
X13666139Y-56438008D01*
X13666139Y-56438008D02*
X13666139Y-56545758D01*
X13666139Y-56545758D02*
X13693077Y-56626570D01*
X13693077Y-56626570D02*
X13773889Y-56761257D01*
X13773889Y-56761257D02*
X13854701Y-56842069D01*
X13854701Y-56842069D02*
X13989388Y-56922881D01*
X13989388Y-56922881D02*
X14070200Y-56949819D01*
X14070200Y-56949819D02*
X14177950Y-56949819D01*
X14177950Y-56949819D02*
X14285699Y-56895944D01*
X14285699Y-56895944D02*
X14339574Y-56842069D01*
X14339574Y-56842069D02*
X14393449Y-56734319D01*
X14393449Y-56734319D02*
X14393449Y-56680445D01*
X14393449Y-56680445D02*
X14204887Y-56491883D01*
X14204887Y-56491883D02*
X14097138Y-56599632D01*
X14689760Y-56491883D02*
X14124075Y-55926197D01*
X14124075Y-55926197D02*
X14339574Y-55710698D01*
X14339574Y-55710698D02*
X14420386Y-55683761D01*
X14420386Y-55683761D02*
X14474261Y-55683761D01*
X14474261Y-55683761D02*
X14555073Y-55710698D01*
X14555073Y-55710698D02*
X14635886Y-55791510D01*
X14635886Y-55791510D02*
X14662823Y-55872323D01*
X14662823Y-55872323D02*
X14662823Y-55926197D01*
X14662823Y-55926197D02*
X14635886Y-56007010D01*
X14635886Y-56007010D02*
X14420386Y-56222509D01*
X15551757Y-55629886D02*
X15228508Y-55953135D01*
X15390133Y-55791510D02*
X14824447Y-55225825D01*
X14824447Y-55225825D02*
X14851385Y-55360512D01*
X14851385Y-55360512D02*
X14851385Y-55468261D01*
X14851385Y-55468261D02*
X14824447Y-55549074D01*
X15174634Y-54875638D02*
X15524820Y-54525452D01*
X15524820Y-54525452D02*
X15551757Y-54929513D01*
X15551757Y-54929513D02*
X15632570Y-54848701D01*
X15632570Y-54848701D02*
X15713382Y-54821764D01*
X15713382Y-54821764D02*
X15767257Y-54821764D01*
X15767257Y-54821764D02*
X15848069Y-54848701D01*
X15848069Y-54848701D02*
X15982756Y-54983388D01*
X15982756Y-54983388D02*
X16009693Y-55064200D01*
X16009693Y-55064200D02*
X16009693Y-55118075D01*
X16009693Y-55118075D02*
X15982756Y-55198887D01*
X15982756Y-55198887D02*
X15821131Y-55360512D01*
X15821131Y-55360512D02*
X15740319Y-55387449D01*
X15740319Y-55387449D02*
X15686444Y-55387449D01*
X39845046Y-15849226D02*
X40599294Y-16226350D01*
X40599294Y-16226350D02*
X40222170Y-15472102D01*
X40868667Y-15364353D02*
X40976417Y-15310478D01*
X40976417Y-15310478D02*
X41030292Y-15310478D01*
X41030292Y-15310478D02*
X41111104Y-15337416D01*
X41111104Y-15337416D02*
X41191916Y-15418228D01*
X41191916Y-15418228D02*
X41218854Y-15499040D01*
X41218854Y-15499040D02*
X41218854Y-15552915D01*
X41218854Y-15552915D02*
X41191916Y-15633727D01*
X41191916Y-15633727D02*
X40976417Y-15849226D01*
X40976417Y-15849226D02*
X40410732Y-15283541D01*
X40410732Y-15283541D02*
X40599293Y-15094979D01*
X40599293Y-15094979D02*
X40680106Y-15068042D01*
X40680106Y-15068042D02*
X40733980Y-15068042D01*
X40733980Y-15068042D02*
X40814793Y-15094979D01*
X40814793Y-15094979D02*
X40868667Y-15148854D01*
X40868667Y-15148854D02*
X40895605Y-15229666D01*
X40895605Y-15229666D02*
X40895605Y-15283541D01*
X40895605Y-15283541D02*
X40868667Y-15364353D01*
X40868667Y-15364353D02*
X40680106Y-15552915D01*
X40976417Y-14717855D02*
X41434353Y-15175791D01*
X41434353Y-15175791D02*
X41515165Y-15202729D01*
X41515165Y-15202729D02*
X41569040Y-15202729D01*
X41569040Y-15202729D02*
X41649852Y-15175791D01*
X41649852Y-15175791D02*
X41757602Y-15068042D01*
X41757602Y-15068042D02*
X41784539Y-14987229D01*
X41784539Y-14987229D02*
X41784539Y-14933355D01*
X41784539Y-14933355D02*
X41757602Y-14852542D01*
X41757602Y-14852542D02*
X41299666Y-14394607D01*
X42080850Y-14690918D02*
X42188600Y-14637043D01*
X42188600Y-14637043D02*
X42323287Y-14502356D01*
X42323287Y-14502356D02*
X42350224Y-14421544D01*
X42350224Y-14421544D02*
X42350224Y-14367669D01*
X42350224Y-14367669D02*
X42323287Y-14286857D01*
X42323287Y-14286857D02*
X42269412Y-14232982D01*
X42269412Y-14232982D02*
X42188600Y-14206045D01*
X42188600Y-14206045D02*
X42134725Y-14206045D01*
X42134725Y-14206045D02*
X42053913Y-14232982D01*
X42053913Y-14232982D02*
X41919226Y-14313794D01*
X41919226Y-14313794D02*
X41838414Y-14340732D01*
X41838414Y-14340732D02*
X41784539Y-14340732D01*
X41784539Y-14340732D02*
X41703727Y-14313794D01*
X41703727Y-14313794D02*
X41649852Y-14259920D01*
X41649852Y-14259920D02*
X41622914Y-14179107D01*
X41622914Y-14179107D02*
X41622914Y-14125233D01*
X41622914Y-14125233D02*
X41649852Y-14044420D01*
X41649852Y-14044420D02*
X41784539Y-13909733D01*
X41784539Y-13909733D02*
X41892288Y-13855859D01*
X14378076Y-33120072D02*
X14297263Y-33147009D01*
X14297263Y-33147009D02*
X14216451Y-33227821D01*
X14216451Y-33227821D02*
X14162576Y-33335571D01*
X14162576Y-33335571D02*
X14162576Y-33443320D01*
X14162576Y-33443320D02*
X14189514Y-33524133D01*
X14189514Y-33524133D02*
X14270326Y-33658820D01*
X14270326Y-33658820D02*
X14351138Y-33739632D01*
X14351138Y-33739632D02*
X14485825Y-33820444D01*
X14485825Y-33820444D02*
X14566637Y-33847381D01*
X14566637Y-33847381D02*
X14674387Y-33847381D01*
X14674387Y-33847381D02*
X14782137Y-33793507D01*
X14782137Y-33793507D02*
X14836011Y-33739632D01*
X14836011Y-33739632D02*
X14889886Y-33631882D01*
X14889886Y-33631882D02*
X14889886Y-33578007D01*
X14889886Y-33578007D02*
X14701324Y-33389446D01*
X14701324Y-33389446D02*
X14593575Y-33497195D01*
X15186198Y-33389446D02*
X14620512Y-32823760D01*
X14620512Y-32823760D02*
X15509446Y-33066197D01*
X15509446Y-33066197D02*
X14943761Y-32500511D01*
X15778820Y-32796823D02*
X15213135Y-32231137D01*
X15213135Y-32231137D02*
X15347822Y-32096450D01*
X15347822Y-32096450D02*
X15455571Y-32042576D01*
X15455571Y-32042576D02*
X15563321Y-32042576D01*
X15563321Y-32042576D02*
X15644133Y-32069513D01*
X15644133Y-32069513D02*
X15778820Y-32150325D01*
X15778820Y-32150325D02*
X15859632Y-32231137D01*
X15859632Y-32231137D02*
X15940445Y-32365824D01*
X15940445Y-32365824D02*
X15967382Y-32446637D01*
X15967382Y-32446637D02*
X15967382Y-32554386D01*
X15967382Y-32554386D02*
X15913507Y-32662136D01*
X15913507Y-32662136D02*
X15778820Y-32796823D01*
X14305013Y-17843134D02*
X14224201Y-17870072D01*
X14224201Y-17870072D02*
X14143388Y-17950884D01*
X14143388Y-17950884D02*
X14089514Y-18058633D01*
X14089514Y-18058633D02*
X14089514Y-18166383D01*
X14089514Y-18166383D02*
X14116451Y-18247195D01*
X14116451Y-18247195D02*
X14197263Y-18381882D01*
X14197263Y-18381882D02*
X14278075Y-18462695D01*
X14278075Y-18462695D02*
X14412762Y-18543507D01*
X14412762Y-18543507D02*
X14493575Y-18570444D01*
X14493575Y-18570444D02*
X14601324Y-18570444D01*
X14601324Y-18570444D02*
X14709074Y-18516569D01*
X14709074Y-18516569D02*
X14762949Y-18462695D01*
X14762949Y-18462695D02*
X14816823Y-18354945D01*
X14816823Y-18354945D02*
X14816823Y-18301070D01*
X14816823Y-18301070D02*
X14628262Y-18112508D01*
X14628262Y-18112508D02*
X14520512Y-18220258D01*
X15113135Y-18112508D02*
X14547449Y-17546823D01*
X14547449Y-17546823D02*
X14762949Y-17331324D01*
X14762949Y-17331324D02*
X14843761Y-17304386D01*
X14843761Y-17304386D02*
X14897636Y-17304386D01*
X14897636Y-17304386D02*
X14978448Y-17331324D01*
X14978448Y-17331324D02*
X15059260Y-17412136D01*
X15059260Y-17412136D02*
X15086197Y-17492948D01*
X15086197Y-17492948D02*
X15086197Y-17546823D01*
X15086197Y-17546823D02*
X15059260Y-17627635D01*
X15059260Y-17627635D02*
X14843761Y-17843134D01*
X15975132Y-17250511D02*
X15651883Y-17573760D01*
X15813507Y-17412136D02*
X15247822Y-16846450D01*
X15247822Y-16846450D02*
X15274759Y-16981137D01*
X15274759Y-16981137D02*
X15274759Y-17088887D01*
X15274759Y-17088887D02*
X15247822Y-17169699D01*
X39989638Y-56222509D02*
X39908826Y-56249446D01*
X39908826Y-56249446D02*
X39828014Y-56330258D01*
X39828014Y-56330258D02*
X39774139Y-56438008D01*
X39774139Y-56438008D02*
X39774139Y-56545758D01*
X39774139Y-56545758D02*
X39801077Y-56626570D01*
X39801077Y-56626570D02*
X39881889Y-56761257D01*
X39881889Y-56761257D02*
X39962701Y-56842069D01*
X39962701Y-56842069D02*
X40097388Y-56922881D01*
X40097388Y-56922881D02*
X40178200Y-56949819D01*
X40178200Y-56949819D02*
X40285950Y-56949819D01*
X40285950Y-56949819D02*
X40393699Y-56895944D01*
X40393699Y-56895944D02*
X40447574Y-56842069D01*
X40447574Y-56842069D02*
X40501449Y-56734319D01*
X40501449Y-56734319D02*
X40501449Y-56680445D01*
X40501449Y-56680445D02*
X40312887Y-56491883D01*
X40312887Y-56491883D02*
X40205138Y-56599632D01*
X40797760Y-56491883D02*
X40232075Y-55926197D01*
X40232075Y-55926197D02*
X40447574Y-55710698D01*
X40447574Y-55710698D02*
X40528386Y-55683761D01*
X40528386Y-55683761D02*
X40582261Y-55683761D01*
X40582261Y-55683761D02*
X40663073Y-55710698D01*
X40663073Y-55710698D02*
X40743886Y-55791510D01*
X40743886Y-55791510D02*
X40770823Y-55872323D01*
X40770823Y-55872323D02*
X40770823Y-55926197D01*
X40770823Y-55926197D02*
X40743886Y-56007010D01*
X40743886Y-56007010D02*
X40528386Y-56222509D01*
X41659757Y-55629886D02*
X41336508Y-55953135D01*
X41498133Y-55791510D02*
X40932447Y-55225825D01*
X40932447Y-55225825D02*
X40959385Y-55360512D01*
X40959385Y-55360512D02*
X40959385Y-55468261D01*
X40959385Y-55468261D02*
X40932447Y-55549074D01*
X41659757Y-54983388D02*
X41578945Y-55010326D01*
X41578945Y-55010326D02*
X41525070Y-55010326D01*
X41525070Y-55010326D02*
X41444258Y-54983388D01*
X41444258Y-54983388D02*
X41417321Y-54956451D01*
X41417321Y-54956451D02*
X41390383Y-54875638D01*
X41390383Y-54875638D02*
X41390383Y-54821764D01*
X41390383Y-54821764D02*
X41417321Y-54740951D01*
X41417321Y-54740951D02*
X41525070Y-54633202D01*
X41525070Y-54633202D02*
X41605883Y-54606264D01*
X41605883Y-54606264D02*
X41659757Y-54606264D01*
X41659757Y-54606264D02*
X41740570Y-54633202D01*
X41740570Y-54633202D02*
X41767507Y-54660139D01*
X41767507Y-54660139D02*
X41794444Y-54740951D01*
X41794444Y-54740951D02*
X41794444Y-54794826D01*
X41794444Y-54794826D02*
X41767507Y-54875638D01*
X41767507Y-54875638D02*
X41659757Y-54983388D01*
X41659757Y-54983388D02*
X41632820Y-55064200D01*
X41632820Y-55064200D02*
X41632820Y-55118075D01*
X41632820Y-55118075D02*
X41659757Y-55198887D01*
X41659757Y-55198887D02*
X41767507Y-55306637D01*
X41767507Y-55306637D02*
X41848319Y-55333574D01*
X41848319Y-55333574D02*
X41902194Y-55333574D01*
X41902194Y-55333574D02*
X41983006Y-55306637D01*
X41983006Y-55306637D02*
X42090756Y-55198887D01*
X42090756Y-55198887D02*
X42117693Y-55118075D01*
X42117693Y-55118075D02*
X42117693Y-55064200D01*
X42117693Y-55064200D02*
X42090756Y-54983388D01*
X42090756Y-54983388D02*
X41983006Y-54875638D01*
X41983006Y-54875638D02*
X41902194Y-54848701D01*
X41902194Y-54848701D02*
X41848319Y-54848701D01*
X41848319Y-54848701D02*
X41767507Y-54875638D01*
X14405013Y-30553134D02*
X14324201Y-30580072D01*
X14324201Y-30580072D02*
X14243388Y-30660884D01*
X14243388Y-30660884D02*
X14189514Y-30768633D01*
X14189514Y-30768633D02*
X14189514Y-30876383D01*
X14189514Y-30876383D02*
X14216451Y-30957195D01*
X14216451Y-30957195D02*
X14297263Y-31091882D01*
X14297263Y-31091882D02*
X14378075Y-31172695D01*
X14378075Y-31172695D02*
X14512762Y-31253507D01*
X14512762Y-31253507D02*
X14593575Y-31280444D01*
X14593575Y-31280444D02*
X14701324Y-31280444D01*
X14701324Y-31280444D02*
X14809074Y-31226569D01*
X14809074Y-31226569D02*
X14862949Y-31172695D01*
X14862949Y-31172695D02*
X14916823Y-31064945D01*
X14916823Y-31064945D02*
X14916823Y-31011070D01*
X14916823Y-31011070D02*
X14728262Y-30822508D01*
X14728262Y-30822508D02*
X14620512Y-30930258D01*
X15213135Y-30822508D02*
X14647449Y-30256823D01*
X14647449Y-30256823D02*
X14862949Y-30041324D01*
X14862949Y-30041324D02*
X14943761Y-30014386D01*
X14943761Y-30014386D02*
X14997636Y-30014386D01*
X14997636Y-30014386D02*
X15078448Y-30041324D01*
X15078448Y-30041324D02*
X15159260Y-30122136D01*
X15159260Y-30122136D02*
X15186197Y-30202948D01*
X15186197Y-30202948D02*
X15186197Y-30256823D01*
X15186197Y-30256823D02*
X15159260Y-30337635D01*
X15159260Y-30337635D02*
X14943761Y-30553134D01*
X15482509Y-29421763D02*
X15213135Y-29691137D01*
X15213135Y-29691137D02*
X15455571Y-29987449D01*
X15455571Y-29987449D02*
X15455571Y-29933574D01*
X15455571Y-29933574D02*
X15482509Y-29852762D01*
X15482509Y-29852762D02*
X15617196Y-29718075D01*
X15617196Y-29718075D02*
X15698008Y-29691137D01*
X15698008Y-29691137D02*
X15751883Y-29691137D01*
X15751883Y-29691137D02*
X15832695Y-29718075D01*
X15832695Y-29718075D02*
X15967382Y-29852762D01*
X15967382Y-29852762D02*
X15994319Y-29933574D01*
X15994319Y-29933574D02*
X15994319Y-29987449D01*
X15994319Y-29987449D02*
X15967382Y-30068261D01*
X15967382Y-30068261D02*
X15832695Y-30202948D01*
X15832695Y-30202948D02*
X15751883Y-30229885D01*
X15751883Y-30229885D02*
X15698008Y-30229885D01*
X39989638Y-63842509D02*
X39908826Y-63869446D01*
X39908826Y-63869446D02*
X39828014Y-63950258D01*
X39828014Y-63950258D02*
X39774139Y-64058008D01*
X39774139Y-64058008D02*
X39774139Y-64165758D01*
X39774139Y-64165758D02*
X39801077Y-64246570D01*
X39801077Y-64246570D02*
X39881889Y-64381257D01*
X39881889Y-64381257D02*
X39962701Y-64462069D01*
X39962701Y-64462069D02*
X40097388Y-64542881D01*
X40097388Y-64542881D02*
X40178200Y-64569819D01*
X40178200Y-64569819D02*
X40285950Y-64569819D01*
X40285950Y-64569819D02*
X40393699Y-64515944D01*
X40393699Y-64515944D02*
X40447574Y-64462069D01*
X40447574Y-64462069D02*
X40501449Y-64354319D01*
X40501449Y-64354319D02*
X40501449Y-64300445D01*
X40501449Y-64300445D02*
X40312887Y-64111883D01*
X40312887Y-64111883D02*
X40205138Y-64219632D01*
X40797760Y-64111883D02*
X40232075Y-63546197D01*
X40232075Y-63546197D02*
X40447574Y-63330698D01*
X40447574Y-63330698D02*
X40528386Y-63303761D01*
X40528386Y-63303761D02*
X40582261Y-63303761D01*
X40582261Y-63303761D02*
X40663073Y-63330698D01*
X40663073Y-63330698D02*
X40743886Y-63411510D01*
X40743886Y-63411510D02*
X40770823Y-63492323D01*
X40770823Y-63492323D02*
X40770823Y-63546197D01*
X40770823Y-63546197D02*
X40743886Y-63627010D01*
X40743886Y-63627010D02*
X40528386Y-63842509D01*
X41659757Y-63249886D02*
X41336508Y-63573135D01*
X41498133Y-63411510D02*
X40932447Y-62845825D01*
X40932447Y-62845825D02*
X40959385Y-62980512D01*
X40959385Y-62980512D02*
X40959385Y-63088261D01*
X40959385Y-63088261D02*
X40932447Y-63169074D01*
X41578945Y-62199327D02*
X41471196Y-62307077D01*
X41471196Y-62307077D02*
X41444258Y-62387889D01*
X41444258Y-62387889D02*
X41444258Y-62441764D01*
X41444258Y-62441764D02*
X41471196Y-62576451D01*
X41471196Y-62576451D02*
X41552008Y-62711138D01*
X41552008Y-62711138D02*
X41767507Y-62926637D01*
X41767507Y-62926637D02*
X41848319Y-62953574D01*
X41848319Y-62953574D02*
X41902194Y-62953574D01*
X41902194Y-62953574D02*
X41983006Y-62926637D01*
X41983006Y-62926637D02*
X42090756Y-62818887D01*
X42090756Y-62818887D02*
X42117693Y-62738075D01*
X42117693Y-62738075D02*
X42117693Y-62684200D01*
X42117693Y-62684200D02*
X42090756Y-62603388D01*
X42090756Y-62603388D02*
X41956069Y-62468701D01*
X41956069Y-62468701D02*
X41875257Y-62441764D01*
X41875257Y-62441764D02*
X41821382Y-62441764D01*
X41821382Y-62441764D02*
X41740570Y-62468701D01*
X41740570Y-62468701D02*
X41632820Y-62576451D01*
X41632820Y-62576451D02*
X41605883Y-62657263D01*
X41605883Y-62657263D02*
X41605883Y-62711138D01*
X41605883Y-62711138D02*
X41632820Y-62791950D01*
X31844761Y-65825809D02*
X31959047Y-65863904D01*
X31959047Y-65863904D02*
X32149523Y-65863904D01*
X32149523Y-65863904D02*
X32225714Y-65825809D01*
X32225714Y-65825809D02*
X32263809Y-65787714D01*
X32263809Y-65787714D02*
X32301904Y-65711523D01*
X32301904Y-65711523D02*
X32301904Y-65635333D01*
X32301904Y-65635333D02*
X32263809Y-65559142D01*
X32263809Y-65559142D02*
X32225714Y-65521047D01*
X32225714Y-65521047D02*
X32149523Y-65482952D01*
X32149523Y-65482952D02*
X31997142Y-65444857D01*
X31997142Y-65444857D02*
X31920952Y-65406761D01*
X31920952Y-65406761D02*
X31882857Y-65368666D01*
X31882857Y-65368666D02*
X31844761Y-65292476D01*
X31844761Y-65292476D02*
X31844761Y-65216285D01*
X31844761Y-65216285D02*
X31882857Y-65140095D01*
X31882857Y-65140095D02*
X31920952Y-65102000D01*
X31920952Y-65102000D02*
X31997142Y-65063904D01*
X31997142Y-65063904D02*
X32187619Y-65063904D01*
X32187619Y-65063904D02*
X32301904Y-65102000D01*
X32568571Y-65063904D02*
X32759047Y-65863904D01*
X32759047Y-65863904D02*
X32911428Y-65292476D01*
X32911428Y-65292476D02*
X33063809Y-65863904D01*
X33063809Y-65863904D02*
X33254286Y-65063904D01*
X33559048Y-65863904D02*
X33559048Y-65063904D01*
X33559048Y-65063904D02*
X33749524Y-65063904D01*
X33749524Y-65063904D02*
X33863810Y-65102000D01*
X33863810Y-65102000D02*
X33940000Y-65178190D01*
X33940000Y-65178190D02*
X33978095Y-65254380D01*
X33978095Y-65254380D02*
X34016191Y-65406761D01*
X34016191Y-65406761D02*
X34016191Y-65521047D01*
X34016191Y-65521047D02*
X33978095Y-65673428D01*
X33978095Y-65673428D02*
X33940000Y-65749619D01*
X33940000Y-65749619D02*
X33863810Y-65825809D01*
X33863810Y-65825809D02*
X33749524Y-65863904D01*
X33749524Y-65863904D02*
X33559048Y-65863904D01*
X34359048Y-65863904D02*
X34359048Y-65063904D01*
X34892381Y-65063904D02*
X35044762Y-65063904D01*
X35044762Y-65063904D02*
X35120952Y-65102000D01*
X35120952Y-65102000D02*
X35197143Y-65178190D01*
X35197143Y-65178190D02*
X35235238Y-65330571D01*
X35235238Y-65330571D02*
X35235238Y-65597238D01*
X35235238Y-65597238D02*
X35197143Y-65749619D01*
X35197143Y-65749619D02*
X35120952Y-65825809D01*
X35120952Y-65825809D02*
X35044762Y-65863904D01*
X35044762Y-65863904D02*
X34892381Y-65863904D01*
X34892381Y-65863904D02*
X34816190Y-65825809D01*
X34816190Y-65825809D02*
X34740000Y-65749619D01*
X34740000Y-65749619D02*
X34701904Y-65597238D01*
X34701904Y-65597238D02*
X34701904Y-65330571D01*
X34701904Y-65330571D02*
X34740000Y-65178190D01*
X34740000Y-65178190D02*
X34816190Y-65102000D01*
X34816190Y-65102000D02*
X34892381Y-65063904D01*
X39989638Y-35912509D02*
X39908826Y-35939446D01*
X39908826Y-35939446D02*
X39828014Y-36020258D01*
X39828014Y-36020258D02*
X39774139Y-36128008D01*
X39774139Y-36128008D02*
X39774139Y-36235758D01*
X39774139Y-36235758D02*
X39801077Y-36316570D01*
X39801077Y-36316570D02*
X39881889Y-36451257D01*
X39881889Y-36451257D02*
X39962701Y-36532069D01*
X39962701Y-36532069D02*
X40097388Y-36612881D01*
X40097388Y-36612881D02*
X40178200Y-36639819D01*
X40178200Y-36639819D02*
X40285950Y-36639819D01*
X40285950Y-36639819D02*
X40393699Y-36585944D01*
X40393699Y-36585944D02*
X40447574Y-36532069D01*
X40447574Y-36532069D02*
X40501449Y-36424319D01*
X40501449Y-36424319D02*
X40501449Y-36370445D01*
X40501449Y-36370445D02*
X40312887Y-36181883D01*
X40312887Y-36181883D02*
X40205138Y-36289632D01*
X40797760Y-36181883D02*
X40232075Y-35616197D01*
X40232075Y-35616197D02*
X40447574Y-35400698D01*
X40447574Y-35400698D02*
X40528386Y-35373761D01*
X40528386Y-35373761D02*
X40582261Y-35373761D01*
X40582261Y-35373761D02*
X40663073Y-35400698D01*
X40663073Y-35400698D02*
X40743886Y-35481510D01*
X40743886Y-35481510D02*
X40770823Y-35562323D01*
X40770823Y-35562323D02*
X40770823Y-35616197D01*
X40770823Y-35616197D02*
X40743886Y-35697010D01*
X40743886Y-35697010D02*
X40528386Y-35912509D01*
X40824698Y-35131324D02*
X40824698Y-35077449D01*
X40824698Y-35077449D02*
X40851635Y-34996637D01*
X40851635Y-34996637D02*
X40986322Y-34861950D01*
X40986322Y-34861950D02*
X41067134Y-34835013D01*
X41067134Y-34835013D02*
X41121009Y-34835013D01*
X41121009Y-34835013D02*
X41201821Y-34861950D01*
X41201821Y-34861950D02*
X41255696Y-34915825D01*
X41255696Y-34915825D02*
X41309571Y-35023574D01*
X41309571Y-35023574D02*
X41309571Y-35670072D01*
X41309571Y-35670072D02*
X41659757Y-35319886D01*
X41282634Y-34565638D02*
X41659757Y-34188515D01*
X41659757Y-34188515D02*
X41983006Y-34996637D01*
X14405013Y-25473134D02*
X14324201Y-25500072D01*
X14324201Y-25500072D02*
X14243388Y-25580884D01*
X14243388Y-25580884D02*
X14189514Y-25688633D01*
X14189514Y-25688633D02*
X14189514Y-25796383D01*
X14189514Y-25796383D02*
X14216451Y-25877195D01*
X14216451Y-25877195D02*
X14297263Y-26011882D01*
X14297263Y-26011882D02*
X14378075Y-26092695D01*
X14378075Y-26092695D02*
X14512762Y-26173507D01*
X14512762Y-26173507D02*
X14593575Y-26200444D01*
X14593575Y-26200444D02*
X14701324Y-26200444D01*
X14701324Y-26200444D02*
X14809074Y-26146569D01*
X14809074Y-26146569D02*
X14862949Y-26092695D01*
X14862949Y-26092695D02*
X14916823Y-25984945D01*
X14916823Y-25984945D02*
X14916823Y-25931070D01*
X14916823Y-25931070D02*
X14728262Y-25742508D01*
X14728262Y-25742508D02*
X14620512Y-25850258D01*
X15213135Y-25742508D02*
X14647449Y-25176823D01*
X14647449Y-25176823D02*
X14862949Y-24961324D01*
X14862949Y-24961324D02*
X14943761Y-24934386D01*
X14943761Y-24934386D02*
X14997636Y-24934386D01*
X14997636Y-24934386D02*
X15078448Y-24961324D01*
X15078448Y-24961324D02*
X15159260Y-25042136D01*
X15159260Y-25042136D02*
X15186197Y-25122948D01*
X15186197Y-25122948D02*
X15186197Y-25176823D01*
X15186197Y-25176823D02*
X15159260Y-25257635D01*
X15159260Y-25257635D02*
X14943761Y-25473134D01*
X15159260Y-24665012D02*
X15509446Y-24314826D01*
X15509446Y-24314826D02*
X15536384Y-24718887D01*
X15536384Y-24718887D02*
X15617196Y-24638075D01*
X15617196Y-24638075D02*
X15698008Y-24611137D01*
X15698008Y-24611137D02*
X15751883Y-24611137D01*
X15751883Y-24611137D02*
X15832695Y-24638075D01*
X15832695Y-24638075D02*
X15967382Y-24772762D01*
X15967382Y-24772762D02*
X15994319Y-24853574D01*
X15994319Y-24853574D02*
X15994319Y-24907449D01*
X15994319Y-24907449D02*
X15967382Y-24988261D01*
X15967382Y-24988261D02*
X15805758Y-25149885D01*
X15805758Y-25149885D02*
X15724945Y-25176823D01*
X15724945Y-25176823D02*
X15671071Y-25176823D01*
X14405013Y-35633134D02*
X14324201Y-35660072D01*
X14324201Y-35660072D02*
X14243388Y-35740884D01*
X14243388Y-35740884D02*
X14189514Y-35848633D01*
X14189514Y-35848633D02*
X14189514Y-35956383D01*
X14189514Y-35956383D02*
X14216451Y-36037195D01*
X14216451Y-36037195D02*
X14297263Y-36171882D01*
X14297263Y-36171882D02*
X14378075Y-36252695D01*
X14378075Y-36252695D02*
X14512762Y-36333507D01*
X14512762Y-36333507D02*
X14593575Y-36360444D01*
X14593575Y-36360444D02*
X14701324Y-36360444D01*
X14701324Y-36360444D02*
X14809074Y-36306569D01*
X14809074Y-36306569D02*
X14862949Y-36252695D01*
X14862949Y-36252695D02*
X14916823Y-36144945D01*
X14916823Y-36144945D02*
X14916823Y-36091070D01*
X14916823Y-36091070D02*
X14728262Y-35902508D01*
X14728262Y-35902508D02*
X14620512Y-36010258D01*
X15213135Y-35902508D02*
X14647449Y-35336823D01*
X14647449Y-35336823D02*
X14862949Y-35121324D01*
X14862949Y-35121324D02*
X14943761Y-35094386D01*
X14943761Y-35094386D02*
X14997636Y-35094386D01*
X14997636Y-35094386D02*
X15078448Y-35121324D01*
X15078448Y-35121324D02*
X15159260Y-35202136D01*
X15159260Y-35202136D02*
X15186197Y-35282948D01*
X15186197Y-35282948D02*
X15186197Y-35336823D01*
X15186197Y-35336823D02*
X15159260Y-35417635D01*
X15159260Y-35417635D02*
X14943761Y-35633134D01*
X15455571Y-34528701D02*
X15347822Y-34636450D01*
X15347822Y-34636450D02*
X15320884Y-34717263D01*
X15320884Y-34717263D02*
X15320884Y-34771137D01*
X15320884Y-34771137D02*
X15347822Y-34905824D01*
X15347822Y-34905824D02*
X15428634Y-35040511D01*
X15428634Y-35040511D02*
X15644133Y-35256011D01*
X15644133Y-35256011D02*
X15724945Y-35282948D01*
X15724945Y-35282948D02*
X15778820Y-35282948D01*
X15778820Y-35282948D02*
X15859632Y-35256011D01*
X15859632Y-35256011D02*
X15967382Y-35148261D01*
X15967382Y-35148261D02*
X15994319Y-35067449D01*
X15994319Y-35067449D02*
X15994319Y-35013574D01*
X15994319Y-35013574D02*
X15967382Y-34932762D01*
X15967382Y-34932762D02*
X15832695Y-34798075D01*
X15832695Y-34798075D02*
X15751883Y-34771137D01*
X15751883Y-34771137D02*
X15698008Y-34771137D01*
X15698008Y-34771137D02*
X15617196Y-34798075D01*
X15617196Y-34798075D02*
X15509446Y-34905824D01*
X15509446Y-34905824D02*
X15482509Y-34986637D01*
X15482509Y-34986637D02*
X15482509Y-35040511D01*
X15482509Y-35040511D02*
X15509446Y-35121324D01*
X39812390Y-18391883D02*
X40566637Y-18769006D01*
X40566637Y-18769006D02*
X40189513Y-18014759D01*
X40889886Y-18391883D02*
X40997635Y-18338008D01*
X40997635Y-18338008D02*
X41132322Y-18203321D01*
X41132322Y-18203321D02*
X41159260Y-18122509D01*
X41159260Y-18122509D02*
X41159260Y-18068634D01*
X41159260Y-18068634D02*
X41132322Y-17987822D01*
X41132322Y-17987822D02*
X41078447Y-17933947D01*
X41078447Y-17933947D02*
X40997635Y-17907010D01*
X40997635Y-17907010D02*
X40943760Y-17907010D01*
X40943760Y-17907010D02*
X40862948Y-17933947D01*
X40862948Y-17933947D02*
X40728261Y-18014759D01*
X40728261Y-18014759D02*
X40647449Y-18041697D01*
X40647449Y-18041697D02*
X40593574Y-18041697D01*
X40593574Y-18041697D02*
X40512762Y-18014759D01*
X40512762Y-18014759D02*
X40458887Y-17960884D01*
X40458887Y-17960884D02*
X40431950Y-17880072D01*
X40431950Y-17880072D02*
X40431950Y-17826197D01*
X40431950Y-17826197D02*
X40458887Y-17745385D01*
X40458887Y-17745385D02*
X40593574Y-17610698D01*
X40593574Y-17610698D02*
X40701324Y-17556823D01*
X41320884Y-17476011D02*
X41590258Y-17745385D01*
X40836011Y-17368261D02*
X41320884Y-17476011D01*
X41320884Y-17476011D02*
X41213135Y-16991138D01*
X41913507Y-17368262D02*
X42021256Y-17314387D01*
X42021256Y-17314387D02*
X42155943Y-17179700D01*
X42155943Y-17179700D02*
X42182881Y-17098888D01*
X42182881Y-17098888D02*
X42182881Y-17045013D01*
X42182881Y-17045013D02*
X42155943Y-16964201D01*
X42155943Y-16964201D02*
X42102069Y-16910326D01*
X42102069Y-16910326D02*
X42021256Y-16883388D01*
X42021256Y-16883388D02*
X41967382Y-16883388D01*
X41967382Y-16883388D02*
X41886569Y-16910326D01*
X41886569Y-16910326D02*
X41751882Y-16991138D01*
X41751882Y-16991138D02*
X41671070Y-17018075D01*
X41671070Y-17018075D02*
X41617195Y-17018075D01*
X41617195Y-17018075D02*
X41536383Y-16991138D01*
X41536383Y-16991138D02*
X41482508Y-16937263D01*
X41482508Y-16937263D02*
X41455571Y-16856451D01*
X41455571Y-16856451D02*
X41455571Y-16802576D01*
X41455571Y-16802576D02*
X41482508Y-16721764D01*
X41482508Y-16721764D02*
X41617195Y-16587077D01*
X41617195Y-16587077D02*
X41724945Y-16533202D01*
X13835638Y-61302509D02*
X13754826Y-61329446D01*
X13754826Y-61329446D02*
X13674014Y-61410258D01*
X13674014Y-61410258D02*
X13620139Y-61518008D01*
X13620139Y-61518008D02*
X13620139Y-61625758D01*
X13620139Y-61625758D02*
X13647077Y-61706570D01*
X13647077Y-61706570D02*
X13727889Y-61841257D01*
X13727889Y-61841257D02*
X13808701Y-61922069D01*
X13808701Y-61922069D02*
X13943388Y-62002881D01*
X13943388Y-62002881D02*
X14024200Y-62029819D01*
X14024200Y-62029819D02*
X14131950Y-62029819D01*
X14131950Y-62029819D02*
X14239699Y-61975944D01*
X14239699Y-61975944D02*
X14293574Y-61922069D01*
X14293574Y-61922069D02*
X14347449Y-61814319D01*
X14347449Y-61814319D02*
X14347449Y-61760445D01*
X14347449Y-61760445D02*
X14158887Y-61571883D01*
X14158887Y-61571883D02*
X14051138Y-61679632D01*
X14643760Y-61571883D02*
X14078075Y-61006197D01*
X14078075Y-61006197D02*
X14293574Y-60790698D01*
X14293574Y-60790698D02*
X14374386Y-60763761D01*
X14374386Y-60763761D02*
X14428261Y-60763761D01*
X14428261Y-60763761D02*
X14509073Y-60790698D01*
X14509073Y-60790698D02*
X14589886Y-60871510D01*
X14589886Y-60871510D02*
X14616823Y-60952323D01*
X14616823Y-60952323D02*
X14616823Y-61006197D01*
X14616823Y-61006197D02*
X14589886Y-61087010D01*
X14589886Y-61087010D02*
X14374386Y-61302509D01*
X15505757Y-60709886D02*
X15182508Y-61033135D01*
X15344133Y-60871510D02*
X14778447Y-60305825D01*
X14778447Y-60305825D02*
X14805385Y-60440512D01*
X14805385Y-60440512D02*
X14805385Y-60548261D01*
X14805385Y-60548261D02*
X14778447Y-60629074D01*
X15613507Y-59847889D02*
X15990631Y-60225013D01*
X15263321Y-59767077D02*
X15532695Y-60305825D01*
X15532695Y-60305825D02*
X15882881Y-59955638D01*
X14378076Y-20420072D02*
X14297263Y-20447009D01*
X14297263Y-20447009D02*
X14216451Y-20527821D01*
X14216451Y-20527821D02*
X14162576Y-20635571D01*
X14162576Y-20635571D02*
X14162576Y-20743320D01*
X14162576Y-20743320D02*
X14189514Y-20824133D01*
X14189514Y-20824133D02*
X14270326Y-20958820D01*
X14270326Y-20958820D02*
X14351138Y-21039632D01*
X14351138Y-21039632D02*
X14485825Y-21120444D01*
X14485825Y-21120444D02*
X14566637Y-21147381D01*
X14566637Y-21147381D02*
X14674387Y-21147381D01*
X14674387Y-21147381D02*
X14782137Y-21093507D01*
X14782137Y-21093507D02*
X14836011Y-21039632D01*
X14836011Y-21039632D02*
X14889886Y-20931882D01*
X14889886Y-20931882D02*
X14889886Y-20878007D01*
X14889886Y-20878007D02*
X14701324Y-20689446D01*
X14701324Y-20689446D02*
X14593575Y-20797195D01*
X15186198Y-20689446D02*
X14620512Y-20123760D01*
X14620512Y-20123760D02*
X15509446Y-20366197D01*
X15509446Y-20366197D02*
X14943761Y-19800511D01*
X15778820Y-20096823D02*
X15213135Y-19531137D01*
X15213135Y-19531137D02*
X15347822Y-19396450D01*
X15347822Y-19396450D02*
X15455571Y-19342576D01*
X15455571Y-19342576D02*
X15563321Y-19342576D01*
X15563321Y-19342576D02*
X15644133Y-19369513D01*
X15644133Y-19369513D02*
X15778820Y-19450325D01*
X15778820Y-19450325D02*
X15859632Y-19531137D01*
X15859632Y-19531137D02*
X15940445Y-19665824D01*
X15940445Y-19665824D02*
X15967382Y-19746637D01*
X15967382Y-19746637D02*
X15967382Y-19854386D01*
X15967382Y-19854386D02*
X15913507Y-19962136D01*
X15913507Y-19962136D02*
X15778820Y-20096823D01*
X14378076Y-58520072D02*
X14297263Y-58547009D01*
X14297263Y-58547009D02*
X14216451Y-58627821D01*
X14216451Y-58627821D02*
X14162576Y-58735571D01*
X14162576Y-58735571D02*
X14162576Y-58843320D01*
X14162576Y-58843320D02*
X14189514Y-58924133D01*
X14189514Y-58924133D02*
X14270326Y-59058820D01*
X14270326Y-59058820D02*
X14351138Y-59139632D01*
X14351138Y-59139632D02*
X14485825Y-59220444D01*
X14485825Y-59220444D02*
X14566637Y-59247381D01*
X14566637Y-59247381D02*
X14674387Y-59247381D01*
X14674387Y-59247381D02*
X14782137Y-59193507D01*
X14782137Y-59193507D02*
X14836011Y-59139632D01*
X14836011Y-59139632D02*
X14889886Y-59031882D01*
X14889886Y-59031882D02*
X14889886Y-58978007D01*
X14889886Y-58978007D02*
X14701324Y-58789446D01*
X14701324Y-58789446D02*
X14593575Y-58897195D01*
X15186198Y-58789446D02*
X14620512Y-58223760D01*
X14620512Y-58223760D02*
X15509446Y-58466197D01*
X15509446Y-58466197D02*
X14943761Y-57900511D01*
X15778820Y-58196823D02*
X15213135Y-57631137D01*
X15213135Y-57631137D02*
X15347822Y-57496450D01*
X15347822Y-57496450D02*
X15455571Y-57442576D01*
X15455571Y-57442576D02*
X15563321Y-57442576D01*
X15563321Y-57442576D02*
X15644133Y-57469513D01*
X15644133Y-57469513D02*
X15778820Y-57550325D01*
X15778820Y-57550325D02*
X15859632Y-57631137D01*
X15859632Y-57631137D02*
X15940445Y-57765824D01*
X15940445Y-57765824D02*
X15967382Y-57846637D01*
X15967382Y-57846637D02*
X15967382Y-57954386D01*
X15967382Y-57954386D02*
X15913507Y-58062136D01*
X15913507Y-58062136D02*
X15778820Y-58196823D01*
X14405013Y-15313134D02*
X14324201Y-15340072D01*
X14324201Y-15340072D02*
X14243388Y-15420884D01*
X14243388Y-15420884D02*
X14189514Y-15528633D01*
X14189514Y-15528633D02*
X14189514Y-15636383D01*
X14189514Y-15636383D02*
X14216451Y-15717195D01*
X14216451Y-15717195D02*
X14297263Y-15851882D01*
X14297263Y-15851882D02*
X14378075Y-15932695D01*
X14378075Y-15932695D02*
X14512762Y-16013507D01*
X14512762Y-16013507D02*
X14593575Y-16040444D01*
X14593575Y-16040444D02*
X14701324Y-16040444D01*
X14701324Y-16040444D02*
X14809074Y-15986569D01*
X14809074Y-15986569D02*
X14862949Y-15932695D01*
X14862949Y-15932695D02*
X14916823Y-15824945D01*
X14916823Y-15824945D02*
X14916823Y-15771070D01*
X14916823Y-15771070D02*
X14728262Y-15582508D01*
X14728262Y-15582508D02*
X14620512Y-15690258D01*
X15213135Y-15582508D02*
X14647449Y-15016823D01*
X14647449Y-15016823D02*
X14862949Y-14801324D01*
X14862949Y-14801324D02*
X14943761Y-14774386D01*
X14943761Y-14774386D02*
X14997636Y-14774386D01*
X14997636Y-14774386D02*
X15078448Y-14801324D01*
X15078448Y-14801324D02*
X15159260Y-14882136D01*
X15159260Y-14882136D02*
X15186197Y-14962948D01*
X15186197Y-14962948D02*
X15186197Y-15016823D01*
X15186197Y-15016823D02*
X15159260Y-15097635D01*
X15159260Y-15097635D02*
X14943761Y-15313134D01*
X15320884Y-14343388D02*
X15374759Y-14289513D01*
X15374759Y-14289513D02*
X15455571Y-14262576D01*
X15455571Y-14262576D02*
X15509446Y-14262576D01*
X15509446Y-14262576D02*
X15590258Y-14289513D01*
X15590258Y-14289513D02*
X15724945Y-14370325D01*
X15724945Y-14370325D02*
X15859632Y-14505012D01*
X15859632Y-14505012D02*
X15940445Y-14639699D01*
X15940445Y-14639699D02*
X15967382Y-14720511D01*
X15967382Y-14720511D02*
X15967382Y-14774386D01*
X15967382Y-14774386D02*
X15940445Y-14855198D01*
X15940445Y-14855198D02*
X15886570Y-14909073D01*
X15886570Y-14909073D02*
X15805758Y-14936011D01*
X15805758Y-14936011D02*
X15751883Y-14936011D01*
X15751883Y-14936011D02*
X15671071Y-14909073D01*
X15671071Y-14909073D02*
X15536384Y-14828261D01*
X15536384Y-14828261D02*
X15401697Y-14693574D01*
X15401697Y-14693574D02*
X15320884Y-14558887D01*
X15320884Y-14558887D02*
X15293947Y-14478075D01*
X15293947Y-14478075D02*
X15293947Y-14424200D01*
X15293947Y-14424200D02*
X15320884Y-14343388D01*
X39989638Y-38442509D02*
X39908826Y-38469446D01*
X39908826Y-38469446D02*
X39828014Y-38550258D01*
X39828014Y-38550258D02*
X39774139Y-38658008D01*
X39774139Y-38658008D02*
X39774139Y-38765758D01*
X39774139Y-38765758D02*
X39801077Y-38846570D01*
X39801077Y-38846570D02*
X39881889Y-38981257D01*
X39881889Y-38981257D02*
X39962701Y-39062069D01*
X39962701Y-39062069D02*
X40097388Y-39142881D01*
X40097388Y-39142881D02*
X40178200Y-39169819D01*
X40178200Y-39169819D02*
X40285950Y-39169819D01*
X40285950Y-39169819D02*
X40393699Y-39115944D01*
X40393699Y-39115944D02*
X40447574Y-39062069D01*
X40447574Y-39062069D02*
X40501449Y-38954319D01*
X40501449Y-38954319D02*
X40501449Y-38900445D01*
X40501449Y-38900445D02*
X40312887Y-38711883D01*
X40312887Y-38711883D02*
X40205138Y-38819632D01*
X40797760Y-38711883D02*
X40232075Y-38146197D01*
X40232075Y-38146197D02*
X40447574Y-37930698D01*
X40447574Y-37930698D02*
X40528386Y-37903761D01*
X40528386Y-37903761D02*
X40582261Y-37903761D01*
X40582261Y-37903761D02*
X40663073Y-37930698D01*
X40663073Y-37930698D02*
X40743886Y-38011510D01*
X40743886Y-38011510D02*
X40770823Y-38092323D01*
X40770823Y-38092323D02*
X40770823Y-38146197D01*
X40770823Y-38146197D02*
X40743886Y-38227010D01*
X40743886Y-38227010D02*
X40528386Y-38442509D01*
X40824698Y-37661324D02*
X40824698Y-37607449D01*
X40824698Y-37607449D02*
X40851635Y-37526637D01*
X40851635Y-37526637D02*
X40986322Y-37391950D01*
X40986322Y-37391950D02*
X41067134Y-37365013D01*
X41067134Y-37365013D02*
X41121009Y-37365013D01*
X41121009Y-37365013D02*
X41201821Y-37391950D01*
X41201821Y-37391950D02*
X41255696Y-37445825D01*
X41255696Y-37445825D02*
X41309571Y-37553574D01*
X41309571Y-37553574D02*
X41309571Y-38200072D01*
X41309571Y-38200072D02*
X41659757Y-37849886D01*
X41578945Y-36799327D02*
X41471196Y-36907077D01*
X41471196Y-36907077D02*
X41444258Y-36987889D01*
X41444258Y-36987889D02*
X41444258Y-37041764D01*
X41444258Y-37041764D02*
X41471196Y-37176451D01*
X41471196Y-37176451D02*
X41552008Y-37311138D01*
X41552008Y-37311138D02*
X41767507Y-37526637D01*
X41767507Y-37526637D02*
X41848319Y-37553574D01*
X41848319Y-37553574D02*
X41902194Y-37553574D01*
X41902194Y-37553574D02*
X41983006Y-37526637D01*
X41983006Y-37526637D02*
X42090756Y-37418887D01*
X42090756Y-37418887D02*
X42117693Y-37338075D01*
X42117693Y-37338075D02*
X42117693Y-37284200D01*
X42117693Y-37284200D02*
X42090756Y-37203388D01*
X42090756Y-37203388D02*
X41956069Y-37068701D01*
X41956069Y-37068701D02*
X41875257Y-37041764D01*
X41875257Y-37041764D02*
X41821382Y-37041764D01*
X41821382Y-37041764D02*
X41740570Y-37068701D01*
X41740570Y-37068701D02*
X41632820Y-37176451D01*
X41632820Y-37176451D02*
X41605883Y-37257263D01*
X41605883Y-37257263D02*
X41605883Y-37311138D01*
X41605883Y-37311138D02*
X41632820Y-37391950D01*
X13735638Y-51142509D02*
X13654826Y-51169446D01*
X13654826Y-51169446D02*
X13574014Y-51250258D01*
X13574014Y-51250258D02*
X13520139Y-51358008D01*
X13520139Y-51358008D02*
X13520139Y-51465758D01*
X13520139Y-51465758D02*
X13547077Y-51546570D01*
X13547077Y-51546570D02*
X13627889Y-51681257D01*
X13627889Y-51681257D02*
X13708701Y-51762069D01*
X13708701Y-51762069D02*
X13843388Y-51842881D01*
X13843388Y-51842881D02*
X13924200Y-51869819D01*
X13924200Y-51869819D02*
X14031950Y-51869819D01*
X14031950Y-51869819D02*
X14139699Y-51815944D01*
X14139699Y-51815944D02*
X14193574Y-51762069D01*
X14193574Y-51762069D02*
X14247449Y-51654319D01*
X14247449Y-51654319D02*
X14247449Y-51600445D01*
X14247449Y-51600445D02*
X14058887Y-51411883D01*
X14058887Y-51411883D02*
X13951138Y-51519632D01*
X14543760Y-51411883D02*
X13978075Y-50846197D01*
X13978075Y-50846197D02*
X14193574Y-50630698D01*
X14193574Y-50630698D02*
X14274386Y-50603761D01*
X14274386Y-50603761D02*
X14328261Y-50603761D01*
X14328261Y-50603761D02*
X14409073Y-50630698D01*
X14409073Y-50630698D02*
X14489886Y-50711510D01*
X14489886Y-50711510D02*
X14516823Y-50792323D01*
X14516823Y-50792323D02*
X14516823Y-50846197D01*
X14516823Y-50846197D02*
X14489886Y-50927010D01*
X14489886Y-50927010D02*
X14274386Y-51142509D01*
X15405757Y-50549886D02*
X15082508Y-50873135D01*
X15244133Y-50711510D02*
X14678447Y-50145825D01*
X14678447Y-50145825D02*
X14705385Y-50280512D01*
X14705385Y-50280512D02*
X14705385Y-50388261D01*
X14705385Y-50388261D02*
X14678447Y-50469074D01*
X15944505Y-50011138D02*
X15621257Y-50334387D01*
X15782881Y-50172762D02*
X15217196Y-49607077D01*
X15217196Y-49607077D02*
X15244133Y-49741764D01*
X15244133Y-49741764D02*
X15244133Y-49849513D01*
X15244133Y-49849513D02*
X15217196Y-49930326D01*
X39989638Y-43522509D02*
X39908826Y-43549446D01*
X39908826Y-43549446D02*
X39828014Y-43630258D01*
X39828014Y-43630258D02*
X39774139Y-43738008D01*
X39774139Y-43738008D02*
X39774139Y-43845758D01*
X39774139Y-43845758D02*
X39801077Y-43926570D01*
X39801077Y-43926570D02*
X39881889Y-44061257D01*
X39881889Y-44061257D02*
X39962701Y-44142069D01*
X39962701Y-44142069D02*
X40097388Y-44222881D01*
X40097388Y-44222881D02*
X40178200Y-44249819D01*
X40178200Y-44249819D02*
X40285950Y-44249819D01*
X40285950Y-44249819D02*
X40393699Y-44195944D01*
X40393699Y-44195944D02*
X40447574Y-44142069D01*
X40447574Y-44142069D02*
X40501449Y-44034319D01*
X40501449Y-44034319D02*
X40501449Y-43980445D01*
X40501449Y-43980445D02*
X40312887Y-43791883D01*
X40312887Y-43791883D02*
X40205138Y-43899632D01*
X40797760Y-43791883D02*
X40232075Y-43226197D01*
X40232075Y-43226197D02*
X40447574Y-43010698D01*
X40447574Y-43010698D02*
X40528386Y-42983761D01*
X40528386Y-42983761D02*
X40582261Y-42983761D01*
X40582261Y-42983761D02*
X40663073Y-43010698D01*
X40663073Y-43010698D02*
X40743886Y-43091510D01*
X40743886Y-43091510D02*
X40770823Y-43172323D01*
X40770823Y-43172323D02*
X40770823Y-43226197D01*
X40770823Y-43226197D02*
X40743886Y-43307010D01*
X40743886Y-43307010D02*
X40528386Y-43522509D01*
X40824698Y-42741324D02*
X40824698Y-42687449D01*
X40824698Y-42687449D02*
X40851635Y-42606637D01*
X40851635Y-42606637D02*
X40986322Y-42471950D01*
X40986322Y-42471950D02*
X41067134Y-42445013D01*
X41067134Y-42445013D02*
X41121009Y-42445013D01*
X41121009Y-42445013D02*
X41201821Y-42471950D01*
X41201821Y-42471950D02*
X41255696Y-42525825D01*
X41255696Y-42525825D02*
X41309571Y-42633574D01*
X41309571Y-42633574D02*
X41309571Y-43280072D01*
X41309571Y-43280072D02*
X41659757Y-42929886D01*
X41363446Y-42202576D02*
X41363446Y-42148701D01*
X41363446Y-42148701D02*
X41390383Y-42067889D01*
X41390383Y-42067889D02*
X41525070Y-41933202D01*
X41525070Y-41933202D02*
X41605883Y-41906264D01*
X41605883Y-41906264D02*
X41659757Y-41906264D01*
X41659757Y-41906264D02*
X41740570Y-41933202D01*
X41740570Y-41933202D02*
X41794444Y-41987077D01*
X41794444Y-41987077D02*
X41848319Y-42094826D01*
X41848319Y-42094826D02*
X41848319Y-42741324D01*
X41848319Y-42741324D02*
X42198505Y-42391138D01*
X39989638Y-61302509D02*
X39908826Y-61329446D01*
X39908826Y-61329446D02*
X39828014Y-61410258D01*
X39828014Y-61410258D02*
X39774139Y-61518008D01*
X39774139Y-61518008D02*
X39774139Y-61625758D01*
X39774139Y-61625758D02*
X39801077Y-61706570D01*
X39801077Y-61706570D02*
X39881889Y-61841257D01*
X39881889Y-61841257D02*
X39962701Y-61922069D01*
X39962701Y-61922069D02*
X40097388Y-62002881D01*
X40097388Y-62002881D02*
X40178200Y-62029819D01*
X40178200Y-62029819D02*
X40285950Y-62029819D01*
X40285950Y-62029819D02*
X40393699Y-61975944D01*
X40393699Y-61975944D02*
X40447574Y-61922069D01*
X40447574Y-61922069D02*
X40501449Y-61814319D01*
X40501449Y-61814319D02*
X40501449Y-61760445D01*
X40501449Y-61760445D02*
X40312887Y-61571883D01*
X40312887Y-61571883D02*
X40205138Y-61679632D01*
X40797760Y-61571883D02*
X40232075Y-61006197D01*
X40232075Y-61006197D02*
X40447574Y-60790698D01*
X40447574Y-60790698D02*
X40528386Y-60763761D01*
X40528386Y-60763761D02*
X40582261Y-60763761D01*
X40582261Y-60763761D02*
X40663073Y-60790698D01*
X40663073Y-60790698D02*
X40743886Y-60871510D01*
X40743886Y-60871510D02*
X40770823Y-60952323D01*
X40770823Y-60952323D02*
X40770823Y-61006197D01*
X40770823Y-61006197D02*
X40743886Y-61087010D01*
X40743886Y-61087010D02*
X40528386Y-61302509D01*
X41659757Y-60709886D02*
X41336508Y-61033135D01*
X41498133Y-60871510D02*
X40932447Y-60305825D01*
X40932447Y-60305825D02*
X40959385Y-60440512D01*
X40959385Y-60440512D02*
X40959385Y-60548261D01*
X40959385Y-60548261D02*
X40932447Y-60629074D01*
X41282634Y-59955638D02*
X41659757Y-59578515D01*
X41659757Y-59578515D02*
X41983006Y-60386637D01*
X39989638Y-51142509D02*
X39908826Y-51169446D01*
X39908826Y-51169446D02*
X39828014Y-51250258D01*
X39828014Y-51250258D02*
X39774139Y-51358008D01*
X39774139Y-51358008D02*
X39774139Y-51465758D01*
X39774139Y-51465758D02*
X39801077Y-51546570D01*
X39801077Y-51546570D02*
X39881889Y-51681257D01*
X39881889Y-51681257D02*
X39962701Y-51762069D01*
X39962701Y-51762069D02*
X40097388Y-51842881D01*
X40097388Y-51842881D02*
X40178200Y-51869819D01*
X40178200Y-51869819D02*
X40285950Y-51869819D01*
X40285950Y-51869819D02*
X40393699Y-51815944D01*
X40393699Y-51815944D02*
X40447574Y-51762069D01*
X40447574Y-51762069D02*
X40501449Y-51654319D01*
X40501449Y-51654319D02*
X40501449Y-51600445D01*
X40501449Y-51600445D02*
X40312887Y-51411883D01*
X40312887Y-51411883D02*
X40205138Y-51519632D01*
X40797760Y-51411883D02*
X40232075Y-50846197D01*
X40232075Y-50846197D02*
X40447574Y-50630698D01*
X40447574Y-50630698D02*
X40528386Y-50603761D01*
X40528386Y-50603761D02*
X40582261Y-50603761D01*
X40582261Y-50603761D02*
X40663073Y-50630698D01*
X40663073Y-50630698D02*
X40743886Y-50711510D01*
X40743886Y-50711510D02*
X40770823Y-50792323D01*
X40770823Y-50792323D02*
X40770823Y-50846197D01*
X40770823Y-50846197D02*
X40743886Y-50927010D01*
X40743886Y-50927010D02*
X40528386Y-51142509D01*
X40824698Y-50361324D02*
X40824698Y-50307449D01*
X40824698Y-50307449D02*
X40851635Y-50226637D01*
X40851635Y-50226637D02*
X40986322Y-50091950D01*
X40986322Y-50091950D02*
X41067134Y-50065013D01*
X41067134Y-50065013D02*
X41121009Y-50065013D01*
X41121009Y-50065013D02*
X41201821Y-50091950D01*
X41201821Y-50091950D02*
X41255696Y-50145825D01*
X41255696Y-50145825D02*
X41309571Y-50253574D01*
X41309571Y-50253574D02*
X41309571Y-50900072D01*
X41309571Y-50900072D02*
X41659757Y-50549886D01*
X41444258Y-49634014D02*
X41498133Y-49580139D01*
X41498133Y-49580139D02*
X41578945Y-49553202D01*
X41578945Y-49553202D02*
X41632820Y-49553202D01*
X41632820Y-49553202D02*
X41713632Y-49580139D01*
X41713632Y-49580139D02*
X41848319Y-49660951D01*
X41848319Y-49660951D02*
X41983006Y-49795638D01*
X41983006Y-49795638D02*
X42063818Y-49930326D01*
X42063818Y-49930326D02*
X42090756Y-50011138D01*
X42090756Y-50011138D02*
X42090756Y-50065013D01*
X42090756Y-50065013D02*
X42063818Y-50145825D01*
X42063818Y-50145825D02*
X42009944Y-50199700D01*
X42009944Y-50199700D02*
X41929131Y-50226637D01*
X41929131Y-50226637D02*
X41875257Y-50226637D01*
X41875257Y-50226637D02*
X41794444Y-50199700D01*
X41794444Y-50199700D02*
X41659757Y-50118887D01*
X41659757Y-50118887D02*
X41525070Y-49984200D01*
X41525070Y-49984200D02*
X41444258Y-49849513D01*
X41444258Y-49849513D02*
X41417321Y-49768701D01*
X41417321Y-49768701D02*
X41417321Y-49714826D01*
X41417321Y-49714826D02*
X41444258Y-49634014D01*
X13881638Y-48602509D02*
X13800826Y-48629446D01*
X13800826Y-48629446D02*
X13720014Y-48710258D01*
X13720014Y-48710258D02*
X13666139Y-48818008D01*
X13666139Y-48818008D02*
X13666139Y-48925758D01*
X13666139Y-48925758D02*
X13693077Y-49006570D01*
X13693077Y-49006570D02*
X13773889Y-49141257D01*
X13773889Y-49141257D02*
X13854701Y-49222069D01*
X13854701Y-49222069D02*
X13989388Y-49302881D01*
X13989388Y-49302881D02*
X14070200Y-49329819D01*
X14070200Y-49329819D02*
X14177950Y-49329819D01*
X14177950Y-49329819D02*
X14285699Y-49275944D01*
X14285699Y-49275944D02*
X14339574Y-49222069D01*
X14339574Y-49222069D02*
X14393449Y-49114319D01*
X14393449Y-49114319D02*
X14393449Y-49060445D01*
X14393449Y-49060445D02*
X14204887Y-48871883D01*
X14204887Y-48871883D02*
X14097138Y-48979632D01*
X14689760Y-48871883D02*
X14124075Y-48306197D01*
X14124075Y-48306197D02*
X14339574Y-48090698D01*
X14339574Y-48090698D02*
X14420386Y-48063761D01*
X14420386Y-48063761D02*
X14474261Y-48063761D01*
X14474261Y-48063761D02*
X14555073Y-48090698D01*
X14555073Y-48090698D02*
X14635886Y-48171510D01*
X14635886Y-48171510D02*
X14662823Y-48252323D01*
X14662823Y-48252323D02*
X14662823Y-48306197D01*
X14662823Y-48306197D02*
X14635886Y-48387010D01*
X14635886Y-48387010D02*
X14420386Y-48602509D01*
X15551757Y-48009886D02*
X15228508Y-48333135D01*
X15390133Y-48171510D02*
X14824447Y-47605825D01*
X14824447Y-47605825D02*
X14851385Y-47740512D01*
X14851385Y-47740512D02*
X14851385Y-47848261D01*
X14851385Y-47848261D02*
X14824447Y-47929074D01*
X15336258Y-47094014D02*
X15390133Y-47040139D01*
X15390133Y-47040139D02*
X15470945Y-47013202D01*
X15470945Y-47013202D02*
X15524820Y-47013202D01*
X15524820Y-47013202D02*
X15605632Y-47040139D01*
X15605632Y-47040139D02*
X15740319Y-47120951D01*
X15740319Y-47120951D02*
X15875006Y-47255638D01*
X15875006Y-47255638D02*
X15955818Y-47390326D01*
X15955818Y-47390326D02*
X15982756Y-47471138D01*
X15982756Y-47471138D02*
X15982756Y-47525013D01*
X15982756Y-47525013D02*
X15955818Y-47605825D01*
X15955818Y-47605825D02*
X15901944Y-47659700D01*
X15901944Y-47659700D02*
X15821131Y-47686637D01*
X15821131Y-47686637D02*
X15767257Y-47686637D01*
X15767257Y-47686637D02*
X15686444Y-47659700D01*
X15686444Y-47659700D02*
X15551757Y-47578887D01*
X15551757Y-47578887D02*
X15417070Y-47444200D01*
X15417070Y-47444200D02*
X15336258Y-47309513D01*
X15336258Y-47309513D02*
X15309321Y-47228701D01*
X15309321Y-47228701D02*
X15309321Y-47174826D01*
X15309321Y-47174826D02*
X15336258Y-47094014D01*
X40043514Y-34062880D02*
X40312888Y-33793506D01*
X40151263Y-34278380D02*
X39774140Y-33524132D01*
X39774140Y-33524132D02*
X40528387Y-33901256D01*
X40474512Y-32877635D02*
X40393700Y-32904572D01*
X40393700Y-32904572D02*
X40312888Y-32985385D01*
X40312888Y-32985385D02*
X40259013Y-33093134D01*
X40259013Y-33093134D02*
X40259013Y-33200884D01*
X40259013Y-33200884D02*
X40285950Y-33281696D01*
X40285950Y-33281696D02*
X40366762Y-33416383D01*
X40366762Y-33416383D02*
X40447575Y-33497195D01*
X40447575Y-33497195D02*
X40582262Y-33578007D01*
X40582262Y-33578007D02*
X40663074Y-33604945D01*
X40663074Y-33604945D02*
X40770823Y-33604945D01*
X40770823Y-33604945D02*
X40878573Y-33551070D01*
X40878573Y-33551070D02*
X40932448Y-33497195D01*
X40932448Y-33497195D02*
X40986323Y-33389446D01*
X40986323Y-33389446D02*
X40986323Y-33335571D01*
X40986323Y-33335571D02*
X40797761Y-33147009D01*
X40797761Y-33147009D02*
X40690011Y-33254759D01*
X41282634Y-33147009D02*
X40716949Y-32581324D01*
X40716949Y-32581324D02*
X41605883Y-32823760D01*
X41605883Y-32823760D02*
X41040197Y-32258075D01*
X41875257Y-32554386D02*
X41309571Y-31988701D01*
X41309571Y-31988701D02*
X41444258Y-31854014D01*
X41444258Y-31854014D02*
X41552008Y-31800139D01*
X41552008Y-31800139D02*
X41659758Y-31800139D01*
X41659758Y-31800139D02*
X41740570Y-31827077D01*
X41740570Y-31827077D02*
X41875257Y-31907889D01*
X41875257Y-31907889D02*
X41956069Y-31988701D01*
X41956069Y-31988701D02*
X42036881Y-32123388D01*
X42036881Y-32123388D02*
X42063819Y-32204200D01*
X42063819Y-32204200D02*
X42063819Y-32311950D01*
X42063819Y-32311950D02*
X42009944Y-32419699D01*
X42009944Y-32419699D02*
X41875257Y-32554386D01*
X39781764Y-25812509D02*
X40131950Y-25462322D01*
X40131950Y-25462322D02*
X40158887Y-25866383D01*
X40158887Y-25866383D02*
X40239699Y-25785571D01*
X40239699Y-25785571D02*
X40320512Y-25758634D01*
X40320512Y-25758634D02*
X40374386Y-25758634D01*
X40374386Y-25758634D02*
X40455199Y-25785571D01*
X40455199Y-25785571D02*
X40589886Y-25920258D01*
X40589886Y-25920258D02*
X40616823Y-26001070D01*
X40616823Y-26001070D02*
X40616823Y-26054945D01*
X40616823Y-26054945D02*
X40589886Y-26135757D01*
X40589886Y-26135757D02*
X40428261Y-26297382D01*
X40428261Y-26297382D02*
X40347449Y-26324319D01*
X40347449Y-26324319D02*
X40293574Y-26324319D01*
X40293574Y-25300698D02*
X41047822Y-25677821D01*
X41047822Y-25677821D02*
X40670698Y-24923574D01*
X40805385Y-24788887D02*
X41155571Y-24438701D01*
X41155571Y-24438701D02*
X41182508Y-24842762D01*
X41182508Y-24842762D02*
X41263321Y-24761950D01*
X41263321Y-24761950D02*
X41344133Y-24735013D01*
X41344133Y-24735013D02*
X41398008Y-24735013D01*
X41398008Y-24735013D02*
X41478820Y-24761950D01*
X41478820Y-24761950D02*
X41613507Y-24896637D01*
X41613507Y-24896637D02*
X41640444Y-24977449D01*
X41640444Y-24977449D02*
X41640444Y-25031324D01*
X41640444Y-25031324D02*
X41613507Y-25112136D01*
X41613507Y-25112136D02*
X41451882Y-25273761D01*
X41451882Y-25273761D02*
X41371070Y-25300698D01*
X41371070Y-25300698D02*
X41317195Y-25300698D01*
X39989638Y-48612509D02*
X39908826Y-48639446D01*
X39908826Y-48639446D02*
X39828014Y-48720258D01*
X39828014Y-48720258D02*
X39774139Y-48828008D01*
X39774139Y-48828008D02*
X39774139Y-48935758D01*
X39774139Y-48935758D02*
X39801077Y-49016570D01*
X39801077Y-49016570D02*
X39881889Y-49151257D01*
X39881889Y-49151257D02*
X39962701Y-49232069D01*
X39962701Y-49232069D02*
X40097388Y-49312881D01*
X40097388Y-49312881D02*
X40178200Y-49339819D01*
X40178200Y-49339819D02*
X40285950Y-49339819D01*
X40285950Y-49339819D02*
X40393699Y-49285944D01*
X40393699Y-49285944D02*
X40447574Y-49232069D01*
X40447574Y-49232069D02*
X40501449Y-49124319D01*
X40501449Y-49124319D02*
X40501449Y-49070445D01*
X40501449Y-49070445D02*
X40312887Y-48881883D01*
X40312887Y-48881883D02*
X40205138Y-48989632D01*
X40797760Y-48881883D02*
X40232075Y-48316197D01*
X40232075Y-48316197D02*
X40447574Y-48100698D01*
X40447574Y-48100698D02*
X40528386Y-48073761D01*
X40528386Y-48073761D02*
X40582261Y-48073761D01*
X40582261Y-48073761D02*
X40663073Y-48100698D01*
X40663073Y-48100698D02*
X40743886Y-48181510D01*
X40743886Y-48181510D02*
X40770823Y-48262323D01*
X40770823Y-48262323D02*
X40770823Y-48316197D01*
X40770823Y-48316197D02*
X40743886Y-48397010D01*
X40743886Y-48397010D02*
X40528386Y-48612509D01*
X40824698Y-47831324D02*
X40824698Y-47777449D01*
X40824698Y-47777449D02*
X40851635Y-47696637D01*
X40851635Y-47696637D02*
X40986322Y-47561950D01*
X40986322Y-47561950D02*
X41067134Y-47535013D01*
X41067134Y-47535013D02*
X41121009Y-47535013D01*
X41121009Y-47535013D02*
X41201821Y-47561950D01*
X41201821Y-47561950D02*
X41255696Y-47615825D01*
X41255696Y-47615825D02*
X41309571Y-47723574D01*
X41309571Y-47723574D02*
X41309571Y-48370072D01*
X41309571Y-48370072D02*
X41659757Y-48019886D01*
X42198505Y-47481138D02*
X41875257Y-47804387D01*
X42036881Y-47642762D02*
X41471196Y-47077077D01*
X41471196Y-47077077D02*
X41498133Y-47211764D01*
X41498133Y-47211764D02*
X41498133Y-47319513D01*
X41498133Y-47319513D02*
X41471196Y-47400326D01*
X14405013Y-40713134D02*
X14324201Y-40740072D01*
X14324201Y-40740072D02*
X14243388Y-40820884D01*
X14243388Y-40820884D02*
X14189514Y-40928633D01*
X14189514Y-40928633D02*
X14189514Y-41036383D01*
X14189514Y-41036383D02*
X14216451Y-41117195D01*
X14216451Y-41117195D02*
X14297263Y-41251882D01*
X14297263Y-41251882D02*
X14378075Y-41332695D01*
X14378075Y-41332695D02*
X14512762Y-41413507D01*
X14512762Y-41413507D02*
X14593575Y-41440444D01*
X14593575Y-41440444D02*
X14701324Y-41440444D01*
X14701324Y-41440444D02*
X14809074Y-41386569D01*
X14809074Y-41386569D02*
X14862949Y-41332695D01*
X14862949Y-41332695D02*
X14916823Y-41224945D01*
X14916823Y-41224945D02*
X14916823Y-41171070D01*
X14916823Y-41171070D02*
X14728262Y-40982508D01*
X14728262Y-40982508D02*
X14620512Y-41090258D01*
X15213135Y-40982508D02*
X14647449Y-40416823D01*
X14647449Y-40416823D02*
X14862949Y-40201324D01*
X14862949Y-40201324D02*
X14943761Y-40174386D01*
X14943761Y-40174386D02*
X14997636Y-40174386D01*
X14997636Y-40174386D02*
X15078448Y-40201324D01*
X15078448Y-40201324D02*
X15159260Y-40282136D01*
X15159260Y-40282136D02*
X15186197Y-40362948D01*
X15186197Y-40362948D02*
X15186197Y-40416823D01*
X15186197Y-40416823D02*
X15159260Y-40497635D01*
X15159260Y-40497635D02*
X14943761Y-40713134D01*
X15536384Y-40012762D02*
X15455571Y-40039699D01*
X15455571Y-40039699D02*
X15401697Y-40039699D01*
X15401697Y-40039699D02*
X15320884Y-40012762D01*
X15320884Y-40012762D02*
X15293947Y-39985824D01*
X15293947Y-39985824D02*
X15267010Y-39905012D01*
X15267010Y-39905012D02*
X15267010Y-39851137D01*
X15267010Y-39851137D02*
X15293947Y-39770325D01*
X15293947Y-39770325D02*
X15401697Y-39662576D01*
X15401697Y-39662576D02*
X15482509Y-39635638D01*
X15482509Y-39635638D02*
X15536384Y-39635638D01*
X15536384Y-39635638D02*
X15617196Y-39662576D01*
X15617196Y-39662576D02*
X15644133Y-39689513D01*
X15644133Y-39689513D02*
X15671071Y-39770325D01*
X15671071Y-39770325D02*
X15671071Y-39824200D01*
X15671071Y-39824200D02*
X15644133Y-39905012D01*
X15644133Y-39905012D02*
X15536384Y-40012762D01*
X15536384Y-40012762D02*
X15509446Y-40093574D01*
X15509446Y-40093574D02*
X15509446Y-40147449D01*
X15509446Y-40147449D02*
X15536384Y-40228261D01*
X15536384Y-40228261D02*
X15644133Y-40336011D01*
X15644133Y-40336011D02*
X15724945Y-40362948D01*
X15724945Y-40362948D02*
X15778820Y-40362948D01*
X15778820Y-40362948D02*
X15859632Y-40336011D01*
X15859632Y-40336011D02*
X15967382Y-40228261D01*
X15967382Y-40228261D02*
X15994319Y-40147449D01*
X15994319Y-40147449D02*
X15994319Y-40093574D01*
X15994319Y-40093574D02*
X15967382Y-40012762D01*
X15967382Y-40012762D02*
X15859632Y-39905012D01*
X15859632Y-39905012D02*
X15778820Y-39878075D01*
X15778820Y-39878075D02*
X15724945Y-39878075D01*
X15724945Y-39878075D02*
X15644133Y-39905012D01*
X39989638Y-30568509D02*
X39908826Y-30595446D01*
X39908826Y-30595446D02*
X39828014Y-30676258D01*
X39828014Y-30676258D02*
X39774139Y-30784008D01*
X39774139Y-30784008D02*
X39774139Y-30891758D01*
X39774139Y-30891758D02*
X39801077Y-30972570D01*
X39801077Y-30972570D02*
X39881889Y-31107257D01*
X39881889Y-31107257D02*
X39962701Y-31188069D01*
X39962701Y-31188069D02*
X40097388Y-31268881D01*
X40097388Y-31268881D02*
X40178200Y-31295819D01*
X40178200Y-31295819D02*
X40285950Y-31295819D01*
X40285950Y-31295819D02*
X40393699Y-31241944D01*
X40393699Y-31241944D02*
X40447574Y-31188069D01*
X40447574Y-31188069D02*
X40501449Y-31080319D01*
X40501449Y-31080319D02*
X40501449Y-31026445D01*
X40501449Y-31026445D02*
X40312887Y-30837883D01*
X40312887Y-30837883D02*
X40205138Y-30945632D01*
X40797760Y-30837883D02*
X40232075Y-30272197D01*
X40232075Y-30272197D02*
X40447574Y-30056698D01*
X40447574Y-30056698D02*
X40528386Y-30029761D01*
X40528386Y-30029761D02*
X40582261Y-30029761D01*
X40582261Y-30029761D02*
X40663073Y-30056698D01*
X40663073Y-30056698D02*
X40743886Y-30137510D01*
X40743886Y-30137510D02*
X40770823Y-30218323D01*
X40770823Y-30218323D02*
X40770823Y-30272197D01*
X40770823Y-30272197D02*
X40743886Y-30353010D01*
X40743886Y-30353010D02*
X40528386Y-30568509D01*
X40824698Y-29787324D02*
X40824698Y-29733449D01*
X40824698Y-29733449D02*
X40851635Y-29652637D01*
X40851635Y-29652637D02*
X40986322Y-29517950D01*
X40986322Y-29517950D02*
X41067134Y-29491013D01*
X41067134Y-29491013D02*
X41121009Y-29491013D01*
X41121009Y-29491013D02*
X41201821Y-29517950D01*
X41201821Y-29517950D02*
X41255696Y-29571825D01*
X41255696Y-29571825D02*
X41309571Y-29679574D01*
X41309571Y-29679574D02*
X41309571Y-30326072D01*
X41309571Y-30326072D02*
X41659757Y-29975886D01*
X41659757Y-29329388D02*
X41578945Y-29356326D01*
X41578945Y-29356326D02*
X41525070Y-29356326D01*
X41525070Y-29356326D02*
X41444258Y-29329388D01*
X41444258Y-29329388D02*
X41417321Y-29302451D01*
X41417321Y-29302451D02*
X41390383Y-29221638D01*
X41390383Y-29221638D02*
X41390383Y-29167764D01*
X41390383Y-29167764D02*
X41417321Y-29086951D01*
X41417321Y-29086951D02*
X41525070Y-28979202D01*
X41525070Y-28979202D02*
X41605883Y-28952264D01*
X41605883Y-28952264D02*
X41659757Y-28952264D01*
X41659757Y-28952264D02*
X41740570Y-28979202D01*
X41740570Y-28979202D02*
X41767507Y-29006139D01*
X41767507Y-29006139D02*
X41794444Y-29086951D01*
X41794444Y-29086951D02*
X41794444Y-29140826D01*
X41794444Y-29140826D02*
X41767507Y-29221638D01*
X41767507Y-29221638D02*
X41659757Y-29329388D01*
X41659757Y-29329388D02*
X41632820Y-29410200D01*
X41632820Y-29410200D02*
X41632820Y-29464075D01*
X41632820Y-29464075D02*
X41659757Y-29544887D01*
X41659757Y-29544887D02*
X41767507Y-29652637D01*
X41767507Y-29652637D02*
X41848319Y-29679574D01*
X41848319Y-29679574D02*
X41902194Y-29679574D01*
X41902194Y-29679574D02*
X41983006Y-29652637D01*
X41983006Y-29652637D02*
X42090756Y-29544887D01*
X42090756Y-29544887D02*
X42117693Y-29464075D01*
X42117693Y-29464075D02*
X42117693Y-29410200D01*
X42117693Y-29410200D02*
X42090756Y-29329388D01*
X42090756Y-29329388D02*
X41983006Y-29221638D01*
X41983006Y-29221638D02*
X41902194Y-29194701D01*
X41902194Y-29194701D02*
X41848319Y-29194701D01*
X41848319Y-29194701D02*
X41767507Y-29221638D01*
X14405013Y-28013134D02*
X14324201Y-28040072D01*
X14324201Y-28040072D02*
X14243388Y-28120884D01*
X14243388Y-28120884D02*
X14189514Y-28228633D01*
X14189514Y-28228633D02*
X14189514Y-28336383D01*
X14189514Y-28336383D02*
X14216451Y-28417195D01*
X14216451Y-28417195D02*
X14297263Y-28551882D01*
X14297263Y-28551882D02*
X14378075Y-28632695D01*
X14378075Y-28632695D02*
X14512762Y-28713507D01*
X14512762Y-28713507D02*
X14593575Y-28740444D01*
X14593575Y-28740444D02*
X14701324Y-28740444D01*
X14701324Y-28740444D02*
X14809074Y-28686569D01*
X14809074Y-28686569D02*
X14862949Y-28632695D01*
X14862949Y-28632695D02*
X14916823Y-28524945D01*
X14916823Y-28524945D02*
X14916823Y-28471070D01*
X14916823Y-28471070D02*
X14728262Y-28282508D01*
X14728262Y-28282508D02*
X14620512Y-28390258D01*
X15213135Y-28282508D02*
X14647449Y-27716823D01*
X14647449Y-27716823D02*
X14862949Y-27501324D01*
X14862949Y-27501324D02*
X14943761Y-27474386D01*
X14943761Y-27474386D02*
X14997636Y-27474386D01*
X14997636Y-27474386D02*
X15078448Y-27501324D01*
X15078448Y-27501324D02*
X15159260Y-27582136D01*
X15159260Y-27582136D02*
X15186197Y-27662948D01*
X15186197Y-27662948D02*
X15186197Y-27716823D01*
X15186197Y-27716823D02*
X15159260Y-27797635D01*
X15159260Y-27797635D02*
X14943761Y-28013134D01*
X15644133Y-27097263D02*
X16021257Y-27474386D01*
X15293947Y-27016450D02*
X15563321Y-27555198D01*
X15563321Y-27555198D02*
X15913507Y-27205012D01*
X40046704Y-28855690D02*
X40316078Y-28586316D01*
X40154454Y-29071189D02*
X39777330Y-28316942D01*
X39777330Y-28316942D02*
X40531578Y-28694066D01*
X40720139Y-28505504D02*
X40154454Y-27939819D01*
X40154454Y-27939819D02*
X40289141Y-27805132D01*
X40289141Y-27805132D02*
X40396890Y-27751257D01*
X40396890Y-27751257D02*
X40504640Y-27751257D01*
X40504640Y-27751257D02*
X40585452Y-27778194D01*
X40585452Y-27778194D02*
X40720139Y-27859006D01*
X40720139Y-27859006D02*
X40800951Y-27939819D01*
X40800951Y-27939819D02*
X40881764Y-28074506D01*
X40881764Y-28074506D02*
X40908701Y-28155318D01*
X40908701Y-28155318D02*
X40908701Y-28263067D01*
X40908701Y-28263067D02*
X40854826Y-28370817D01*
X40854826Y-28370817D02*
X40720139Y-28505504D01*
X41555199Y-27562695D02*
X41555199Y-27616570D01*
X41555199Y-27616570D02*
X41501324Y-27724319D01*
X41501324Y-27724319D02*
X41447449Y-27778194D01*
X41447449Y-27778194D02*
X41339699Y-27832069D01*
X41339699Y-27832069D02*
X41231950Y-27832069D01*
X41231950Y-27832069D02*
X41151138Y-27805132D01*
X41151138Y-27805132D02*
X41016451Y-27724319D01*
X41016451Y-27724319D02*
X40935638Y-27643507D01*
X40935638Y-27643507D02*
X40854826Y-27508820D01*
X40854826Y-27508820D02*
X40827889Y-27428008D01*
X40827889Y-27428008D02*
X40827889Y-27320258D01*
X40827889Y-27320258D02*
X40881764Y-27212509D01*
X40881764Y-27212509D02*
X40935638Y-27158634D01*
X40935638Y-27158634D02*
X41043388Y-27104759D01*
X41043388Y-27104759D02*
X41097263Y-27104759D01*
X41770698Y-27562695D02*
X42201696Y-27131696D01*
X41636011Y-26458261D02*
X42390258Y-26835385D01*
X42390258Y-26835385D02*
X42013135Y-26081138D01*
X43090630Y-26135013D02*
X42632695Y-26054201D01*
X42767382Y-26458262D02*
X42201696Y-25892576D01*
X42201696Y-25892576D02*
X42417195Y-25677077D01*
X42417195Y-25677077D02*
X42498008Y-25650139D01*
X42498008Y-25650139D02*
X42551882Y-25650139D01*
X42551882Y-25650139D02*
X42632695Y-25677077D01*
X42632695Y-25677077D02*
X42713507Y-25757889D01*
X42713507Y-25757889D02*
X42740444Y-25838701D01*
X42740444Y-25838701D02*
X42740444Y-25892576D01*
X42740444Y-25892576D02*
X42713507Y-25973388D01*
X42713507Y-25973388D02*
X42498008Y-26188888D01*
X43036756Y-25596265D02*
X43225317Y-25407703D01*
X43602441Y-25623202D02*
X43333067Y-25892576D01*
X43333067Y-25892576D02*
X42767382Y-25326891D01*
X42767382Y-25326891D02*
X43036756Y-25057517D01*
X43737128Y-24895892D02*
X43548567Y-25084454D01*
X43844878Y-25380765D02*
X43279193Y-24815080D01*
X43279193Y-24815080D02*
X43548567Y-24545706D01*
X39978076Y-45820072D02*
X39897263Y-45847009D01*
X39897263Y-45847009D02*
X39816451Y-45927821D01*
X39816451Y-45927821D02*
X39762576Y-46035571D01*
X39762576Y-46035571D02*
X39762576Y-46143320D01*
X39762576Y-46143320D02*
X39789514Y-46224133D01*
X39789514Y-46224133D02*
X39870326Y-46358820D01*
X39870326Y-46358820D02*
X39951138Y-46439632D01*
X39951138Y-46439632D02*
X40085825Y-46520444D01*
X40085825Y-46520444D02*
X40166637Y-46547381D01*
X40166637Y-46547381D02*
X40274387Y-46547381D01*
X40274387Y-46547381D02*
X40382137Y-46493507D01*
X40382137Y-46493507D02*
X40436011Y-46439632D01*
X40436011Y-46439632D02*
X40489886Y-46331882D01*
X40489886Y-46331882D02*
X40489886Y-46278007D01*
X40489886Y-46278007D02*
X40301324Y-46089446D01*
X40301324Y-46089446D02*
X40193575Y-46197195D01*
X40786198Y-46089446D02*
X40220512Y-45523760D01*
X40220512Y-45523760D02*
X41109446Y-45766197D01*
X41109446Y-45766197D02*
X40543761Y-45200511D01*
X41378820Y-45496823D02*
X40813135Y-44931137D01*
X40813135Y-44931137D02*
X40947822Y-44796450D01*
X40947822Y-44796450D02*
X41055571Y-44742576D01*
X41055571Y-44742576D02*
X41163321Y-44742576D01*
X41163321Y-44742576D02*
X41244133Y-44769513D01*
X41244133Y-44769513D02*
X41378820Y-44850325D01*
X41378820Y-44850325D02*
X41459632Y-44931137D01*
X41459632Y-44931137D02*
X41540445Y-45065824D01*
X41540445Y-45065824D02*
X41567382Y-45146637D01*
X41567382Y-45146637D02*
X41567382Y-45254386D01*
X41567382Y-45254386D02*
X41513507Y-45362136D01*
X41513507Y-45362136D02*
X41378820Y-45496823D01*
X14378076Y-45820072D02*
X14297263Y-45847009D01*
X14297263Y-45847009D02*
X14216451Y-45927821D01*
X14216451Y-45927821D02*
X14162576Y-46035571D01*
X14162576Y-46035571D02*
X14162576Y-46143320D01*
X14162576Y-46143320D02*
X14189514Y-46224133D01*
X14189514Y-46224133D02*
X14270326Y-46358820D01*
X14270326Y-46358820D02*
X14351138Y-46439632D01*
X14351138Y-46439632D02*
X14485825Y-46520444D01*
X14485825Y-46520444D02*
X14566637Y-46547381D01*
X14566637Y-46547381D02*
X14674387Y-46547381D01*
X14674387Y-46547381D02*
X14782137Y-46493507D01*
X14782137Y-46493507D02*
X14836011Y-46439632D01*
X14836011Y-46439632D02*
X14889886Y-46331882D01*
X14889886Y-46331882D02*
X14889886Y-46278007D01*
X14889886Y-46278007D02*
X14701324Y-46089446D01*
X14701324Y-46089446D02*
X14593575Y-46197195D01*
X15186198Y-46089446D02*
X14620512Y-45523760D01*
X14620512Y-45523760D02*
X15509446Y-45766197D01*
X15509446Y-45766197D02*
X14943761Y-45200511D01*
X15778820Y-45496823D02*
X15213135Y-44931137D01*
X15213135Y-44931137D02*
X15347822Y-44796450D01*
X15347822Y-44796450D02*
X15455571Y-44742576D01*
X15455571Y-44742576D02*
X15563321Y-44742576D01*
X15563321Y-44742576D02*
X15644133Y-44769513D01*
X15644133Y-44769513D02*
X15778820Y-44850325D01*
X15778820Y-44850325D02*
X15859632Y-44931137D01*
X15859632Y-44931137D02*
X15940445Y-45065824D01*
X15940445Y-45065824D02*
X15967382Y-45146637D01*
X15967382Y-45146637D02*
X15967382Y-45254386D01*
X15967382Y-45254386D02*
X15913507Y-45362136D01*
X15913507Y-45362136D02*
X15778820Y-45496823D01*
X14505013Y-38143134D02*
X14424201Y-38170072D01*
X14424201Y-38170072D02*
X14343388Y-38250884D01*
X14343388Y-38250884D02*
X14289514Y-38358633D01*
X14289514Y-38358633D02*
X14289514Y-38466383D01*
X14289514Y-38466383D02*
X14316451Y-38547195D01*
X14316451Y-38547195D02*
X14397263Y-38681882D01*
X14397263Y-38681882D02*
X14478075Y-38762695D01*
X14478075Y-38762695D02*
X14612762Y-38843507D01*
X14612762Y-38843507D02*
X14693575Y-38870444D01*
X14693575Y-38870444D02*
X14801324Y-38870444D01*
X14801324Y-38870444D02*
X14909074Y-38816569D01*
X14909074Y-38816569D02*
X14962949Y-38762695D01*
X14962949Y-38762695D02*
X15016823Y-38654945D01*
X15016823Y-38654945D02*
X15016823Y-38601070D01*
X15016823Y-38601070D02*
X14828262Y-38412508D01*
X14828262Y-38412508D02*
X14720512Y-38520258D01*
X15313135Y-38412508D02*
X14747449Y-37846823D01*
X14747449Y-37846823D02*
X14962949Y-37631324D01*
X14962949Y-37631324D02*
X15043761Y-37604386D01*
X15043761Y-37604386D02*
X15097636Y-37604386D01*
X15097636Y-37604386D02*
X15178448Y-37631324D01*
X15178448Y-37631324D02*
X15259260Y-37712136D01*
X15259260Y-37712136D02*
X15286197Y-37792948D01*
X15286197Y-37792948D02*
X15286197Y-37846823D01*
X15286197Y-37846823D02*
X15259260Y-37927635D01*
X15259260Y-37927635D02*
X15043761Y-38143134D01*
X15259260Y-37335012D02*
X15636384Y-36957889D01*
X15636384Y-36957889D02*
X15959632Y-37766011D01*
X13881638Y-63842509D02*
X13800826Y-63869446D01*
X13800826Y-63869446D02*
X13720014Y-63950258D01*
X13720014Y-63950258D02*
X13666139Y-64058008D01*
X13666139Y-64058008D02*
X13666139Y-64165758D01*
X13666139Y-64165758D02*
X13693077Y-64246570D01*
X13693077Y-64246570D02*
X13773889Y-64381257D01*
X13773889Y-64381257D02*
X13854701Y-64462069D01*
X13854701Y-64462069D02*
X13989388Y-64542881D01*
X13989388Y-64542881D02*
X14070200Y-64569819D01*
X14070200Y-64569819D02*
X14177950Y-64569819D01*
X14177950Y-64569819D02*
X14285699Y-64515944D01*
X14285699Y-64515944D02*
X14339574Y-64462069D01*
X14339574Y-64462069D02*
X14393449Y-64354319D01*
X14393449Y-64354319D02*
X14393449Y-64300445D01*
X14393449Y-64300445D02*
X14204887Y-64111883D01*
X14204887Y-64111883D02*
X14097138Y-64219632D01*
X14689760Y-64111883D02*
X14124075Y-63546197D01*
X14124075Y-63546197D02*
X14339574Y-63330698D01*
X14339574Y-63330698D02*
X14420386Y-63303761D01*
X14420386Y-63303761D02*
X14474261Y-63303761D01*
X14474261Y-63303761D02*
X14555073Y-63330698D01*
X14555073Y-63330698D02*
X14635886Y-63411510D01*
X14635886Y-63411510D02*
X14662823Y-63492323D01*
X14662823Y-63492323D02*
X14662823Y-63546197D01*
X14662823Y-63546197D02*
X14635886Y-63627010D01*
X14635886Y-63627010D02*
X14420386Y-63842509D01*
X15551757Y-63249886D02*
X15228508Y-63573135D01*
X15390133Y-63411510D02*
X14824447Y-62845825D01*
X14824447Y-62845825D02*
X14851385Y-62980512D01*
X14851385Y-62980512D02*
X14851385Y-63088261D01*
X14851385Y-63088261D02*
X14824447Y-63169074D01*
X15497883Y-62172390D02*
X15228509Y-62441764D01*
X15228509Y-62441764D02*
X15470945Y-62738075D01*
X15470945Y-62738075D02*
X15470945Y-62684200D01*
X15470945Y-62684200D02*
X15497883Y-62603388D01*
X15497883Y-62603388D02*
X15632570Y-62468701D01*
X15632570Y-62468701D02*
X15713382Y-62441764D01*
X15713382Y-62441764D02*
X15767257Y-62441764D01*
X15767257Y-62441764D02*
X15848069Y-62468701D01*
X15848069Y-62468701D02*
X15982756Y-62603388D01*
X15982756Y-62603388D02*
X16009693Y-62684200D01*
X16009693Y-62684200D02*
X16009693Y-62738075D01*
X16009693Y-62738075D02*
X15982756Y-62818887D01*
X15982756Y-62818887D02*
X15848069Y-62953574D01*
X15848069Y-62953574D02*
X15767257Y-62980512D01*
X15767257Y-62980512D02*
X15713382Y-62980512D01*
X39978076Y-58520072D02*
X39897263Y-58547009D01*
X39897263Y-58547009D02*
X39816451Y-58627821D01*
X39816451Y-58627821D02*
X39762576Y-58735571D01*
X39762576Y-58735571D02*
X39762576Y-58843320D01*
X39762576Y-58843320D02*
X39789514Y-58924133D01*
X39789514Y-58924133D02*
X39870326Y-59058820D01*
X39870326Y-59058820D02*
X39951138Y-59139632D01*
X39951138Y-59139632D02*
X40085825Y-59220444D01*
X40085825Y-59220444D02*
X40166637Y-59247381D01*
X40166637Y-59247381D02*
X40274387Y-59247381D01*
X40274387Y-59247381D02*
X40382137Y-59193507D01*
X40382137Y-59193507D02*
X40436011Y-59139632D01*
X40436011Y-59139632D02*
X40489886Y-59031882D01*
X40489886Y-59031882D02*
X40489886Y-58978007D01*
X40489886Y-58978007D02*
X40301324Y-58789446D01*
X40301324Y-58789446D02*
X40193575Y-58897195D01*
X40786198Y-58789446D02*
X40220512Y-58223760D01*
X40220512Y-58223760D02*
X41109446Y-58466197D01*
X41109446Y-58466197D02*
X40543761Y-57900511D01*
X41378820Y-58196823D02*
X40813135Y-57631137D01*
X40813135Y-57631137D02*
X40947822Y-57496450D01*
X40947822Y-57496450D02*
X41055571Y-57442576D01*
X41055571Y-57442576D02*
X41163321Y-57442576D01*
X41163321Y-57442576D02*
X41244133Y-57469513D01*
X41244133Y-57469513D02*
X41378820Y-57550325D01*
X41378820Y-57550325D02*
X41459632Y-57631137D01*
X41459632Y-57631137D02*
X41540445Y-57765824D01*
X41540445Y-57765824D02*
X41567382Y-57846637D01*
X41567382Y-57846637D02*
X41567382Y-57954386D01*
X41567382Y-57954386D02*
X41513507Y-58062136D01*
X41513507Y-58062136D02*
X41378820Y-58196823D01*
X13735638Y-53682509D02*
X13654826Y-53709446D01*
X13654826Y-53709446D02*
X13574014Y-53790258D01*
X13574014Y-53790258D02*
X13520139Y-53898008D01*
X13520139Y-53898008D02*
X13520139Y-54005758D01*
X13520139Y-54005758D02*
X13547077Y-54086570D01*
X13547077Y-54086570D02*
X13627889Y-54221257D01*
X13627889Y-54221257D02*
X13708701Y-54302069D01*
X13708701Y-54302069D02*
X13843388Y-54382881D01*
X13843388Y-54382881D02*
X13924200Y-54409819D01*
X13924200Y-54409819D02*
X14031950Y-54409819D01*
X14031950Y-54409819D02*
X14139699Y-54355944D01*
X14139699Y-54355944D02*
X14193574Y-54302069D01*
X14193574Y-54302069D02*
X14247449Y-54194319D01*
X14247449Y-54194319D02*
X14247449Y-54140445D01*
X14247449Y-54140445D02*
X14058887Y-53951883D01*
X14058887Y-53951883D02*
X13951138Y-54059632D01*
X14543760Y-53951883D02*
X13978075Y-53386197D01*
X13978075Y-53386197D02*
X14193574Y-53170698D01*
X14193574Y-53170698D02*
X14274386Y-53143761D01*
X14274386Y-53143761D02*
X14328261Y-53143761D01*
X14328261Y-53143761D02*
X14409073Y-53170698D01*
X14409073Y-53170698D02*
X14489886Y-53251510D01*
X14489886Y-53251510D02*
X14516823Y-53332323D01*
X14516823Y-53332323D02*
X14516823Y-53386197D01*
X14516823Y-53386197D02*
X14489886Y-53467010D01*
X14489886Y-53467010D02*
X14274386Y-53682509D01*
X15405757Y-53089886D02*
X15082508Y-53413135D01*
X15244133Y-53251510D02*
X14678447Y-52685825D01*
X14678447Y-52685825D02*
X14705385Y-52820512D01*
X14705385Y-52820512D02*
X14705385Y-52928261D01*
X14705385Y-52928261D02*
X14678447Y-53009074D01*
X15109446Y-52362576D02*
X15109446Y-52308701D01*
X15109446Y-52308701D02*
X15136383Y-52227889D01*
X15136383Y-52227889D02*
X15271070Y-52093202D01*
X15271070Y-52093202D02*
X15351883Y-52066264D01*
X15351883Y-52066264D02*
X15405757Y-52066264D01*
X15405757Y-52066264D02*
X15486570Y-52093202D01*
X15486570Y-52093202D02*
X15540444Y-52147077D01*
X15540444Y-52147077D02*
X15594319Y-52254826D01*
X15594319Y-52254826D02*
X15594319Y-52901324D01*
X15594319Y-52901324D02*
X15944505Y-52551138D01*
%TO.C,R4*%
X85603333Y-52422380D02*
X85270000Y-51946190D01*
X85031905Y-52422380D02*
X85031905Y-51422380D01*
X85031905Y-51422380D02*
X85412857Y-51422380D01*
X85412857Y-51422380D02*
X85508095Y-51470000D01*
X85508095Y-51470000D02*
X85555714Y-51517619D01*
X85555714Y-51517619D02*
X85603333Y-51612857D01*
X85603333Y-51612857D02*
X85603333Y-51755714D01*
X85603333Y-51755714D02*
X85555714Y-51850952D01*
X85555714Y-51850952D02*
X85508095Y-51898571D01*
X85508095Y-51898571D02*
X85412857Y-51946190D01*
X85412857Y-51946190D02*
X85031905Y-51946190D01*
X86460476Y-51755714D02*
X86460476Y-52422380D01*
X86222381Y-51374761D02*
X85984286Y-52089047D01*
X85984286Y-52089047D02*
X86603333Y-52089047D01*
%TO.C,R2*%
X85873333Y-62612380D02*
X85540000Y-62136190D01*
X85301905Y-62612380D02*
X85301905Y-61612380D01*
X85301905Y-61612380D02*
X85682857Y-61612380D01*
X85682857Y-61612380D02*
X85778095Y-61660000D01*
X85778095Y-61660000D02*
X85825714Y-61707619D01*
X85825714Y-61707619D02*
X85873333Y-61802857D01*
X85873333Y-61802857D02*
X85873333Y-61945714D01*
X85873333Y-61945714D02*
X85825714Y-62040952D01*
X85825714Y-62040952D02*
X85778095Y-62088571D01*
X85778095Y-62088571D02*
X85682857Y-62136190D01*
X85682857Y-62136190D02*
X85301905Y-62136190D01*
X86254286Y-61707619D02*
X86301905Y-61660000D01*
X86301905Y-61660000D02*
X86397143Y-61612380D01*
X86397143Y-61612380D02*
X86635238Y-61612380D01*
X86635238Y-61612380D02*
X86730476Y-61660000D01*
X86730476Y-61660000D02*
X86778095Y-61707619D01*
X86778095Y-61707619D02*
X86825714Y-61802857D01*
X86825714Y-61802857D02*
X86825714Y-61898095D01*
X86825714Y-61898095D02*
X86778095Y-62040952D01*
X86778095Y-62040952D02*
X86206667Y-62612380D01*
X86206667Y-62612380D02*
X86825714Y-62612380D01*
%TO.C,J3*%
X21831666Y-73922380D02*
X21831666Y-74636666D01*
X21831666Y-74636666D02*
X21784047Y-74779523D01*
X21784047Y-74779523D02*
X21688809Y-74874761D01*
X21688809Y-74874761D02*
X21545952Y-74922380D01*
X21545952Y-74922380D02*
X21450714Y-74922380D01*
X22212619Y-73922380D02*
X22831666Y-73922380D01*
X22831666Y-73922380D02*
X22498333Y-74303333D01*
X22498333Y-74303333D02*
X22641190Y-74303333D01*
X22641190Y-74303333D02*
X22736428Y-74350952D01*
X22736428Y-74350952D02*
X22784047Y-74398571D01*
X22784047Y-74398571D02*
X22831666Y-74493809D01*
X22831666Y-74493809D02*
X22831666Y-74731904D01*
X22831666Y-74731904D02*
X22784047Y-74827142D01*
X22784047Y-74827142D02*
X22736428Y-74874761D01*
X22736428Y-74874761D02*
X22641190Y-74922380D01*
X22641190Y-74922380D02*
X22355476Y-74922380D01*
X22355476Y-74922380D02*
X22260238Y-74874761D01*
X22260238Y-74874761D02*
X22212619Y-74827142D01*
%TO.C,J4*%
X136211666Y-66677380D02*
X136211666Y-67391666D01*
X136211666Y-67391666D02*
X136164047Y-67534523D01*
X136164047Y-67534523D02*
X136068809Y-67629761D01*
X136068809Y-67629761D02*
X135925952Y-67677380D01*
X135925952Y-67677380D02*
X135830714Y-67677380D01*
X137116428Y-67010714D02*
X137116428Y-67677380D01*
X136878333Y-66629761D02*
X136640238Y-67344047D01*
X136640238Y-67344047D02*
X137259285Y-67344047D01*
%TO.C,J5*%
X156491666Y-67052380D02*
X156491666Y-67766666D01*
X156491666Y-67766666D02*
X156444047Y-67909523D01*
X156444047Y-67909523D02*
X156348809Y-68004761D01*
X156348809Y-68004761D02*
X156205952Y-68052380D01*
X156205952Y-68052380D02*
X156110714Y-68052380D01*
X157444047Y-67052380D02*
X156967857Y-67052380D01*
X156967857Y-67052380D02*
X156920238Y-67528571D01*
X156920238Y-67528571D02*
X156967857Y-67480952D01*
X156967857Y-67480952D02*
X157063095Y-67433333D01*
X157063095Y-67433333D02*
X157301190Y-67433333D01*
X157301190Y-67433333D02*
X157396428Y-67480952D01*
X157396428Y-67480952D02*
X157444047Y-67528571D01*
X157444047Y-67528571D02*
X157491666Y-67623809D01*
X157491666Y-67623809D02*
X157491666Y-67861904D01*
X157491666Y-67861904D02*
X157444047Y-67957142D01*
X157444047Y-67957142D02*
X157396428Y-68004761D01*
X157396428Y-68004761D02*
X157301190Y-68052380D01*
X157301190Y-68052380D02*
X157063095Y-68052380D01*
X157063095Y-68052380D02*
X156967857Y-68004761D01*
X156967857Y-68004761D02*
X156920238Y-67957142D01*
D10*
%TO.C,MOD1*%
X57785000Y-13335000D02*
X45085000Y-13335000D01*
X45085000Y-13335000D02*
X45085000Y-36195000D01*
X45085000Y-36195000D02*
X57785000Y-36195000D01*
X57785000Y-36195000D02*
X57785000Y-13335000D01*
D12*
%TO.C,R1*%
X92287867Y-61024999D02*
G75*
G03*
X92384905Y-59575642I417133J699999D01*
G01*
D10*
%TO.C,MOD2*%
X161607500Y-65722500D02*
X96202500Y-65722500D01*
X96202500Y-65722500D02*
X96202500Y-33337500D01*
X96202500Y-33337500D02*
X161607500Y-33337500D01*
X161607500Y-33337500D02*
X161607500Y-65722500D01*
D12*
%TO.C,J2*%
X75260000Y-71645000D02*
X75260000Y-69145000D01*
X75260000Y-69145000D02*
X72760000Y-69145000D01*
X74960000Y-73465000D02*
X74960000Y-69445000D01*
X74960000Y-71755000D02*
X74460000Y-71755000D01*
X74960000Y-70945000D02*
X73960000Y-70945000D01*
X74960000Y-69445000D02*
X49740000Y-69445000D01*
X74460000Y-72965000D02*
X50240000Y-72965000D01*
X74460000Y-71755000D02*
X74460000Y-72965000D01*
X73960000Y-70945000D02*
X73960000Y-69445000D01*
X50740000Y-70945000D02*
X50740000Y-69445000D01*
X50240000Y-72965000D02*
X50240000Y-71755000D01*
X50240000Y-71755000D02*
X49740000Y-71755000D01*
X49740000Y-73465000D02*
X74960000Y-73465000D01*
X49740000Y-70945000D02*
X50740000Y-70945000D01*
X49740000Y-69445000D02*
X49740000Y-73465000D01*
%TO.C,J1*%
X31380000Y-71230000D02*
X31380000Y-73730000D01*
X31380000Y-73730000D02*
X33880000Y-73730000D01*
X31680000Y-69410000D02*
X31680000Y-73430000D01*
X31680000Y-71120000D02*
X32180000Y-71120000D01*
X31680000Y-71930000D02*
X32680000Y-71930000D01*
X31680000Y-73430000D02*
X46900000Y-73430000D01*
X32180000Y-69910000D02*
X46400000Y-69910000D01*
X32180000Y-71120000D02*
X32180000Y-69910000D01*
X32680000Y-71930000D02*
X32680000Y-73430000D01*
X45900000Y-71930000D02*
X45900000Y-73430000D01*
X46400000Y-69910000D02*
X46400000Y-71120000D01*
X46400000Y-71120000D02*
X46900000Y-71120000D01*
X46900000Y-69410000D02*
X31680000Y-69410000D01*
X46900000Y-71930000D02*
X45900000Y-71930000D01*
X46900000Y-73430000D02*
X46900000Y-69410000D01*
D10*
%TO.C,MOD6*%
X59690000Y-31750000D02*
X95250000Y-31750000D01*
X95250000Y-31750000D02*
X95250000Y-48260000D01*
X95250000Y-48260000D02*
X59690000Y-48260000D01*
X59690000Y-48260000D02*
X59690000Y-31750000D01*
D12*
%TO.C,J6*%
X142505000Y-70595000D02*
X142505000Y-73095000D01*
X142505000Y-73095000D02*
X145005000Y-73095000D01*
X142805000Y-68775000D02*
X142805000Y-72795000D01*
X142805000Y-70485000D02*
X143305000Y-70485000D01*
X142805000Y-71295000D02*
X143805000Y-71295000D01*
X142805000Y-72795000D02*
X150525000Y-72795000D01*
X143305000Y-69275000D02*
X150025000Y-69275000D01*
X143305000Y-70485000D02*
X143305000Y-69275000D01*
X143805000Y-71295000D02*
X143805000Y-72795000D01*
X149525000Y-71295000D02*
X149525000Y-72795000D01*
X150025000Y-69275000D02*
X150025000Y-70485000D01*
X150025000Y-70485000D02*
X150525000Y-70485000D01*
X150525000Y-68775000D02*
X142805000Y-68775000D01*
X150525000Y-71295000D02*
X149525000Y-71295000D01*
X150525000Y-72795000D02*
X150525000Y-68775000D01*
D10*
%TO.C,MOD4*%
X59690000Y-49530000D02*
X82550000Y-49530000D01*
X82550000Y-49530000D02*
X82550000Y-66675000D01*
X82550000Y-66675000D02*
X59690000Y-66675000D01*
X59690000Y-66675000D02*
X59690000Y-49530000D01*
D12*
%TO.C,R3*%
X91222133Y-53275001D02*
G75*
G03*
X91125095Y-54724358I-417133J-699999D01*
G01*
%TO.C,U1*%
X17440000Y-13870000D02*
X17440000Y-14170000D01*
X17440000Y-13870000D02*
X38440000Y-13870000D01*
X17440000Y-16270000D02*
X17440000Y-16670000D01*
X17440000Y-16537000D02*
X20447000Y-16537000D01*
X17440000Y-18870000D02*
X17440000Y-19270000D01*
X17440000Y-21370000D02*
X17440000Y-21770000D01*
X17440000Y-23970000D02*
X17440000Y-24370000D01*
X17440000Y-26470000D02*
X17440000Y-26870000D01*
X17440000Y-28970000D02*
X17440000Y-29370000D01*
X17440000Y-31570000D02*
X17440000Y-31970000D01*
X17440000Y-34070000D02*
X17440000Y-34470000D01*
X17440000Y-36670000D02*
X17440000Y-37070000D01*
X17440000Y-39170000D02*
X17440000Y-39570000D01*
X17440000Y-41670000D02*
X17440000Y-42070000D01*
X17440000Y-44270000D02*
X17440000Y-44670000D01*
X17440000Y-46770000D02*
X17440000Y-47170000D01*
X17440000Y-49370000D02*
X17440000Y-49770000D01*
X17440000Y-51870000D02*
X17440000Y-52270000D01*
X17440000Y-54470000D02*
X17440000Y-54870000D01*
X17440000Y-56970000D02*
X17440000Y-57370000D01*
X17440000Y-59470000D02*
X17440000Y-59870000D01*
X17440000Y-62070000D02*
X17440000Y-62470000D01*
X20447000Y-16537000D02*
X20447000Y-13870000D01*
X24240000Y-64870000D02*
X17440000Y-64870000D01*
X26440000Y-64870000D02*
X26840000Y-64870000D01*
X29040000Y-64870000D02*
X29440000Y-64870000D01*
X38440000Y-13870000D02*
X38440000Y-14170000D01*
X38440000Y-16270000D02*
X38440000Y-16670000D01*
X38440000Y-18870000D02*
X38440000Y-19270000D01*
X38440000Y-21370000D02*
X38440000Y-21770000D01*
X38440000Y-23970000D02*
X38440000Y-24370000D01*
X38440000Y-26470000D02*
X38440000Y-26870000D01*
X38440000Y-28970000D02*
X38440000Y-29370000D01*
X38440000Y-31570000D02*
X38440000Y-31970000D01*
X38440000Y-34070000D02*
X38440000Y-34470000D01*
X38440000Y-36670000D02*
X38440000Y-37070000D01*
X38440000Y-39170000D02*
X38440000Y-39570000D01*
X38440000Y-41670000D02*
X38440000Y-42070000D01*
X38440000Y-44270000D02*
X38440000Y-44670000D01*
X38440000Y-46770000D02*
X38440000Y-47170000D01*
X38440000Y-49370000D02*
X38440000Y-49770000D01*
X38440000Y-51870000D02*
X38440000Y-52270000D01*
X38440000Y-54470000D02*
X38440000Y-54870000D01*
X38440000Y-56970000D02*
X38440000Y-57370000D01*
X38440000Y-59470000D02*
X38440000Y-59870000D01*
X38440000Y-62070000D02*
X38440000Y-62470000D01*
X38440000Y-64870000D02*
X31640000Y-64870000D01*
%TO.C,R4*%
X85237133Y-53275001D02*
G75*
G03*
X85140095Y-54724358I-417133J-699999D01*
G01*
%TO.C,R2*%
X86572867Y-61024999D02*
G75*
G03*
X86669905Y-59575642I417133J699999D01*
G01*
%TO.C,J3*%
X28825000Y-71645000D02*
X28825000Y-69145000D01*
X28825000Y-69145000D02*
X26325000Y-69145000D01*
X28525000Y-73465000D02*
X28525000Y-69445000D01*
X28525000Y-71755000D02*
X28025000Y-71755000D01*
X28525000Y-70945000D02*
X27525000Y-70945000D01*
X28525000Y-69445000D02*
X15805000Y-69445000D01*
X28025000Y-72965000D02*
X16305000Y-72965000D01*
X28025000Y-71755000D02*
X28025000Y-72965000D01*
X27525000Y-70945000D02*
X27525000Y-69445000D01*
X16805000Y-70945000D02*
X16805000Y-69445000D01*
X16305000Y-72965000D02*
X16305000Y-71755000D01*
X16305000Y-71755000D02*
X15805000Y-71755000D01*
X15805000Y-73465000D02*
X28525000Y-73465000D01*
X15805000Y-70945000D02*
X16805000Y-70945000D01*
X15805000Y-69445000D02*
X15805000Y-73465000D01*
%TO.C,J4*%
X140705000Y-71010000D02*
X140705000Y-68510000D01*
X140705000Y-68510000D02*
X138205000Y-68510000D01*
X140405000Y-72830000D02*
X140405000Y-68810000D01*
X140405000Y-71120000D02*
X139905000Y-71120000D01*
X140405000Y-70310000D02*
X139405000Y-70310000D01*
X140405000Y-68810000D02*
X132685000Y-68810000D01*
X139905000Y-72330000D02*
X133185000Y-72330000D01*
X139905000Y-71120000D02*
X139905000Y-72330000D01*
X139405000Y-70310000D02*
X139405000Y-68810000D01*
X133685000Y-70310000D02*
X133685000Y-68810000D01*
X133185000Y-72330000D02*
X133185000Y-71120000D01*
X133185000Y-71120000D02*
X132685000Y-71120000D01*
X132685000Y-72830000D02*
X140405000Y-72830000D01*
X132685000Y-70310000D02*
X133685000Y-70310000D01*
X132685000Y-68810000D02*
X132685000Y-72830000D01*
%TO.C,J5*%
X152665000Y-70595000D02*
X152665000Y-73095000D01*
X152665000Y-73095000D02*
X155165000Y-73095000D01*
X152965000Y-68775000D02*
X152965000Y-72795000D01*
X152965000Y-70485000D02*
X153465000Y-70485000D01*
X152965000Y-71295000D02*
X153965000Y-71295000D01*
X152965000Y-72795000D02*
X160685000Y-72795000D01*
X153465000Y-69275000D02*
X160185000Y-69275000D01*
X153465000Y-70485000D02*
X153465000Y-69275000D01*
X153965000Y-71295000D02*
X153965000Y-72795000D01*
X159685000Y-71295000D02*
X159685000Y-72795000D01*
X160185000Y-69275000D02*
X160185000Y-70485000D01*
X160185000Y-70485000D02*
X160685000Y-70485000D01*
X160685000Y-68775000D02*
X152965000Y-68775000D01*
X160685000Y-71295000D02*
X159685000Y-71295000D01*
X160685000Y-72795000D02*
X160685000Y-68775000D01*
%TD*%
M02*
